<svg class="toyplot-canvas-Canvas" height="300.0px" id="te3d42e900a304f8f80cb5082cae7c02e" preserveAspectRatio="xMidYMid meet" style="background-color:transparent;border-color:#292724;border-style:none;border-width:1.0;fill:rgb(16.1%,15.3%,14.1%);fill-opacity:1.0;font-family:Helvetica;font-size:12px;opacity:1.0;stroke:rgb(16.1%,15.3%,14.1%);stroke-opacity:1.0;stroke-width:1.0" viewBox="0 0 350.0 300.0" width="350.0px" xmlns="http://www.w3.org/2000/svg" xmlns:toyplot="http://www.sandia.gov/toyplot" xmlns:xlink="http://www.w3.org/1999/xlink"><g class="toyplot-coordinates-Cartesian" id="t3fef1812f6bf4ae8812bc383e9021bb9"><clipPath id="td92d49f9fff04f41be8e0a94469dad25"><rect height="220.0" width="270.0" x="40.0" y="40.0" /></clipPath><g clip-path="url(#td92d49f9fff04f41be8e0a94469dad25)"><g class="toyplot-mark-Point" id="tf70e37d1f4264f13902c8a7436728d65"><g class="toyplot-Series"><g class="toyplot-Datum" style="fill:rgb(40%,76.1%,64.7%);fill-opacity:1.0;opacity:0.7;stroke:rgb(40%,76.1%,64.7%);stroke-opacity:1.0" transform="translate(50.0005, 50.09512912122735)"><circle r="3.5" /></g><g class="toyplot-Datum" style="fill:rgb(40%,76.1%,64.7%);fill-opacity:1.0;opacity:0.7;stroke:rgb(40%,76.1%,64.7%);stroke-opacity:1.0" transform="translate(50.001, 50.13278439837987)"><circle r="3.5" /></g><g class="toyplot-Datum" style="fill:rgb(40%,76.1%,64.7%);fill-opacity:1.0;opacity:0.7;stroke:rgb(40%,76.1%,64.7%);stroke-opacity:1.0" transform="translate(50.001, 50.10900211807301)"><circle r="3.5" /></g><g class="toyplot-Datum" style="fill:rgb(40%,76.1%,64.7%);fill-opacity:1.0;opacity:0.7;stroke:rgb(40%,76.1%,64.7%);stroke-opacity:1.0" transform="translate(50.00150000000001, 50.15458482199446)"><circle r="3.5" /></g><g class="toyplot-Datum" style="fill:rgb(40%,76.1%,64.7%);fill-opacity:1.0;opacity:0.7;stroke:rgb(40%,76.1%,64.7%);stroke-opacity:1.0" transform="translate(50.002, 50.22394980622271)"><circle r="3.5" /></g><g class="toyplot-Datum" style="fill:rgb(40%,76.1%,64.7%);fill-opacity:1.0;opacity:0.7;stroke:rgb(40%,76.1%,64.7%);stroke-opacity:1.0" transform="translate(50.003, 50.241786516452876)"><circle r="3.5" /></g><g class="toyplot-Datum" style="fill:rgb(40%,76.1%,64.7%);fill-opacity:1.0;opacity:0.7;stroke:rgb(40%,76.1%,64.7%);stroke-opacity:1.0" transform="translate(50.004000000000005, 50.45780889590667)"><circle r="3.5" /></g><g class="toyplot-Datum" style="fill:rgb(40%,76.1%,64.7%);fill-opacity:1.0;opacity:0.7;stroke:rgb(40%,76.1%,64.7%);stroke-opacity:1.0" transform="translate(50.005, 50.54699244705732)"><circle r="3.5" /></g><g class="toyplot-Datum" style="fill:rgb(40%,76.1%,64.7%);fill-opacity:1.0;opacity:0.7;stroke:rgb(40%,76.1%,64.7%);stroke-opacity:1.0" transform="translate(50.0065, 50.88390808473757)"><circle r="3.5" /></g><g class="toyplot-Datum" style="fill:rgb(40%,76.1%,64.7%);fill-opacity:1.0;opacity:0.7;stroke:rgb(40%,76.1%,64.7%);stroke-opacity:1.0" transform="translate(50.0085, 51.0860574673457)"><circle r="3.5" /></g><g class="toyplot-Datum" style="fill:rgb(40%,76.1%,64.7%);fill-opacity:1.0;opacity:0.7;stroke:rgb(40%,76.1%,64.7%);stroke-opacity:1.0" transform="translate(50.011500000000005, 51.5676486435592)"><circle r="3.5" /></g><g class="toyplot-Datum" style="fill:rgb(40%,76.1%,64.7%);fill-opacity:1.0;opacity:0.7;stroke:rgb(40%,76.1%,64.7%);stroke-opacity:1.0" transform="translate(50.014500000000005, 51.23469671926348)"><circle r="3.5" /></g><g class="toyplot-Datum" style="fill:rgb(40%,76.1%,64.7%);fill-opacity:1.0;opacity:0.7;stroke:rgb(40%,76.1%,64.7%);stroke-opacity:1.0" transform="translate(50.019, 51.898618711162726)"><circle r="3.5" /></g><g class="toyplot-Datum" style="fill:rgb(40%,76.1%,64.7%);fill-opacity:1.0;opacity:0.7;stroke:rgb(40%,76.1%,64.7%);stroke-opacity:1.0" transform="translate(50.0245, 52.53677656606297)"><circle r="3.5" /></g><g class="toyplot-Datum" style="fill:rgb(40%,76.1%,64.7%);fill-opacity:1.0;opacity:0.7;stroke:rgb(40%,76.1%,64.7%);stroke-opacity:1.0" transform="translate(50.032000000000004, 53.74174543494286)"><circle r="3.5" /></g><g class="toyplot-Datum" style="fill:rgb(40%,76.1%,64.7%);fill-opacity:1.0;opacity:0.7;stroke:rgb(40%,76.1%,64.7%);stroke-opacity:1.0" transform="translate(50.041, 54.31252016230703)"><circle r="3.5" /></g><g class="toyplot-Datum" style="fill:rgb(40%,76.1%,64.7%);fill-opacity:1.0;opacity:0.7;stroke:rgb(40%,76.1%,64.7%);stroke-opacity:1.0" transform="translate(50.053000000000004, 55.06760756204918)"><circle r="3.5" /></g><g class="toyplot-Datum" style="fill:rgb(40%,76.1%,64.7%);fill-opacity:1.0;opacity:0.7;stroke:rgb(40%,76.1%,64.7%);stroke-opacity:1.0" transform="translate(50.068999999999996, 57.17035751251227)"><circle r="3.5" /></g><g class="toyplot-Datum" style="fill:rgb(40%,76.1%,64.7%);fill-opacity:1.0;opacity:0.7;stroke:rgb(40%,76.1%,64.7%);stroke-opacity:1.0" transform="translate(50.089, 59.51489397942829)"><circle r="3.5" /></g><g class="toyplot-Datum" style="fill:rgb(40%,76.1%,64.7%);fill-opacity:1.0;opacity:0.7;stroke:rgb(40%,76.1%,64.7%);stroke-opacity:1.0" transform="translate(50.114999999999995, 61.1360527536779)"><circle r="3.5" /></g><g class="toyplot-Datum" style="fill:rgb(40%,76.1%,64.7%);fill-opacity:1.0;opacity:0.7;stroke:rgb(40%,76.1%,64.7%);stroke-opacity:1.0" transform="translate(50.1485, 64.76681421385551)"><circle r="3.5" /></g><g class="toyplot-Datum" style="fill:rgb(40%,76.1%,64.7%);fill-opacity:1.0;opacity:0.7;stroke:rgb(40%,76.1%,64.7%);stroke-opacity:1.0" transform="translate(50.192, 68.9643866880128)"><circle r="3.5" /></g><g class="toyplot-Datum" style="fill:rgb(40%,76.1%,64.7%);fill-opacity:1.0;opacity:0.7;stroke:rgb(40%,76.1%,64.7%);stroke-opacity:1.0" transform="translate(50.2485, 74.09739552090579)"><circle r="3.5" /></g><g class="toyplot-Datum" style="fill:rgb(40%,76.1%,64.7%);fill-opacity:1.0;opacity:0.7;stroke:rgb(40%,76.1%,64.7%);stroke-opacity:1.0" transform="translate(50.321, 79.66046725601414)"><circle r="3.5" /></g><g class="toyplot-Datum" style="fill:rgb(40%,76.1%,64.7%);fill-opacity:1.0;opacity:0.7;stroke:rgb(40%,76.1%,64.7%);stroke-opacity:1.0" transform="translate(50.4145, 87.25097838728064)"><circle r="3.5" /></g><g class="toyplot-Datum" style="fill:rgb(40%,76.1%,64.7%);fill-opacity:1.0;opacity:0.7;stroke:rgb(40%,76.1%,64.7%);stroke-opacity:1.0" transform="translate(50.535500000000006, 96.68065252894276)"><circle r="3.5" /></g><g class="toyplot-Datum" style="fill:rgb(40%,76.1%,64.7%);fill-opacity:1.0;opacity:0.7;stroke:rgb(40%,76.1%,64.7%);stroke-opacity:1.0" transform="translate(50.692, 105.89034057776661)"><circle r="3.5" /></g><g class="toyplot-Datum" style="fill:rgb(40%,76.1%,64.7%);fill-opacity:1.0;opacity:0.7;stroke:rgb(40%,76.1%,64.7%);stroke-opacity:1.0" transform="translate(50.894, 116.63794941976613)"><circle r="3.5" /></g><g class="toyplot-Datum" style="fill:rgb(40%,76.1%,64.7%);fill-opacity:1.0;opacity:0.7;stroke:rgb(40%,76.1%,64.7%);stroke-opacity:1.0" transform="translate(51.15500000000001, 129.6032559003785)"><circle r="3.5" /></g><g class="toyplot-Datum" style="fill:rgb(40%,76.1%,64.7%);fill-opacity:1.0;opacity:0.7;stroke:rgb(40%,76.1%,64.7%);stroke-opacity:1.0" transform="translate(51.492, 144.66536676137727)"><circle r="3.5" /></g><g class="toyplot-Datum" style="fill:rgb(40%,76.1%,64.7%);fill-opacity:1.0;opacity:0.7;stroke:rgb(40%,76.1%,64.7%);stroke-opacity:1.0" transform="translate(51.9275, 158.04289943397487)"><circle r="3.5" /></g><g class="toyplot-Datum" style="fill:rgb(40%,76.1%,64.7%);fill-opacity:1.0;opacity:0.7;stroke:rgb(40%,76.1%,64.7%);stroke-opacity:1.0" transform="translate(52.49, 171.25593800111682)"><circle r="3.5" /></g><g class="toyplot-Datum" style="fill:rgb(40%,76.1%,64.7%);fill-opacity:1.0;opacity:0.7;stroke:rgb(40%,76.1%,64.7%);stroke-opacity:1.0" transform="translate(53.217, 184.12413350380956)"><circle r="3.5" /></g><g class="toyplot-Datum" style="fill:rgb(40%,76.1%,64.7%);fill-opacity:1.0;opacity:0.7;stroke:rgb(40%,76.1%,64.7%);stroke-opacity:1.0" transform="translate(54.156000000000006, 194.62004654589504)"><circle r="3.5" /></g><g class="toyplot-Datum" style="fill:rgb(40%,76.1%,64.7%);fill-opacity:1.0;opacity:0.7;stroke:rgb(40%,76.1%,64.7%);stroke-opacity:1.0" transform="translate(55.3685, 205.25667141312934)"><circle r="3.5" /></g><g class="toyplot-Datum" style="fill:rgb(40%,76.1%,64.7%);fill-opacity:1.0;opacity:0.7;stroke:rgb(40%,76.1%,64.7%);stroke-opacity:1.0" transform="translate(56.9355, 213.57848766383114)"><circle r="3.5" /></g><g class="toyplot-Datum" style="fill:rgb(40%,76.1%,64.7%);fill-opacity:1.0;opacity:0.7;stroke:rgb(40%,76.1%,64.7%);stroke-opacity:1.0" transform="translate(58.959500000000006, 221.08377895733142)"><circle r="3.5" /></g><g class="toyplot-Datum" style="fill:rgb(40%,76.1%,64.7%);fill-opacity:1.0;opacity:0.7;stroke:rgb(40%,76.1%,64.7%);stroke-opacity:1.0" transform="translate(61.574, 226.6765785428234)"><circle r="3.5" /></g><g class="toyplot-Datum" style="fill:rgb(40%,76.1%,64.7%);fill-opacity:1.0;opacity:0.7;stroke:rgb(40%,76.1%,64.7%);stroke-opacity:1.0" transform="translate(64.952, 230.25184801561835)"><circle r="3.5" /></g><g class="toyplot-Datum" style="fill:rgb(40%,76.1%,64.7%);fill-opacity:1.0;opacity:0.7;stroke:rgb(40%,76.1%,64.7%);stroke-opacity:1.0" transform="translate(69.315, 232.6915136037617)"><circle r="3.5" /></g><g class="toyplot-Datum" style="fill:rgb(40%,76.1%,64.7%);fill-opacity:1.0;opacity:0.7;stroke:rgb(40%,76.1%,64.7%);stroke-opacity:1.0" transform="translate(74.952, 234.25916224732086)"><circle r="3.5" /></g><g class="toyplot-Datum" style="fill:rgb(40%,76.1%,64.7%);fill-opacity:1.0;opacity:0.7;stroke:rgb(40%,76.1%,64.7%);stroke-opacity:1.0" transform="translate(82.23349999999999, 235.57511509096608)"><circle r="3.5" /></g><g class="toyplot-Datum" style="fill:rgb(40%,76.1%,64.7%);fill-opacity:1.0;opacity:0.7;stroke:rgb(40%,76.1%,64.7%);stroke-opacity:1.0" transform="translate(91.64, 235.59889737127284)"><circle r="3.5" /></g><g class="toyplot-Datum" style="fill:rgb(40%,76.1%,64.7%);fill-opacity:1.0;opacity:0.7;stroke:rgb(40%,76.1%,64.7%);stroke-opacity:1.0" transform="translate(103.792, 236.66117255831173)"><circle r="3.5" /></g><g class="toyplot-Datum" style="fill:rgb(40%,76.1%,64.7%);fill-opacity:1.0;opacity:0.7;stroke:rgb(40%,76.1%,64.7%);stroke-opacity:1.0" transform="translate(119.49, 237.15663673137092)"><circle r="3.5" /></g><g class="toyplot-Datum" style="fill:rgb(40%,76.1%,64.7%);fill-opacity:1.0;opacity:0.7;stroke:rgb(40%,76.1%,64.7%);stroke-opacity:1.0" transform="translate(139.76850000000002, 236.94259620860936)"><circle r="3.5" /></g><g class="toyplot-Datum" style="fill:rgb(40%,76.1%,64.7%);fill-opacity:1.0;opacity:0.7;stroke:rgb(40%,76.1%,64.7%);stroke-opacity:1.0" transform="translate(165.96550000000002, 236.7543198228469)"><circle r="3.5" /></g><g class="toyplot-Datum" style="fill:rgb(40%,76.1%,64.7%);fill-opacity:1.0;opacity:0.7;stroke:rgb(40%,76.1%,64.7%);stroke-opacity:1.0" transform="translate(199.807, 236.79593881338386)"><circle r="3.5" /></g><g class="toyplot-Datum" style="fill:rgb(40%,76.1%,64.7%);fill-opacity:1.0;opacity:0.7;stroke:rgb(40%,76.1%,64.7%);stroke-opacity:1.0" transform="translate(243.5245, 236.97826962906964)"><circle r="3.5" /></g><g class="toyplot-Datum" style="fill:rgb(40%,76.1%,64.7%);fill-opacity:1.0;opacity:0.7;stroke:rgb(40%,76.1%,64.7%);stroke-opacity:1.0" transform="translate(299.9995, 237.3409494037489)"><circle r="3.5" /></g></g></g><g class="toyplot-mark-Plot" id="t5cc73552f6ff414db78f741ff1dd654d" style="fill:none;stroke-dasharray:0, 0"><g class="toyplot-Series"><path d="M 50.0005 52.08561609489948 L 50.001 52.12564411825065 L 50.001 52.12564411825065 L 50.00150000000001 52.16566327469874 L 50.002 52.205673566208 L 50.003 52.28566756226449 L 50.004000000000005 52.365626122124766 L 50.005 52.445549261486676 L 50.0065 52.56536759141652 L 50.0085 52.72500153930075 L 50.011500000000005 52.96418737567337 L 50.014500000000005 53.20305548512203 L 50.019 53.560762834412 L 50.0245 53.9969932369907 L 50.032000000000004 54.59014224520833 L 50.041 55.29932408238605 L 50.053000000000004 56.24051138958808 L 50.068999999999996 57.487668571518036 L 50.089 59.0342329284607 L 50.114999999999995 61.024385929243664 L 50.1485 63.55505146912756 L 50.192 66.78557884214769 L 50.2485 70.8896585890151 L 50.321 76.00766729323314 L 50.4145 82.36998588286066 L 50.535500000000006 90.2218383472701 L 50.692 99.77256887835128 L 50.894 111.16033888669796 L 51.15500000000001 124.44276995959487 L 51.492 139.47045702045517 L 51.9275 155.84597089712702 L 52.49 172.8189158705316 L 53.217 189.33294777349604 L 54.156000000000006 204.1220875425418 L 55.3685 216.0355001181603 L 56.9355 224.41993158611814 L 58.959500000000006 229.37303812363234 L 61.574 231.7136327019253 L 64.952 232.54505416826788 L 69.315 232.7501612262707 L 74.952 232.7820032422032 L 82.23349999999999 232.78474464427032 L 91.64 232.78485623261363 L 103.792 232.7848579797122 L 119.49 232.78485798775677 L 139.76850000000002 232.78485798776444 L 165.96550000000002 232.78485798776444 L 199.807 232.78485798776444 L 243.5245 232.78485798776444 L 299.9995 232.78485798776444" style="stroke:rgb(40%,76.1%,64.7%);stroke-dasharray:0, 0;stroke-opacity:1.0;stroke-width:2.0" /></g></g><g class="toyplot-mark-Point" id="t5668fed19eb84603b3b77d16abdc0e6a"><g class="toyplot-Series"><g class="toyplot-Datum" style="fill:rgb(98.8%,55.3%,38.4%);fill-opacity:1.0;opacity:0.7;stroke:rgb(98.8%,55.3%,38.4%);stroke-opacity:1.0" transform="translate(50.0005, 50.027266530334)"><rect height="7.0" width="7.0" x="-3.5" y="-3.5" /></g><g class="toyplot-Datum" style="fill:rgb(98.8%,55.3%,38.4%);fill-opacity:1.0;opacity:0.7;stroke:rgb(98.8%,55.3%,38.4%);stroke-opacity:1.0" transform="translate(50.001, 50.007790437238285)"><rect height="7.0" width="7.0" x="-3.5" y="-3.5" /></g><g class="toyplot-Datum" style="fill:rgb(98.8%,55.3%,38.4%);fill-opacity:1.0;opacity:0.7;stroke:rgb(98.8%,55.3%,38.4%);stroke-opacity:1.0" transform="translate(50.001, 50.011685655857406)"><rect height="7.0" width="7.0" x="-3.5" y="-3.5" /></g><g class="toyplot-Datum" style="fill:rgb(98.8%,55.3%,38.4%);fill-opacity:1.0;opacity:0.7;stroke:rgb(98.8%,55.3%,38.4%);stroke-opacity:1.0" transform="translate(50.00150000000001, 50.01947609309569)"><rect height="7.0" width="7.0" x="-3.5" y="-3.5" /></g><g class="toyplot-Datum" style="fill:rgb(98.8%,55.3%,38.4%);fill-opacity:1.0;opacity:0.7;stroke:rgb(98.8%,55.3%,38.4%);stroke-opacity:1.0" transform="translate(50.002, 50.015580874476555)"><rect height="7.0" width="7.0" x="-3.5" y="-3.5" /></g><g class="toyplot-Datum" style="fill:rgb(98.8%,55.3%,38.4%);fill-opacity:1.0;opacity:0.7;stroke:rgb(98.8%,55.3%,38.4%);stroke-opacity:1.0" transform="translate(50.003, 50.03505696757229)"><rect height="7.0" width="7.0" x="-3.5" y="-3.5" /></g><g class="toyplot-Datum" style="fill:rgb(98.8%,55.3%,38.4%);fill-opacity:1.0;opacity:0.7;stroke:rgb(98.8%,55.3%,38.4%);stroke-opacity:1.0" transform="translate(50.004000000000005, 50.050637842048886)"><rect height="7.0" width="7.0" x="-3.5" y="-3.5" /></g><g class="toyplot-Datum" style="fill:rgb(98.8%,55.3%,38.4%);fill-opacity:1.0;opacity:0.7;stroke:rgb(98.8%,55.3%,38.4%);stroke-opacity:1.0" transform="translate(50.005, 50.085694809621174)"><rect height="7.0" width="7.0" x="-3.5" y="-3.5" /></g><g class="toyplot-Datum" style="fill:rgb(98.8%,55.3%,38.4%);fill-opacity:1.0;opacity:0.7;stroke:rgb(98.8%,55.3%,38.4%);stroke-opacity:1.0" transform="translate(50.0065, 50.03895218619145)"><rect height="7.0" width="7.0" x="-3.5" y="-3.5" /></g><g class="toyplot-Datum" style="fill:rgb(98.8%,55.3%,38.4%);fill-opacity:1.0;opacity:0.7;stroke:rgb(98.8%,55.3%,38.4%);stroke-opacity:1.0" transform="translate(50.0085, 50.10906612133603)"><rect height="7.0" width="7.0" x="-3.5" y="-3.5" /></g><g class="toyplot-Datum" style="fill:rgb(98.8%,55.3%,38.4%);fill-opacity:1.0;opacity:0.7;stroke:rgb(98.8%,55.3%,38.4%);stroke-opacity:1.0" transform="translate(50.011500000000005, 50.09738046547862)"><rect height="7.0" width="7.0" x="-3.5" y="-3.5" /></g><g class="toyplot-Datum" style="fill:rgb(98.8%,55.3%,38.4%);fill-opacity:1.0;opacity:0.7;stroke:rgb(98.8%,55.3%,38.4%);stroke-opacity:1.0" transform="translate(50.014500000000005, 50.14022787028922)"><rect height="7.0" width="7.0" x="-3.5" y="-3.5" /></g><g class="toyplot-Datum" style="fill:rgb(98.8%,55.3%,38.4%);fill-opacity:1.0;opacity:0.7;stroke:rgb(98.8%,55.3%,38.4%);stroke-opacity:1.0" transform="translate(50.019, 50.222027461291255)"><rect height="7.0" width="7.0" x="-3.5" y="-3.5" /></g><g class="toyplot-Datum" style="fill:rgb(98.8%,55.3%,38.4%);fill-opacity:1.0;opacity:0.7;stroke:rgb(98.8%,55.3%,38.4%);stroke-opacity:1.0" transform="translate(50.0245, 50.34277923848478)"><rect height="7.0" width="7.0" x="-3.5" y="-3.5" /></g><g class="toyplot-Datum" style="fill:rgb(98.8%,55.3%,38.4%);fill-opacity:1.0;opacity:0.7;stroke:rgb(98.8%,55.3%,38.4%);stroke-opacity:1.0" transform="translate(50.032000000000004, 50.42068361086767)"><rect height="7.0" width="7.0" x="-3.5" y="-3.5" /></g><g class="toyplot-Datum" style="fill:rgb(98.8%,55.3%,38.4%);fill-opacity:1.0;opacity:0.7;stroke:rgb(98.8%,55.3%,38.4%);stroke-opacity:1.0" transform="translate(50.041, 50.658291946635515)"><rect height="7.0" width="7.0" x="-3.5" y="-3.5" /></g><g class="toyplot-Datum" style="fill:rgb(98.8%,55.3%,38.4%);fill-opacity:1.0;opacity:0.7;stroke:rgb(98.8%,55.3%,38.4%);stroke-opacity:1.0" transform="translate(50.053000000000004, 50.833576784497026)"><rect height="7.0" width="7.0" x="-3.5" y="-3.5" /></g><g class="toyplot-Datum" style="fill:rgb(98.8%,55.3%,38.4%);fill-opacity:1.0;opacity:0.7;stroke:rgb(98.8%,55.3%,38.4%);stroke-opacity:1.0" transform="translate(50.068999999999996, 50.80631025416302)"><rect height="7.0" width="7.0" x="-3.5" y="-3.5" /></g><g class="toyplot-Datum" style="fill:rgb(98.8%,55.3%,38.4%);fill-opacity:1.0;opacity:0.7;stroke:rgb(98.8%,55.3%,38.4%);stroke-opacity:1.0" transform="translate(50.089, 51.46849741941766)"><rect height="7.0" width="7.0" x="-3.5" y="-3.5" /></g><g class="toyplot-Datum" style="fill:rgb(98.8%,55.3%,38.4%);fill-opacity:1.0;opacity:0.7;stroke:rgb(98.8%,55.3%,38.4%);stroke-opacity:1.0" transform="translate(50.114999999999995, 51.6632583503749)"><rect height="7.0" width="7.0" x="-3.5" y="-3.5" /></g><g class="toyplot-Datum" style="fill:rgb(98.8%,55.3%,38.4%);fill-opacity:1.0;opacity:0.7;stroke:rgb(98.8%,55.3%,38.4%);stroke-opacity:1.0" transform="translate(50.1485, 52.243645924627494)"><rect height="7.0" width="7.0" x="-3.5" y="-3.5" /></g><g class="toyplot-Datum" style="fill:rgb(98.8%,55.3%,38.4%);fill-opacity:1.0;opacity:0.7;stroke:rgb(98.8%,55.3%,38.4%);stroke-opacity:1.0" transform="translate(50.192, 52.898042652643866)"><rect height="7.0" width="7.0" x="-3.5" y="-3.5" /></g><g class="toyplot-Datum" style="fill:rgb(98.8%,55.3%,38.4%);fill-opacity:1.0;opacity:0.7;stroke:rgb(98.8%,55.3%,38.4%);stroke-opacity:1.0" transform="translate(50.2485, 53.70824812542601)"><rect height="7.0" width="7.0" x="-3.5" y="-3.5" /></g><g class="toyplot-Datum" style="fill:rgb(98.8%,55.3%,38.4%);fill-opacity:1.0;opacity:0.7;stroke:rgb(98.8%,55.3%,38.4%);stroke-opacity:1.0" transform="translate(50.321, 54.56909144025708)"><rect height="7.0" width="7.0" x="-3.5" y="-3.5" /></g><g class="toyplot-Datum" style="fill:rgb(98.8%,55.3%,38.4%);fill-opacity:1.0;opacity:0.7;stroke:rgb(98.8%,55.3%,38.4%);stroke-opacity:1.0" transform="translate(50.4145, 55.7376570260006)"><rect height="7.0" width="7.0" x="-3.5" y="-3.5" /></g><g class="toyplot-Datum" style="fill:rgb(98.8%,55.3%,38.4%);fill-opacity:1.0;opacity:0.7;stroke:rgb(98.8%,55.3%,38.4%);stroke-opacity:1.0" transform="translate(50.535500000000006, 57.36196319018407)"><rect height="7.0" width="7.0" x="-3.5" y="-3.5" /></g><g class="toyplot-Datum" style="fill:rgb(98.8%,55.3%,38.4%);fill-opacity:1.0;opacity:0.7;stroke:rgb(98.8%,55.3%,38.4%);stroke-opacity:1.0" transform="translate(50.692, 60.088616223585525)"><rect height="7.0" width="7.0" x="-3.5" y="-3.5" /></g><g class="toyplot-Datum" style="fill:rgb(98.8%,55.3%,38.4%);fill-opacity:1.0;opacity:0.7;stroke:rgb(98.8%,55.3%,38.4%);stroke-opacity:1.0" transform="translate(50.894, 62.66725094945956)"><rect height="7.0" width="7.0" x="-3.5" y="-3.5" /></g><g class="toyplot-Datum" style="fill:rgb(98.8%,55.3%,38.4%);fill-opacity:1.0;opacity:0.7;stroke:rgb(98.8%,55.3%,38.4%);stroke-opacity:1.0" transform="translate(51.15500000000001, 65.83016846820529)"><rect height="7.0" width="7.0" x="-3.5" y="-3.5" /></g><g class="toyplot-Datum" style="fill:rgb(98.8%,55.3%,38.4%);fill-opacity:1.0;opacity:0.7;stroke:rgb(98.8%,55.3%,38.4%);stroke-opacity:1.0" transform="translate(51.492, 69.6669588080631)"><rect height="7.0" width="7.0" x="-3.5" y="-3.5" /></g><g class="toyplot-Datum" style="fill:rgb(98.8%,55.3%,38.4%);fill-opacity:1.0;opacity:0.7;stroke:rgb(98.8%,55.3%,38.4%);stroke-opacity:1.0" transform="translate(51.9275, 74.23215502970105)"><rect height="7.0" width="7.0" x="-3.5" y="-3.5" /></g><g class="toyplot-Datum" style="fill:rgb(98.8%,55.3%,38.4%);fill-opacity:1.0;opacity:0.7;stroke:rgb(98.8%,55.3%,38.4%);stroke-opacity:1.0" transform="translate(52.49, 81.57464212678936)"><rect height="7.0" width="7.0" x="-3.5" y="-3.5" /></g><g class="toyplot-Datum" style="fill:rgb(98.8%,55.3%,38.4%);fill-opacity:1.0;opacity:0.7;stroke:rgb(98.8%,55.3%,38.4%);stroke-opacity:1.0" transform="translate(53.217, 89.4196124257474)"><rect height="7.0" width="7.0" x="-3.5" y="-3.5" /></g><g class="toyplot-Datum" style="fill:rgb(98.8%,55.3%,38.4%);fill-opacity:1.0;opacity:0.7;stroke:rgb(98.8%,55.3%,38.4%);stroke-opacity:1.0" transform="translate(54.156000000000006, 99.3563151231863)"><rect height="7.0" width="7.0" x="-3.5" y="-3.5" /></g><g class="toyplot-Datum" style="fill:rgb(98.8%,55.3%,38.4%);fill-opacity:1.0;opacity:0.7;stroke:rgb(98.8%,55.3%,38.4%);stroke-opacity:1.0" transform="translate(55.3685, 109.0593047034765)"><rect height="7.0" width="7.0" x="-3.5" y="-3.5" /></g><g class="toyplot-Datum" style="fill:rgb(98.8%,55.3%,38.4%);fill-opacity:1.0;opacity:0.7;stroke:rgb(98.8%,55.3%,38.4%);stroke-opacity:1.0" transform="translate(56.9355, 121.66033693641054)"><rect height="7.0" width="7.0" x="-3.5" y="-3.5" /></g><g class="toyplot-Datum" style="fill:rgb(98.8%,55.3%,38.4%);fill-opacity:1.0;opacity:0.7;stroke:rgb(98.8%,55.3%,38.4%);stroke-opacity:1.0" transform="translate(58.959500000000006, 134.60414840782937)"><rect height="7.0" width="7.0" x="-3.5" y="-3.5" /></g><g class="toyplot-Datum" style="fill:rgb(98.8%,55.3%,38.4%);fill-opacity:1.0;opacity:0.7;stroke:rgb(98.8%,55.3%,38.4%);stroke-opacity:1.0" transform="translate(61.574, 148.25688966793263)"><rect height="7.0" width="7.0" x="-3.5" y="-3.5" /></g><g class="toyplot-Datum" style="fill:rgb(98.8%,55.3%,38.4%);fill-opacity:1.0;opacity:0.7;stroke:rgb(98.8%,55.3%,38.4%);stroke-opacity:1.0" transform="translate(64.952, 162.93407342487095)"><rect height="7.0" width="7.0" x="-3.5" y="-3.5" /></g><g class="toyplot-Datum" style="fill:rgb(98.8%,55.3%,38.4%);fill-opacity:1.0;opacity:0.7;stroke:rgb(98.8%,55.3%,38.4%);stroke-opacity:1.0" transform="translate(69.315, 176.28688285130005)"><rect height="7.0" width="7.0" x="-3.5" y="-3.5" /></g><g class="toyplot-Datum" style="fill:rgb(98.8%,55.3%,38.4%);fill-opacity:1.0;opacity:0.7;stroke:rgb(98.8%,55.3%,38.4%);stroke-opacity:1.0" transform="translate(74.952, 191.26789366053168)"><rect height="7.0" width="7.0" x="-3.5" y="-3.5" /></g><g class="toyplot-Datum" style="fill:rgb(98.8%,55.3%,38.4%);fill-opacity:1.0;opacity:0.7;stroke:rgb(98.8%,55.3%,38.4%);stroke-opacity:1.0" transform="translate(82.23349999999999, 205.39585159217063)"><rect height="7.0" width="7.0" x="-3.5" y="-3.5" /></g><g class="toyplot-Datum" style="fill:rgb(98.8%,55.3%,38.4%);fill-opacity:1.0;opacity:0.7;stroke:rgb(98.8%,55.3%,38.4%);stroke-opacity:1.0" transform="translate(91.64, 215.20401207517767)"><rect height="7.0" width="7.0" x="-3.5" y="-3.5" /></g><g class="toyplot-Datum" style="fill:rgb(98.8%,55.3%,38.4%);fill-opacity:1.0;opacity:0.7;stroke:rgb(98.8%,55.3%,38.4%);stroke-opacity:1.0" transform="translate(103.792, 225.97039633849445)"><rect height="7.0" width="7.0" x="-3.5" y="-3.5" /></g><g class="toyplot-Datum" style="fill:rgb(98.8%,55.3%,38.4%);fill-opacity:1.0;opacity:0.7;stroke:rgb(98.8%,55.3%,38.4%);stroke-opacity:1.0" transform="translate(119.49, 230.46158340636867)"><rect height="7.0" width="7.0" x="-3.5" y="-3.5" /></g><g class="toyplot-Datum" style="fill:rgb(98.8%,55.3%,38.4%);fill-opacity:1.0;opacity:0.7;stroke:rgb(98.8%,55.3%,38.4%);stroke-opacity:1.0" transform="translate(139.76850000000002, 236.86142759762396)"><rect height="7.0" width="7.0" x="-3.5" y="-3.5" /></g><g class="toyplot-Datum" style="fill:rgb(98.8%,55.3%,38.4%);fill-opacity:1.0;opacity:0.7;stroke:rgb(98.8%,55.3%,38.4%);stroke-opacity:1.0" transform="translate(165.96550000000002, 240.21521082870777)"><rect height="7.0" width="7.0" x="-3.5" y="-3.5" /></g><g class="toyplot-Datum" style="fill:rgb(98.8%,55.3%,38.4%);fill-opacity:1.0;opacity:0.7;stroke:rgb(98.8%,55.3%,38.4%);stroke-opacity:1.0" transform="translate(199.807, 250.0)"><rect height="7.0" width="7.0" x="-3.5" y="-3.5" /></g><g class="toyplot-Datum" style="fill:rgb(98.8%,55.3%,38.4%);fill-opacity:1.0;opacity:0.7;stroke:rgb(98.8%,55.3%,38.4%);stroke-opacity:1.0" transform="translate(243.5245, 243.6430032135554)"><rect height="7.0" width="7.0" x="-3.5" y="-3.5" /></g><g class="toyplot-Datum" style="fill:rgb(98.8%,55.3%,38.4%);fill-opacity:1.0;opacity:0.7;stroke:rgb(98.8%,55.3%,38.4%);stroke-opacity:1.0" transform="translate(299.9995, 240.55799006719252)"><rect height="7.0" width="7.0" x="-3.5" y="-3.5" /></g></g></g><g class="toyplot-mark-Plot" id="t6c49e1134d8b4267a7ccb3599e77384b" style="fill:none;stroke-dasharray:2, 2"><g class="toyplot-Series"><path d="M 50.0005 51.30174347342224 L 50.001 51.3074517764788 L 50.001 51.3074517764788 L 50.00150000000001 51.31315990514824 L 50.002 51.31886785943607 L 50.003 51.33028324488775 L 50.004000000000005 51.341697932876684 L 50.005 51.353111923445205 L 50.0065 51.370231601728314 L 50.0085 51.393055398865854 L 50.011500000000005 51.427285865464526 L 50.014500000000005 51.461510058156534 L 50.019 51.512834586134645 L 50.0245 51.575545403676884 L 50.032000000000004 51.661026199574714 L 50.041 51.763551461291165 L 50.053000000000004 51.90016413908181 L 50.068999999999996 52.0821586336911 L 50.089 52.30940169616027 L 50.114999999999995 52.60440283106247 L 50.1485 52.98381018405338 L 50.192 53.47531596087063 L 50.2485 54.111761325482455 L 50.321 54.925227095591424 L 50.4145 55.96901118385016 L 50.535500000000006 57.310969086594426 L 50.692 59.03199227414977 L 50.894 61.22918601800467 L 51.15500000000001 64.02827275969646 L 51.492 67.57701692393847 L 51.9275 72.05609604163996 L 52.49 77.66774407387315 L 53.217 84.64055423575789 L 54.156000000000006 93.2002586627197 L 55.3685 103.5509427618291 L 56.9355 115.84075021409112 L 58.959500000000006 130.06904490421857 L 61.574 146.02685851454555 L 64.952 163.20776815915252 L 69.315 180.7457852665148 L 74.952 197.4730472438294 L 82.23349999999999 212.08234474467554 L 91.64 223.47983108368177 L 103.792 231.17051419292554 L 119.49 235.47821068544934 L 139.76850000000002 237.37937562827148 L 165.96550000000002 237.99822755143333 L 199.807 238.13486860028576 L 243.5245 238.1532835797952 L 299.9995 238.15460863087768" style="stroke:rgb(98.8%,55.3%,38.4%);stroke-dasharray:2, 2;stroke-opacity:1.0;stroke-width:2.0" /></g></g><g class="toyplot-mark-Point" id="tcabbdfb9b41d4f23b8c75aef7031146a"><g class="toyplot-Series"><g class="toyplot-Datum" style="fill:rgb(55.3%,62.7%,79.6%);fill-opacity:1.0;opacity:0.7;stroke:rgb(55.3%,62.7%,79.6%);stroke-opacity:1.0" transform="translate(50.0005, 50.010615101575496)"><polygon points="-3.5,3.5 0,-3.5 3.5,3.5" /></g><g class="toyplot-Datum" style="fill:rgb(55.3%,62.7%,79.6%);fill-opacity:1.0;opacity:0.7;stroke:rgb(55.3%,62.7%,79.6%);stroke-opacity:1.0" transform="translate(50.001, 50.0)"><polygon points="-3.5,3.5 0,-3.5 3.5,3.5" /></g><g class="toyplot-Datum" style="fill:rgb(55.3%,62.7%,79.6%);fill-opacity:1.0;opacity:0.7;stroke:rgb(55.3%,62.7%,79.6%);stroke-opacity:1.0" transform="translate(50.001, 50.0)"><polygon points="-3.5,3.5 0,-3.5 3.5,3.5" /></g><g class="toyplot-Datum" style="fill:rgb(55.3%,62.7%,79.6%);fill-opacity:1.0;opacity:0.7;stroke:rgb(55.3%,62.7%,79.6%);stroke-opacity:1.0" transform="translate(50.00150000000001, 50.042460406301956)"><polygon points="-3.5,3.5 0,-3.5 3.5,3.5" /></g><g class="toyplot-Datum" style="fill:rgb(55.3%,62.7%,79.6%);fill-opacity:1.0;opacity:0.7;stroke:rgb(55.3%,62.7%,79.6%);stroke-opacity:1.0" transform="translate(50.002, 50.010615101575496)"><polygon points="-3.5,3.5 0,-3.5 3.5,3.5" /></g><g class="toyplot-Datum" style="fill:rgb(55.3%,62.7%,79.6%);fill-opacity:1.0;opacity:0.7;stroke:rgb(55.3%,62.7%,79.6%);stroke-opacity:1.0" transform="translate(50.003, 50.010615101575496)"><polygon points="-3.5,3.5 0,-3.5 3.5,3.5" /></g><g class="toyplot-Datum" style="fill:rgb(55.3%,62.7%,79.6%);fill-opacity:1.0;opacity:0.7;stroke:rgb(55.3%,62.7%,79.6%);stroke-opacity:1.0" transform="translate(50.004000000000005, 50.03184530472647)"><polygon points="-3.5,3.5 0,-3.5 3.5,3.5" /></g><g class="toyplot-Datum" style="fill:rgb(55.3%,62.7%,79.6%);fill-opacity:1.0;opacity:0.7;stroke:rgb(55.3%,62.7%,79.6%);stroke-opacity:1.0" transform="translate(50.005, 50.074305711028444)"><polygon points="-3.5,3.5 0,-3.5 3.5,3.5" /></g><g class="toyplot-Datum" style="fill:rgb(55.3%,62.7%,79.6%);fill-opacity:1.0;opacity:0.7;stroke:rgb(55.3%,62.7%,79.6%);stroke-opacity:1.0" transform="translate(50.0065, 50.05307550787745)"><polygon points="-3.5,3.5 0,-3.5 3.5,3.5" /></g><g class="toyplot-Datum" style="fill:rgb(55.3%,62.7%,79.6%);fill-opacity:1.0;opacity:0.7;stroke:rgb(55.3%,62.7%,79.6%);stroke-opacity:1.0" transform="translate(50.0085, 50.074305711028444)"><polygon points="-3.5,3.5 0,-3.5 3.5,3.5" /></g><g class="toyplot-Datum" style="fill:rgb(55.3%,62.7%,79.6%);fill-opacity:1.0;opacity:0.7;stroke:rgb(55.3%,62.7%,79.6%);stroke-opacity:1.0" transform="translate(50.011500000000005, 50.05307550787745)"><polygon points="-3.5,3.5 0,-3.5 3.5,3.5" /></g><g class="toyplot-Datum" style="fill:rgb(55.3%,62.7%,79.6%);fill-opacity:1.0;opacity:0.7;stroke:rgb(55.3%,62.7%,79.6%);stroke-opacity:1.0" transform="translate(50.014500000000005, 50.08492081260394)"><polygon points="-3.5,3.5 0,-3.5 3.5,3.5" /></g><g class="toyplot-Datum" style="fill:rgb(55.3%,62.7%,79.6%);fill-opacity:1.0;opacity:0.7;stroke:rgb(55.3%,62.7%,79.6%);stroke-opacity:1.0" transform="translate(50.019, 50.159226523632384)"><polygon points="-3.5,3.5 0,-3.5 3.5,3.5" /></g><g class="toyplot-Datum" style="fill:rgb(55.3%,62.7%,79.6%);fill-opacity:1.0;opacity:0.7;stroke:rgb(55.3%,62.7%,79.6%);stroke-opacity:1.0" transform="translate(50.0245, 50.20168692993434)"><polygon points="-3.5,3.5 0,-3.5 3.5,3.5" /></g><g class="toyplot-Datum" style="fill:rgb(55.3%,62.7%,79.6%);fill-opacity:1.0;opacity:0.7;stroke:rgb(55.3%,62.7%,79.6%);stroke-opacity:1.0" transform="translate(50.032000000000004, 50.25476243781182)"><polygon points="-3.5,3.5 0,-3.5 3.5,3.5" /></g><g class="toyplot-Datum" style="fill:rgb(55.3%,62.7%,79.6%);fill-opacity:1.0;opacity:0.7;stroke:rgb(55.3%,62.7%,79.6%);stroke-opacity:1.0" transform="translate(50.041, 50.35029835199123)"><polygon points="-3.5,3.5 0,-3.5 3.5,3.5" /></g><g class="toyplot-Datum" style="fill:rgb(55.3%,62.7%,79.6%);fill-opacity:1.0;opacity:0.7;stroke:rgb(55.3%,62.7%,79.6%);stroke-opacity:1.0" transform="translate(50.053000000000004, 50.382143656717716)"><polygon points="-3.5,3.5 0,-3.5 3.5,3.5" /></g><g class="toyplot-Datum" style="fill:rgb(55.3%,62.7%,79.6%);fill-opacity:1.0;opacity:0.7;stroke:rgb(55.3%,62.7%,79.6%);stroke-opacity:1.0" transform="translate(50.068999999999996, 50.477679570897166)"><polygon points="-3.5,3.5 0,-3.5 3.5,3.5" /></g><g class="toyplot-Datum" style="fill:rgb(55.3%,62.7%,79.6%);fill-opacity:1.0;opacity:0.7;stroke:rgb(55.3%,62.7%,79.6%);stroke-opacity:1.0" transform="translate(50.089, 50.67936650083149)"><polygon points="-3.5,3.5 0,-3.5 3.5,3.5" /></g><g class="toyplot-Datum" style="fill:rgb(55.3%,62.7%,79.6%);fill-opacity:1.0;opacity:0.7;stroke:rgb(55.3%,62.7%,79.6%);stroke-opacity:1.0" transform="translate(50.114999999999995, 50.881053430765874)"><polygon points="-3.5,3.5 0,-3.5 3.5,3.5" /></g><g class="toyplot-Datum" style="fill:rgb(55.3%,62.7%,79.6%);fill-opacity:1.0;opacity:0.7;stroke:rgb(55.3%,62.7%,79.6%);stroke-opacity:1.0" transform="translate(50.1485, 51.019049751247266)"><polygon points="-3.5,3.5 0,-3.5 3.5,3.5" /></g><g class="toyplot-Datum" style="fill:rgb(55.3%,62.7%,79.6%);fill-opacity:1.0;opacity:0.7;stroke:rgb(55.3%,62.7%,79.6%);stroke-opacity:1.0" transform="translate(50.192, 51.390578306389536)"><polygon points="-3.5,3.5 0,-3.5 3.5,3.5" /></g><g class="toyplot-Datum" style="fill:rgb(55.3%,62.7%,79.6%);fill-opacity:1.0;opacity:0.7;stroke:rgb(55.3%,62.7%,79.6%);stroke-opacity:1.0" transform="translate(50.2485, 52.18671092455147)"><polygon points="-3.5,3.5 0,-3.5 3.5,3.5" /></g><g class="toyplot-Datum" style="fill:rgb(55.3%,62.7%,79.6%);fill-opacity:1.0;opacity:0.7;stroke:rgb(55.3%,62.7%,79.6%);stroke-opacity:1.0" transform="translate(50.321, 52.44147336236331)"><polygon points="-3.5,3.5 0,-3.5 3.5,3.5" /></g><g class="toyplot-Datum" style="fill:rgb(55.3%,62.7%,79.6%);fill-opacity:1.0;opacity:0.7;stroke:rgb(55.3%,62.7%,79.6%);stroke-opacity:1.0" transform="translate(50.4145, 53.18453047264779)"><polygon points="-3.5,3.5 0,-3.5 3.5,3.5" /></g><g class="toyplot-Datum" style="fill:rgb(55.3%,62.7%,79.6%);fill-opacity:1.0;opacity:0.7;stroke:rgb(55.3%,62.7%,79.6%);stroke-opacity:1.0" transform="translate(50.535500000000006, 54.2248104270461)"><polygon points="-3.5,3.5 0,-3.5 3.5,3.5" /></g><g class="toyplot-Datum" style="fill:rgb(55.3%,62.7%,79.6%);fill-opacity:1.0;opacity:0.7;stroke:rgb(55.3%,62.7%,79.6%);stroke-opacity:1.0" transform="translate(50.692, 54.84048631842467)"><polygon points="-3.5,3.5 0,-3.5 3.5,3.5" /></g><g class="toyplot-Datum" style="fill:rgb(55.3%,62.7%,79.6%);fill-opacity:1.0;opacity:0.7;stroke:rgb(55.3%,62.7%,79.6%);stroke-opacity:1.0" transform="translate(50.894, 56.72997439886235)"><polygon points="-3.5,3.5 0,-3.5 3.5,3.5" /></g><g class="toyplot-Datum" style="fill:rgb(55.3%,62.7%,79.6%);fill-opacity:1.0;opacity:0.7;stroke:rgb(55.3%,62.7%,79.6%);stroke-opacity:1.0" transform="translate(51.15500000000001, 58.74684369820595)"><polygon points="-3.5,3.5 0,-3.5 3.5,3.5" /></g><g class="toyplot-Datum" style="fill:rgb(55.3%,62.7%,79.6%);fill-opacity:1.0;opacity:0.7;stroke:rgb(55.3%,62.7%,79.6%);stroke-opacity:1.0" transform="translate(51.492, 60.43464484870931)"><polygon points="-3.5,3.5 0,-3.5 3.5,3.5" /></g><g class="toyplot-Datum" style="fill:rgb(55.3%,62.7%,79.6%);fill-opacity:1.0;opacity:0.7;stroke:rgb(55.3%,62.7%,79.6%);stroke-opacity:1.0" transform="translate(51.9275, 63.746556540263)"><polygon points="-3.5,3.5 0,-3.5 3.5,3.5" /></g><g class="toyplot-Datum" style="fill:rgb(55.3%,62.7%,79.6%);fill-opacity:1.0;opacity:0.7;stroke:rgb(55.3%,62.7%,79.6%);stroke-opacity:1.0" transform="translate(52.49, 67.79091024052568)"><polygon points="-3.5,3.5 0,-3.5 3.5,3.5" /></g><g class="toyplot-Datum" style="fill:rgb(55.3%,62.7%,79.6%);fill-opacity:1.0;opacity:0.7;stroke:rgb(55.3%,62.7%,79.6%);stroke-opacity:1.0" transform="translate(53.217, 72.36601901956303)"><polygon points="-3.5,3.5 0,-3.5 3.5,3.5" /></g><g class="toyplot-Datum" style="fill:rgb(55.3%,62.7%,79.6%);fill-opacity:1.0;opacity:0.7;stroke:rgb(55.3%,62.7%,79.6%);stroke-opacity:1.0" transform="translate(54.156000000000006, 77.40819226792203)"><polygon points="-3.5,3.5 0,-3.5 3.5,3.5" /></g><g class="toyplot-Datum" style="fill:rgb(55.3%,62.7%,79.6%);fill-opacity:1.0;opacity:0.7;stroke:rgb(55.3%,62.7%,79.6%);stroke-opacity:1.0" transform="translate(55.3685, 84.19124217466185)"><polygon points="-3.5,3.5 0,-3.5 3.5,3.5" /></g><g class="toyplot-Datum" style="fill:rgb(55.3%,62.7%,79.6%);fill-opacity:1.0;opacity:0.7;stroke:rgb(55.3%,62.7%,79.6%);stroke-opacity:1.0" transform="translate(56.9355, 92.84254995868835)"><polygon points="-3.5,3.5 0,-3.5 3.5,3.5" /></g><g class="toyplot-Datum" style="fill:rgb(55.3%,62.7%,79.6%);fill-opacity:1.0;opacity:0.7;stroke:rgb(55.3%,62.7%,79.6%);stroke-opacity:1.0" transform="translate(58.959500000000006, 101.98215241518751)"><polygon points="-3.5,3.5 0,-3.5 3.5,3.5" /></g><g class="toyplot-Datum" style="fill:rgb(55.3%,62.7%,79.6%);fill-opacity:1.0;opacity:0.7;stroke:rgb(55.3%,62.7%,79.6%);stroke-opacity:1.0" transform="translate(61.574, 115.07057265776999)"><polygon points="-3.5,3.5 0,-3.5 3.5,3.5" /></g><g class="toyplot-Datum" style="fill:rgb(55.3%,62.7%,79.6%);fill-opacity:1.0;opacity:0.7;stroke:rgb(55.3%,62.7%,79.6%);stroke-opacity:1.0" transform="translate(64.952, 128.74282348700453)"><polygon points="-3.5,3.5 0,-3.5 3.5,3.5" /></g><g class="toyplot-Datum" style="fill:rgb(55.3%,62.7%,79.6%);fill-opacity:1.0;opacity:0.7;stroke:rgb(55.3%,62.7%,79.6%);stroke-opacity:1.0" transform="translate(69.315, 145.46160846840547)"><polygon points="-3.5,3.5 0,-3.5 3.5,3.5" /></g><g class="toyplot-Datum" style="fill:rgb(55.3%,62.7%,79.6%);fill-opacity:1.0;opacity:0.7;stroke:rgb(55.3%,62.7%,79.6%);stroke-opacity:1.0" transform="translate(74.952, 159.32493112599886)"><polygon points="-3.5,3.5 0,-3.5 3.5,3.5" /></g><g class="toyplot-Datum" style="fill:rgb(55.3%,62.7%,79.6%);fill-opacity:1.0;opacity:0.7;stroke:rgb(55.3%,62.7%,79.6%);stroke-opacity:1.0" transform="translate(82.23349999999999, 174.74867371518968)"><polygon points="-3.5,3.5 0,-3.5 3.5,3.5" /></g><g class="toyplot-Datum" style="fill:rgb(55.3%,62.7%,79.6%);fill-opacity:1.0;opacity:0.7;stroke:rgb(55.3%,62.7%,79.6%);stroke-opacity:1.0" transform="translate(91.64, 192.3272819242055)"><polygon points="-3.5,3.5 0,-3.5 3.5,3.5" /></g><g class="toyplot-Datum" style="fill:rgb(55.3%,62.7%,79.6%);fill-opacity:1.0;opacity:0.7;stroke:rgb(55.3%,62.7%,79.6%);stroke-opacity:1.0" transform="translate(103.792, 204.4815732281446)"><polygon points="-3.5,3.5 0,-3.5 3.5,3.5" /></g><g class="toyplot-Datum" style="fill:rgb(55.3%,62.7%,79.6%);fill-opacity:1.0;opacity:0.7;stroke:rgb(55.3%,62.7%,79.6%);stroke-opacity:1.0" transform="translate(119.49, 216.33864168796995)"><polygon points="-3.5,3.5 0,-3.5 3.5,3.5" /></g><g class="toyplot-Datum" style="fill:rgb(55.3%,62.7%,79.6%);fill-opacity:1.0;opacity:0.7;stroke:rgb(55.3%,62.7%,79.6%);stroke-opacity:1.0" transform="translate(139.76850000000002, 226.47606369256545)"><polygon points="-3.5,3.5 0,-3.5 3.5,3.5" /></g><g class="toyplot-Datum" style="fill:rgb(55.3%,62.7%,79.6%);fill-opacity:1.0;opacity:0.7;stroke:rgb(55.3%,62.7%,79.6%);stroke-opacity:1.0" transform="translate(165.96550000000002, 232.61159240320018)"><polygon points="-3.5,3.5 0,-3.5 3.5,3.5" /></g><g class="toyplot-Datum" style="fill:rgb(55.3%,62.7%,79.6%);fill-opacity:1.0;opacity:0.7;stroke:rgb(55.3%,62.7%,79.6%);stroke-opacity:1.0" transform="translate(199.807, 239.5007933256949)"><polygon points="-3.5,3.5 0,-3.5 3.5,3.5" /></g><g class="toyplot-Datum" style="fill:rgb(55.3%,62.7%,79.6%);fill-opacity:1.0;opacity:0.7;stroke:rgb(55.3%,62.7%,79.6%);stroke-opacity:1.0" transform="translate(243.5245, 246.51737546709552)"><polygon points="-3.5,3.5 0,-3.5 3.5,3.5" /></g><g class="toyplot-Datum" style="fill:rgb(55.3%,62.7%,79.6%);fill-opacity:1.0;opacity:0.7;stroke:rgb(55.3%,62.7%,79.6%);stroke-opacity:1.0" transform="translate(299.9995, 234.50108048363788)"><polygon points="-3.5,3.5 0,-3.5 3.5,3.5" /></g></g></g><g class="toyplot-mark-Plot" id="t7a195910b96c4938866611551c81b613" style="fill:none;stroke-dasharray:4, 4"><g class="toyplot-Series"><path d="M 50.0005 50.59738259008952 L 50.001 50.60064944368383 L 50.001 50.60064944368383 L 50.00150000000001 50.6039162401206 L 50.002 50.60718297940083 L 50.003 50.613716286495645 L 50.004000000000005 50.62024936497633 L 50.005 50.62678221485075 L 50.0065 50.636581061043344 L 50.0085 50.649645389253166 L 50.011500000000005 50.66924016731134 L 50.014500000000005 50.688832888453874 L 50.019 50.7182181139229 L 50.0245 50.754127106198396 L 50.032000000000004 50.80308277754673 L 50.041 50.861812626075036 L 50.053000000000004 50.94009032467641 L 50.068999999999996 51.04440947180511 L 50.089 51.17472629829483 L 50.114999999999995 51.34400188177817 L 50.1485 51.56188002892899 L 50.192 51.84441554614297 L 50.2485 52.2107454843161 L 50.321 52.67975515889783 L 50.4145 53.282861812603336 L 50.535500000000006 54.060429341358216 L 50.692 55.061255624699946 L 50.894 56.34498063618685 L 51.15500000000001 57.990274988654676 L 51.492 60.09255258042827 L 51.9275 62.77283222672898 L 52.49 66.17482909025172 L 53.217 70.47367752954136 L 54.156000000000006 75.86669614437793 L 55.3685 82.57345642635583 L 56.9355 90.83006379179686 L 58.959500000000006 100.84603416061613 L 61.574 112.77728221459809 L 64.952 126.66157578145751 L 69.315 142.32900367351527 L 74.952 159.33323273175637 L 82.23349999999999 176.8735697072783 L 91.64 193.82571989780962 L 103.792 208.88967518978666 L 119.49 220.90387404774995 L 139.76850000000002 229.243439383399 L 165.96550000000002 234.08783271105176 L 199.807 236.3276634463109 L 243.5245 237.1013217475114 L 299.9995 237.2855608807963" style="stroke:rgb(55.3%,62.7%,79.6%);stroke-dasharray:4, 4;stroke-opacity:1.0;stroke-width:2.0" /></g></g></g><g class="toyplot-coordinates-Axis" id="tb234b3debff446b8b4360343eea202f4" transform="translate(50.0,250.0)translate(0,10.0)"><line style="" x1="0.0005" x2="249.9995" y1="0" y2="0" /><g><line style="" x1="0.0" x2="0.0" y1="0" y2="-5" /><line style="" x1="50.0" x2="50.0" y1="0" y2="-5" /><line style="" x1="100.0" x2="100.0" y1="0" y2="-5" /><line style="" x1="150.0" x2="150.0" y1="0" y2="-5" /><line style="" x1="200.0" x2="200.0" y1="0" y2="-5" /><line style="" x1="250.0" x2="250.0" y1="0" y2="-5" /></g><g><g transform="translate(0.0,6)"><text style="fill:rgb(16.1%,15.3%,14.1%);fill-opacity:1.0;font-family:helvetica;font-size:10.0px;font-weight:normal;stroke:none;vertical-align:baseline;white-space:pre" x="-2.78" y="8.555">0</text></g><g transform="translate(50.0,6)"><text style="fill:rgb(16.1%,15.3%,14.1%);fill-opacity:1.0;font-family:helvetica;font-size:10.0px;font-weight:normal;stroke:none;vertical-align:baseline;white-space:pre" x="-16.68" y="8.555">100000</text></g><g transform="translate(100.0,6)"><text style="fill:rgb(16.1%,15.3%,14.1%);fill-opacity:1.0;font-family:helvetica;font-size:10.0px;font-weight:normal;stroke:none;vertical-align:baseline;white-space:pre" x="-16.68" y="8.555">200000</text></g><g transform="translate(150.0,6)"><text style="fill:rgb(16.1%,15.3%,14.1%);fill-opacity:1.0;font-family:helvetica;font-size:10.0px;font-weight:normal;stroke:none;vertical-align:baseline;white-space:pre" x="-16.68" y="8.555">300000</text></g><g transform="translate(200.0,6)"><text style="fill:rgb(16.1%,15.3%,14.1%);fill-opacity:1.0;font-family:helvetica;font-size:10.0px;font-weight:normal;stroke:none;vertical-align:baseline;white-space:pre" x="-16.68" y="8.555">400000</text></g><g transform="translate(250.0,6)"><text style="fill:rgb(16.1%,15.3%,14.1%);fill-opacity:1.0;font-family:helvetica;font-size:10.0px;font-weight:normal;stroke:none;vertical-align:baseline;white-space:pre" x="-16.68" y="8.555">500000</text></g></g><g transform="translate(125.0,22)"><text style="fill:rgb(16.1%,15.3%,14.1%);fill-opacity:1.0;font-family:helvetica;font-size:12.0px;font-weight:bold;stroke:none;vertical-align:baseline;white-space:pre" x="-64.67999999999999" y="10.265999999999998">Genomic distance (bp)</text></g><g class="toyplot-coordinates-Axis-coordinates" style="visibility:hidden" transform=""><line style="stroke:rgb(43.9%,50.2%,56.5%);stroke-opacity:1.0;stroke-width:1.0" x1="0" x2="0" y1="-3.0" y2="4.5" /><text style="alignment-baseline:alphabetic;fill:rgb(43.9%,50.2%,56.5%);fill-opacity:1.0;font-size:10px;font-weight:normal;stroke:none;text-anchor:middle" x="0" y="-6" /></g></g><g class="toyplot-coordinates-Axis" id="t0790a229027f4421a591cf8f73dc01d8" transform="translate(50.0,250.0)rotate(-90.0)translate(0,-10.0)"><line style="" x1="0" x2="200.0" y1="0" y2="0" /><g><line style="" x1="14.165210102497142" x2="14.165210102497142" y1="0" y2="5" /><line style="" x1="107.08260505124858" x2="107.08260505124858" y1="0" y2="5" /><line style="" x1="200.0" x2="200.0" y1="0" y2="5" /></g><g><g transform="translate(14.165210102497142,-6)"><text style="fill:rgb(16.1%,15.3%,14.1%);fill-opacity:1.0;font-family:helvetica;font-size:10.0px;font-weight:normal;stroke:none;vertical-align:baseline;white-space:pre" x="-6.95" y="-4.440892098500626e-16">0.0</text></g><g transform="translate(107.08260505124858,-6)"><text style="fill:rgb(16.1%,15.3%,14.1%);fill-opacity:1.0;font-family:helvetica;font-size:10.0px;font-weight:normal;stroke:none;vertical-align:baseline;white-space:pre" x="-6.95" y="-4.440892098500626e-16">0.5</text></g><g transform="translate(200.0,-6)"><text style="fill:rgb(16.1%,15.3%,14.1%);fill-opacity:1.0;font-family:helvetica;font-size:10.0px;font-weight:normal;stroke:none;vertical-align:baseline;white-space:pre" x="-6.95" y="-4.440892098500626e-16">1.0</text></g></g><g transform="translate(100.0,-22)"><text style="fill:rgb(16.1%,15.3%,14.1%);fill-opacity:1.0;font-family:helvetica;font-size:12.0px;font-weight:bold;stroke:none;vertical-align:baseline;white-space:pre" x="-59.68800000000001" y="0.0">Phylogenetic linkage</text></g><g class="toyplot-coordinates-Axis-coordinates" style="visibility:hidden" transform=""><line style="stroke:rgb(43.9%,50.2%,56.5%);stroke-opacity:1.0;stroke-width:1.0" x1="0" x2="0" y1="3.0" y2="-4.5" /><text style="alignment-baseline:hanging;fill:rgb(43.9%,50.2%,56.5%);fill-opacity:1.0;font-size:10px;font-weight:normal;stroke:none;text-anchor:middle" x="0" y="6" /></g></g></g></svg>