<svg class="toyplot-canvas-Canvas" height="250.0px" id="t0ce4d4a7e4e94f8184efdabf0381a711" preserveAspectRatio="xMidYMid meet" style="background-color:transparent;border-color:#292724;border-style:none;border-width:1.0;fill:rgb(16.1%,15.3%,14.1%);fill-opacity:1.0;font-family:Helvetica;font-size:12px;opacity:1.0;stroke:rgb(16.1%,15.3%,14.1%);stroke-opacity:1.0;stroke-width:1.0" viewBox="0 0 600.0 250.0" width="600.0px" xmlns="http://www.w3.org/2000/svg" xmlns:toyplot="http://www.sandia.gov/toyplot" xmlns:xlink="http://www.w3.org/1999/xlink"><g class="toyplot-coordinates-Cartesian" id="tedb77a73e8264e5eadeae171672aa89d"><clipPath id="tc6055d4070374775a474e50330063c4d"><rect height="170.0" width="520.0" x="40.0" y="40.0" /></clipPath><g clip-path="url(#tc6055d4070374775a474e50330063c4d)"><g class="toyplot-mark-Plot" id="t4fb2a71586834340ae90ff8c939448ff" style="fill:none;stroke-dasharray:4, 2"><g class="toyplot-Series"><path d="M 50.0 182.54514987897971 L 59.536448598130846 179.05417985477564 L 69.07289719626168 175.56320983057157 L 78.60934579439252 179.05417985477564 L 88.14579439252336 189.5270899273878 L 97.6822429906542 182.54514987897971 L 107.21869158878505 186.03611990318376 L 116.75560747663552 186.03611990318376 L 126.29205607476636 196.50902997579593 L 135.8285046728972 196.50902997579593 L 145.36495327102804 182.54514987897971 L 154.9014018691589 193.01805995159188 L 164.4378504672897 193.01805995159188 L 173.9747663551402 196.50902997579593 L 183.51121495327104 196.50902997579593 L 193.04766355140185 193.01805995159188 L 202.58411214953273 182.54514987897971 L 212.12056074766352 186.03611990318376 L 221.6570093457944 172.07223980636752 L 231.19392523364485 179.05417985477564 L 240.73037383177572 172.07223980636752 L 250.26682242990654 179.05417985477564 L 259.8032710280374 186.03611990318376 L 269.3397196261682 196.50902997579593 L 278.8761682242991 200.0 L 288.41308411214953 189.5270899273878 L 297.9495327102804 179.05417985477564 L 307.4859813084112 182.54514987897971 L 317.0224299065421 179.05417985477564 L 326.5588785046729 175.56320983057157 L 336.09532710280376 179.05417985477564 L 345.6322429906542 186.03611990318376 L 355.1686915887851 186.03611990318376 L 364.70514018691586 182.54514987897971 L 374.2415887850467 189.5270899273878 L 383.77803738317755 186.03611990318376 L 393.3144859813084 172.07223980636752 L 402.85140186915885 186.03611990318376 L 412.3878504672897 186.03611990318376 L 421.9242990654206 189.5270899273878 L 431.46074766355144 186.03611990318376 L 440.99719626168223 186.03611990318376 L 450.5336448598131 182.54514987897971 L 460.0705607476636 179.05417985477564 L 469.6070093457944 179.05417985477564 L 479.14345794392517 186.03611990318376 L 488.6799065420561 186.03611990318376 L 498.2163551401869 182.54514987897971 L 507.75280373831777 179.05417985477564 L 517.2897196261682 186.03611990318376" style="stroke:rgb(40%,76.1%,64.7%);stroke-dasharray:4, 2;stroke-opacity:1.0;stroke-width:5.0" /></g></g><g class="toyplot-mark-Text" id="tac05c147d75848e199b58156a5f15c91"><g class="toyplot-Series"><g class="toyplot-Datum" transform="translate(517.2897196261682,186.03611990318376)"><text style="fill:rgb(40%,76.1%,64.7%);fill-opacity:1.0;font-family:helvetica;font-size:12.0px;font-weight:normal;opacity:1;stroke:none;vertical-align:baseline;white-space:pre" x="0" y="3.066">1000000</text></g></g></g><g class="toyplot-mark-Plot" id="tab1f7ebbc6b945d1a4f48a92fcbef0bd" style="fill:none;stroke-dasharray:4, 2"><g class="toyplot-Series"><path d="M 50.0 63.852169056041674 L 59.536448598130846 91.77992924967417 L 69.07289719626168 95.2708992738782 L 78.60934579439252 109.23477937069444 L 88.14579439252336 88.28895922547008 L 97.6822429906542 112.72574939489853 L 107.21869158878505 91.77992924967417 L 116.75560747663552 70.83410910444981 L 126.29205607476636 116.21671941910256 L 135.8285046728972 109.23477937069444 L 145.36495327102804 98.76186929808227 L 154.9014018691589 95.2708992738782 L 164.4378504672897 88.28895922547008 L 173.9747663551402 105.7438093464904 L 183.51121495327104 102.25283932228635 L 193.04766355140185 130.1805995159188 L 202.58411214953273 77.81604915285791 L 212.12056074766352 91.77992924967417 L 221.6570093457944 116.21671941910256 L 231.19392523364485 102.25283932228635 L 240.73037383177572 98.76186929808227 L 250.26682242990654 88.28895922547008 L 259.8032710280374 81.30701917706199 L 269.3397196261682 84.79798920126603 L 278.8761682242991 126.68962949171474 L 288.41308411214953 119.70768944330663 L 297.9495327102804 91.77992924967417 L 307.4859813084112 116.21671941910256 L 317.0224299065421 119.70768944330663 L 326.5588785046729 98.76186929808227 L 336.09532710280376 67.34313908024572 L 345.6322429906542 112.72574939489853 L 355.1686915887851 98.76186929808227 L 364.70514018691586 105.7438093464904 L 374.2415887850467 98.76186929808227 L 383.77803738317755 77.81604915285791 L 393.3144859813084 109.23477937069444 L 402.85140186915885 105.7438093464904 L 412.3878504672897 116.21671941910256 L 421.9242990654206 91.77992924967417 L 431.46074766355144 91.77992924967417 L 440.99719626168223 102.25283932228635 L 450.5336448598131 102.25283932228635 L 460.0705607476636 95.2708992738782 L 469.6070093457944 102.25283932228635 L 479.14345794392517 84.79798920126603 L 488.6799065420561 102.25283932228635 L 498.2163551401869 116.21671941910256 L 507.75280373831777 88.28895922547008 L 517.2897196261682 56.870229007633554" style="stroke:rgb(40%,76.1%,64.7%);stroke-dasharray:4, 2;stroke-opacity:1.0;stroke-width:1.5" /></g></g><g class="toyplot-mark-Text" id="tc01932b5cb03445a97893272efe58608"><g class="toyplot-Series"><g class="toyplot-Datum" transform="translate(517.2897196261682,56.870229007633554)"><text style="fill:rgb(40%,76.1%,64.7%);fill-opacity:1.0;font-family:helvetica;font-size:12.0px;font-weight:normal;opacity:1;stroke:none;vertical-align:baseline;white-space:pre" x="0" y="3.066">1000</text></g></g></g><g class="toyplot-mark-Plot" id="t61bb850fa1a84dae950df179ad1cd0aa" style="fill:none;stroke-dasharray:4, 2"><g class="toyplot-Series"><path d="M 50.0 105.7438093464904 L 59.536448598130846 140.653509588531 L 69.07289719626168 147.6354496369391 L 78.60934579439252 151.12641966114316 L 88.14579439252336 165.0902997579594 L 97.6822429906542 140.653509588531 L 107.21869158878505 144.14447961273504 L 116.75560747663552 133.67156954012287 L 126.29205607476636 172.07223980636752 L 135.8285046728972 147.6354496369391 L 145.36495327102804 158.10835970955128 L 154.9014018691589 168.58126978216347 L 164.4378504672897 151.12641966114316 L 173.9747663551402 147.6354496369391 L 183.51121495327104 140.653509588531 L 193.04766355140185 161.59932973375535 L 202.58411214953273 140.653509588531 L 212.12056074766352 161.59932973375535 L 221.6570093457944 158.10835970955128 L 231.19392523364485 147.6354496369391 L 240.73037383177572 144.14447961273504 L 250.26682242990654 140.653509588531 L 259.8032710280374 144.14447961273504 L 269.3397196261682 137.16253956432692 L 278.8761682242991 168.58126978216347 L 288.41308411214953 172.07223980636752 L 297.9495327102804 144.14447961273504 L 307.4859813084112 154.6173896853472 L 317.0224299065421 151.12641966114316 L 326.5588785046729 147.6354496369391 L 336.09532710280376 140.653509588531 L 345.6322429906542 158.10835970955128 L 355.1686915887851 144.14447961273504 L 364.70514018691586 158.10835970955128 L 374.2415887850467 161.59932973375535 L 383.77803738317755 126.68962949171474 L 393.3144859813084 151.12641966114316 L 402.85140186915885 140.653509588531 L 412.3878504672897 154.6173896853472 L 421.9242990654206 137.16253956432692 L 431.46074766355144 161.59932973375535 L 440.99719626168223 151.12641966114316 L 450.5336448598131 140.653509588531 L 460.0705607476636 140.653509588531 L 469.6070093457944 147.6354496369391 L 479.14345794392517 137.16253956432692 L 488.6799065420561 151.12641966114316 L 498.2163551401869 140.653509588531 L 507.75280373831777 123.19865946751068 L 517.2897196261682 95.2708992738782" style="stroke:rgb(40%,76.1%,64.7%);stroke-dasharray:4, 2;stroke-opacity:1.0;stroke-width:2.0" /></g></g><g class="toyplot-mark-Text" id="tcfe0adc0be4e42caa359276fe834d372"><g class="toyplot-Series"><g class="toyplot-Datum" transform="translate(517.2897196261682,95.2708992738782)"><text style="fill:rgb(40%,76.1%,64.7%);fill-opacity:1.0;font-family:helvetica;font-size:12.0px;font-weight:normal;opacity:1;stroke:none;vertical-align:baseline;white-space:pre" x="0" y="3.066">2500</text></g></g></g><g class="toyplot-mark-Plot" id="tf02f0ec45bf84825b07ef1cd62c7abf3" style="fill:none;stroke-dasharray:4, 2"><g class="toyplot-Series"><path d="M 50.0 182.54514987897971 L 59.536448598130846 186.03611990318376 L 69.07289719626168 189.5270899273878 L 78.60934579439252 179.05417985477564 L 88.14579439252336 193.01805995159188 L 97.6822429906542 189.5270899273878 L 107.21869158878505 193.01805995159188 L 116.75560747663552 189.5270899273878 L 126.29205607476636 196.50902997579593 L 135.8285046728972 196.50902997579593 L 145.36495327102804 189.5270899273878 L 154.9014018691589 196.50902997579593 L 164.4378504672897 193.01805995159188 L 173.9747663551402 189.5270899273878 L 183.51121495327104 196.50902997579593 L 193.04766355140185 189.5270899273878 L 202.58411214953273 189.5270899273878 L 212.12056074766352 189.5270899273878 L 221.6570093457944 182.54514987897971 L 231.19392523364485 189.5270899273878 L 240.73037383177572 186.03611990318376 L 250.26682242990654 179.05417985477564 L 259.8032710280374 172.07223980636752 L 269.3397196261682 189.5270899273878 L 278.8761682242991 193.01805995159188 L 288.41308411214953 189.5270899273878 L 297.9495327102804 182.54514987897971 L 307.4859813084112 196.50902997579593 L 317.0224299065421 182.54514987897971 L 326.5588785046729 186.03611990318376 L 336.09532710280376 189.5270899273878 L 345.6322429906542 189.5270899273878 L 355.1686915887851 186.03611990318376 L 364.70514018691586 182.54514987897971 L 374.2415887850467 189.5270899273878 L 383.77803738317755 182.54514987897971 L 393.3144859813084 186.03611990318376 L 402.85140186915885 193.01805995159188 L 412.3878504672897 186.03611990318376 L 421.9242990654206 193.01805995159188 L 431.46074766355144 182.54514987897971 L 440.99719626168223 189.5270899273878 L 450.5336448598131 189.5270899273878 L 460.0705607476636 182.54514987897971 L 469.6070093457944 186.03611990318376 L 479.14345794392517 193.01805995159188 L 488.6799065420561 200.0 L 498.2163551401869 193.01805995159188 L 507.75280373831777 189.5270899273878 L 517.2897196261682 182.54514987897971" style="stroke:rgb(40%,76.1%,64.7%);stroke-dasharray:4, 2;stroke-opacity:1.0;stroke-width:2.5" /></g></g><g class="toyplot-mark-Text" id="te40cca1ef45541ec9d9ff4777fe988e6"><g class="toyplot-Series"><g class="toyplot-Datum" transform="translate(517.2897196261682,182.54514987897971)"><text style="fill:rgb(40%,76.1%,64.7%);fill-opacity:1.0;font-family:helvetica;font-size:12.0px;font-weight:normal;opacity:1;stroke:none;vertical-align:baseline;white-space:pre" x="0" y="3.066">10000</text></g></g></g><g class="toyplot-mark-Plot" id="t40d1f3e35abb40f79c986de938ffd90e" style="fill:none;stroke-dasharray:4, 2"><g class="toyplot-Series"><path d="M 50.0 193.01805995159188 L 59.536448598130846 193.01805995159188 L 69.07289719626168 189.5270899273878 L 78.60934579439252 186.03611990318376 L 88.14579439252336 189.5270899273878 L 97.6822429906542 186.03611990318376 L 107.21869158878505 193.01805995159188 L 116.75560747663552 189.5270899273878 L 126.29205607476636 200.0 L 135.8285046728972 196.50902997579593 L 145.36495327102804 189.5270899273878 L 154.9014018691589 193.01805995159188 L 164.4378504672897 196.50902997579593 L 173.9747663551402 196.50902997579593 L 183.51121495327104 196.50902997579593 L 193.04766355140185 193.01805995159188 L 202.58411214953273 182.54514987897971 L 212.12056074766352 193.01805995159188 L 221.6570093457944 189.5270899273878 L 231.19392523364485 193.01805995159188 L 240.73037383177572 193.01805995159188 L 250.26682242990654 182.54514987897971 L 259.8032710280374 186.03611990318376 L 269.3397196261682 196.50902997579593 L 278.8761682242991 196.50902997579593 L 288.41308411214953 196.50902997579593 L 297.9495327102804 189.5270899273878 L 307.4859813084112 196.50902997579593 L 317.0224299065421 193.01805995159188 L 326.5588785046729 186.03611990318376 L 336.09532710280376 193.01805995159188 L 345.6322429906542 189.5270899273878 L 355.1686915887851 193.01805995159188 L 364.70514018691586 186.03611990318376 L 374.2415887850467 193.01805995159188 L 383.77803738317755 186.03611990318376 L 393.3144859813084 186.03611990318376 L 402.85140186915885 193.01805995159188 L 412.3878504672897 189.5270899273878 L 421.9242990654206 189.5270899273878 L 431.46074766355144 182.54514987897971 L 440.99719626168223 186.03611990318376 L 450.5336448598131 186.03611990318376 L 460.0705607476636 179.05417985477564 L 469.6070093457944 189.5270899273878 L 479.14345794392517 193.01805995159188 L 488.6799065420561 196.50902997579593 L 498.2163551401869 193.01805995159188 L 507.75280373831777 189.5270899273878 L 517.2897196261682 182.54514987897971" style="stroke:rgb(40%,76.1%,64.7%);stroke-dasharray:4, 2;stroke-opacity:1.0;stroke-width:3.0" /></g></g><g class="toyplot-mark-Text" id="t5e253e9fadde4be8a57f735fe28eb4be"><g class="toyplot-Series"><g class="toyplot-Datum" transform="translate(517.2897196261682,182.54514987897971)"><text style="fill:rgb(40%,76.1%,64.7%);fill-opacity:1.0;font-family:helvetica;font-size:12.0px;font-weight:normal;opacity:1;stroke:none;vertical-align:baseline;white-space:pre" x="0" y="3.066">25000</text></g></g></g><g class="toyplot-mark-Plot" id="t5d00466c9f31447498b5ad47621e3bb8" style="fill:none;stroke-dasharray:4, 2"><g class="toyplot-Series"><path d="M 50.0 179.05417985477564 L 59.536448598130846 186.03611990318376 L 69.07289719626168 182.54514987897971 L 78.60934579439252 179.05417985477564 L 88.14579439252336 193.01805995159188 L 97.6822429906542 186.03611990318376 L 107.21869158878505 189.5270899273878 L 116.75560747663552 182.54514987897971 L 126.29205607476636 196.50902997579593 L 135.8285046728972 196.50902997579593 L 145.36495327102804 182.54514987897971 L 154.9014018691589 193.01805995159188 L 164.4378504672897 193.01805995159188 L 173.9747663551402 196.50902997579593 L 183.51121495327104 196.50902997579593 L 193.04766355140185 193.01805995159188 L 202.58411214953273 182.54514987897971 L 212.12056074766352 186.03611990318376 L 221.6570093457944 172.07223980636752 L 231.19392523364485 179.05417985477564 L 240.73037383177572 175.56320983057157 L 250.26682242990654 182.54514987897971 L 259.8032710280374 186.03611990318376 L 269.3397196261682 189.5270899273878 L 278.8761682242991 193.01805995159188 L 288.41308411214953 193.01805995159188 L 297.9495327102804 182.54514987897971 L 307.4859813084112 193.01805995159188 L 317.0224299065421 189.5270899273878 L 326.5588785046729 189.5270899273878 L 336.09532710280376 193.01805995159188 L 345.6322429906542 189.5270899273878 L 355.1686915887851 189.5270899273878 L 364.70514018691586 182.54514987897971 L 374.2415887850467 189.5270899273878 L 383.77803738317755 186.03611990318376 L 393.3144859813084 172.07223980636752 L 402.85140186915885 186.03611990318376 L 412.3878504672897 186.03611990318376 L 421.9242990654206 189.5270899273878 L 431.46074766355144 186.03611990318376 L 440.99719626168223 186.03611990318376 L 450.5336448598131 182.54514987897971 L 460.0705607476636 179.05417985477564 L 469.6070093457944 179.05417985477564 L 479.14345794392517 182.54514987897971 L 488.6799065420561 186.03611990318376 L 498.2163551401869 186.03611990318376 L 507.75280373831777 175.56320983057157 L 517.2897196261682 179.05417985477564" style="stroke:rgb(40%,76.1%,64.7%);stroke-dasharray:4, 2;stroke-opacity:1.0;stroke-width:4.0" /></g></g><g class="toyplot-mark-Text" id="t878d2b6a903a4410b7d4faf015cb105a"><g class="toyplot-Series"><g class="toyplot-Datum" transform="translate(517.2897196261682,179.05417985477564)"><text style="fill:rgb(40%,76.1%,64.7%);fill-opacity:1.0;font-family:helvetica;font-size:12.0px;font-weight:normal;opacity:1;stroke:none;vertical-align:baseline;white-space:pre" x="0" y="3.066">100000</text></g></g></g><g class="toyplot-mark-Plot" id="t04db596a8e184d77a4638215f86f3f41" style="fill:none"><g class="toyplot-Series"><path d="M 50.0 70.83410910444981 L 59.536448598130846 133.67156954012287 L 69.07289719626168 109.23477937069444 L 78.60934579439252 130.1805995159188 L 88.14579439252336 112.72574939489853 L 97.6822429906542 130.1805995159188 L 107.21869158878505 98.76186929808227 L 116.75560747663552 109.23477937069444 L 126.29205607476636 165.0902997579594 L 135.8285046728972 144.14447961273504 L 145.36495327102804 165.0902997579594 L 154.9014018691589 109.23477937069444 L 164.4378504672897 154.6173896853472 L 173.9747663551402 154.6173896853472 L 183.51121495327104 140.653509588531 L 193.04766355140185 130.1805995159188 L 202.58411214953273 123.19865946751068 L 212.12056074766352 137.16253956432692 L 221.6570093457944 109.23477937069444 L 231.19392523364485 151.12641966114316 L 240.73037383177572 140.653509588531 L 250.26682242990654 116.21671941910256 L 259.8032710280374 112.72574939489853 L 269.3397196261682 98.76186929808227 L 278.8761682242991 158.10835970955128 L 288.41308411214953 123.19865946751068 L 297.9495327102804 123.19865946751068 L 307.4859813084112 140.653509588531 L 317.0224299065421 144.14447961273504 L 326.5588785046729 130.1805995159188 L 336.09532710280376 116.21671941910256 L 345.6322429906542 147.6354496369391 L 355.1686915887851 123.19865946751068 L 364.70514018691586 154.6173896853472 L 374.2415887850467 144.14447961273504 L 383.77803738317755 137.16253956432692 L 393.3144859813084 133.67156954012287 L 402.85140186915885 133.67156954012287 L 412.3878504672897 112.72574939489853 L 421.9242990654206 126.68962949171474 L 431.46074766355144 95.2708992738782 L 440.99719626168223 123.19865946751068 L 450.5336448598131 112.72574939489853 L 460.0705607476636 137.16253956432692 L 469.6070093457944 151.12641966114316 L 479.14345794392517 123.19865946751068 L 488.6799065420561 130.1805995159188 L 498.2163551401869 119.70768944330663 L 507.75280373831777 140.653509588531 L 517.2897196261682 84.79798920126603" style="stroke:rgb(98.8%,55.3%,38.4%);stroke-opacity:1.0;stroke-width:4.0" /></g></g><g class="toyplot-mark-Text" id="tb1bf795b4d8c4919aabf13181495288d"><g class="toyplot-Series"><g class="toyplot-Datum" transform="translate(517.2897196261682,84.79798920126603)"><text style="fill:rgb(98.8%,55.3%,38.4%);fill-opacity:1.0;font-family:helvetica;font-size:12.0px;font-weight:normal;opacity:1;stroke:none;vertical-align:baseline;white-space:pre" x="0" y="3.066">0</text></g></g></g><g class="toyplot-mark-Plot" id="te9eeb67fbb78419d9284716c92511eca" style="fill:none"><g class="toyplot-Series"><path d="M 50.0 133.67156954012287 L 59.536448598130846 151.12641966114316 L 69.07289719626168 165.0902997579594 L 78.60934579439252 151.12641966114316 L 88.14579439252336 151.12641966114316 L 97.6822429906542 154.6173896853472 L 107.21869158878505 158.10835970955128 L 116.75560747663552 140.653509588531 L 126.29205607476636 168.58126978216347 L 135.8285046728972 151.12641966114316 L 145.36495327102804 175.56320983057157 L 154.9014018691589 168.58126978216347 L 164.4378504672897 168.58126978216347 L 173.9747663551402 172.07223980636752 L 183.51121495327104 168.58126978216347 L 193.04766355140185 182.54514987897971 L 202.58411214953273 165.0902997579594 L 212.12056074766352 175.56320983057157 L 221.6570093457944 165.0902997579594 L 231.19392523364485 175.56320983057157 L 240.73037383177572 175.56320983057157 L 250.26682242990654 130.1805995159188 L 259.8032710280374 154.6173896853472 L 269.3397196261682 179.05417985477564 L 278.8761682242991 186.03611990318376 L 288.41308411214953 179.05417985477564 L 297.9495327102804 158.10835970955128 L 307.4859813084112 158.10835970955128 L 317.0224299065421 161.59932973375535 L 326.5588785046729 161.59932973375535 L 336.09532710280376 158.10835970955128 L 345.6322429906542 186.03611990318376 L 355.1686915887851 130.1805995159188 L 364.70514018691586 172.07223980636752 L 374.2415887850467 161.59932973375535 L 383.77803738317755 179.05417985477564 L 393.3144859813084 165.0902997579594 L 402.85140186915885 165.0902997579594 L 412.3878504672897 161.59932973375535 L 421.9242990654206 182.54514987897971 L 431.46074766355144 165.0902997579594 L 440.99719626168223 161.59932973375535 L 450.5336448598131 154.6173896853472 L 460.0705607476636 161.59932973375535 L 469.6070093457944 175.56320983057157 L 479.14345794392517 133.67156954012287 L 488.6799065420561 168.58126978216347 L 498.2163551401869 172.07223980636752 L 507.75280373831777 175.56320983057157 L 517.2897196261682 84.79798920126603" style="stroke:rgb(98.8%,55.3%,38.4%);stroke-opacity:1.0;stroke-width:3.0" /></g></g><g class="toyplot-mark-Text" id="t9a7916826a1449c393010883f78f6ea7"><g class="toyplot-Series"><g class="toyplot-Datum" transform="translate(517.2897196261682,84.79798920126603)"><text style="fill:rgb(98.8%,55.3%,38.4%);fill-opacity:1.0;font-family:helvetica;font-size:12.0px;font-weight:normal;opacity:1;stroke:none;vertical-align:baseline;white-space:pre" x="0" y="3.066">1</text></g></g></g><g class="toyplot-mark-Plot" id="t205ebefa5dbc4c7a9437adda4e3965a2" style="fill:none"><g class="toyplot-Series"><path d="M 50.0 154.6173896853472 L 59.536448598130846 175.56320983057157 L 69.07289719626168 186.03611990318376 L 78.60934579439252 179.05417985477564 L 88.14579439252336 193.01805995159188 L 97.6822429906542 179.05417985477564 L 107.21869158878505 179.05417985477564 L 116.75560747663552 182.54514987897971 L 126.29205607476636 189.5270899273878 L 135.8285046728972 186.03611990318376 L 145.36495327102804 189.5270899273878 L 154.9014018691589 193.01805995159188 L 164.4378504672897 189.5270899273878 L 173.9747663551402 179.05417985477564 L 183.51121495327104 186.03611990318376 L 193.04766355140185 200.0 L 202.58411214953273 172.07223980636752 L 212.12056074766352 186.03611990318376 L 221.6570093457944 175.56320983057157 L 231.19392523364485 175.56320983057157 L 240.73037383177572 189.5270899273878 L 250.26682242990654 168.58126978216347 L 259.8032710280374 172.07223980636752 L 269.3397196261682 186.03611990318376 L 278.8761682242991 189.5270899273878 L 288.41308411214953 193.01805995159188 L 297.9495327102804 175.56320983057157 L 307.4859813084112 193.01805995159188 L 317.0224299065421 186.03611990318376 L 326.5588785046729 189.5270899273878 L 336.09532710280376 182.54514987897971 L 345.6322429906542 193.01805995159188 L 355.1686915887851 182.54514987897971 L 364.70514018691586 186.03611990318376 L 374.2415887850467 189.5270899273878 L 383.77803738317755 175.56320983057157 L 393.3144859813084 186.03611990318376 L 402.85140186915885 193.01805995159188 L 412.3878504672897 179.05417985477564 L 421.9242990654206 193.01805995159188 L 431.46074766355144 168.58126978216347 L 440.99719626168223 189.5270899273878 L 450.5336448598131 179.05417985477564 L 460.0705607476636 175.56320983057157 L 469.6070093457944 193.01805995159188 L 479.14345794392517 168.58126978216347 L 488.6799065420561 200.0 L 498.2163551401869 189.5270899273878 L 507.75280373831777 193.01805995159188 L 517.2897196261682 154.6173896853472" style="stroke:rgb(98.8%,55.3%,38.4%);stroke-opacity:1.0;stroke-width:2.0" /></g></g><g class="toyplot-mark-Text" id="t9ec42d5f84f64b8cad91e3f12046131b"><g class="toyplot-Series"><g class="toyplot-Datum" transform="translate(517.2897196261682,154.6173896853472)"><text style="fill:rgb(98.8%,55.3%,38.4%);fill-opacity:1.0;font-family:helvetica;font-size:12.0px;font-weight:normal;opacity:1;stroke:none;vertical-align:baseline;white-space:pre" x="0" y="3.066">2</text></g></g></g><g class="toyplot-mark-Plot" id="td161b7a07b6b4f3e9a525cff26520275" style="fill:none"><g class="toyplot-Series"><path d="M 50.0 175.56320983057157 L 59.536448598130846 182.54514987897971 L 69.07289719626168 186.03611990318376 L 78.60934579439252 182.54514987897971 L 88.14579439252336 189.5270899273878 L 97.6822429906542 186.03611990318376 L 107.21869158878505 193.01805995159188 L 116.75560747663552 196.50902997579593 L 126.29205607476636 196.50902997579593 L 135.8285046728972 193.01805995159188 L 145.36495327102804 189.5270899273878 L 154.9014018691589 193.01805995159188 L 164.4378504672897 193.01805995159188 L 173.9747663551402 189.5270899273878 L 183.51121495327104 196.50902997579593 L 193.04766355140185 200.0 L 202.58411214953273 168.58126978216347 L 212.12056074766352 189.5270899273878 L 221.6570093457944 179.05417985477564 L 231.19392523364485 189.5270899273878 L 240.73037383177572 193.01805995159188 L 250.26682242990654 189.5270899273878 L 259.8032710280374 196.50902997579593 L 269.3397196261682 189.5270899273878 L 278.8761682242991 193.01805995159188 L 288.41308411214953 193.01805995159188 L 297.9495327102804 186.03611990318376 L 307.4859813084112 193.01805995159188 L 317.0224299065421 189.5270899273878 L 326.5588785046729 189.5270899273878 L 336.09532710280376 189.5270899273878 L 345.6322429906542 193.01805995159188 L 355.1686915887851 179.05417985477564 L 364.70514018691586 193.01805995159188 L 374.2415887850467 193.01805995159188 L 383.77803738317755 186.03611990318376 L 393.3144859813084 182.54514987897971 L 402.85140186915885 193.01805995159188 L 412.3878504672897 182.54514987897971 L 421.9242990654206 200.0 L 431.46074766355144 179.05417985477564 L 440.99719626168223 189.5270899273878 L 450.5336448598131 182.54514987897971 L 460.0705607476636 179.05417985477564 L 469.6070093457944 193.01805995159188 L 479.14345794392517 200.0 L 488.6799065420561 200.0 L 498.2163551401869 196.50902997579593 L 507.75280373831777 196.50902997579593 L 517.2897196261682 165.0902997579594" style="stroke:rgb(98.8%,55.3%,38.4%);stroke-opacity:1.0;stroke-width:1.5" /></g></g><g class="toyplot-mark-Text" id="te9038c3600a045719fb57a65a6b62fc4"><g class="toyplot-Series"><g class="toyplot-Datum" transform="translate(517.2897196261682,165.0902997579594)"><text style="fill:rgb(98.8%,55.3%,38.4%);fill-opacity:1.0;font-family:helvetica;font-size:12.0px;font-weight:normal;opacity:1;stroke:none;vertical-align:baseline;white-space:pre" x="0" y="3.066">3</text></g></g></g></g><g class="toyplot-coordinates-Axis" id="tb40dd8fdfb0d4af589f0d8c779493793" transform="translate(50.0,200.0)translate(0,10.0)"><line style="" x1="0" x2="467.2897196261682" y1="0" y2="0" /><g><line style="" x1="23.36448598130841" x2="23.36448598130841" y1="0" y2="-5" /><line style="" x1="40.88785046728972" x2="40.88785046728972" y1="0" y2="-5" /><line style="" x1="58.41121495327103" x2="58.41121495327103" y1="0" y2="-5" /><line style="" x1="75.93457943925233" x2="75.93457943925233" y1="0" y2="-5" /><line style="" x1="93.45794392523364" x2="93.45794392523364" y1="0" y2="-5" /><line style="" x1="110.98130841121495" x2="110.98130841121495" y1="0" y2="-5" /><line style="" x1="128.50467289719626" x2="128.50467289719626" y1="0" y2="-5" /><line style="" x1="146.02803738317758" x2="146.02803738317758" y1="0" y2="-5" /><line style="" x1="163.55140186915887" x2="163.55140186915887" y1="0" y2="-5" /><line style="" x1="181.07476635514018" x2="181.07476635514018" y1="0" y2="-5" /><line style="" x1="198.5981308411215" x2="198.5981308411215" y1="0" y2="-5" /><line style="" x1="216.12149532710282" x2="216.12149532710282" y1="0" y2="-5" /><line style="" x1="233.6448598130841" x2="233.6448598130841" y1="0" y2="-5" /><line style="" x1="251.16822429906543" x2="251.16822429906543" y1="0" y2="-5" /><line style="" x1="268.69158878504675" x2="268.69158878504675" y1="0" y2="-5" /><line style="" x1="286.21495327102804" x2="286.21495327102804" y1="0" y2="-5" /><line style="" x1="303.7383177570093" x2="303.7383177570093" y1="0" y2="-5" /><line style="" x1="321.2616822429907" x2="321.2616822429907" y1="0" y2="-5" /><line style="" x1="338.78504672897196" x2="338.78504672897196" y1="0" y2="-5" /><line style="" x1="356.30841121495325" x2="356.30841121495325" y1="0" y2="-5" /><line style="" x1="373.83177570093454" x2="373.83177570093454" y1="0" y2="-5" /><line style="" x1="391.3551401869159" x2="391.3551401869159" y1="0" y2="-5" /><line style="" x1="408.87850467289724" x2="408.87850467289724" y1="0" y2="-5" /><line style="" x1="426.4018691588785" x2="426.4018691588785" y1="0" y2="-5" /><line style="" x1="443.9252336448598" x2="443.9252336448598" y1="0" y2="-5" /></g><g /><g transform="translate(250.0,22)"><text style="fill:rgb(16.1%,15.3%,14.1%);fill-opacity:1.0;font-family:helvetica;font-size:12.0px;font-weight:bold;stroke:none;vertical-align:baseline;white-space:pre" x="-62.675999999999995" y="10.265999999999998">chromosome position</text></g><g class="toyplot-coordinates-Axis-coordinates" style="visibility:hidden" transform=""><line style="stroke:rgb(43.9%,50.2%,56.5%);stroke-opacity:1.0;stroke-width:1.0" x1="0" x2="0" y1="-3.0" y2="4.5" /><text style="alignment-baseline:alphabetic;fill:rgb(43.9%,50.2%,56.5%);fill-opacity:1.0;font-size:10px;font-weight:normal;stroke:none;text-anchor:middle" x="0" y="-6" /></g></g><g class="toyplot-coordinates-Axis" id="tba21492519c047a79f39a7244dca1900" transform="translate(50.0,200.0)rotate(-90.0)translate(0,-10.0)"><line style="" x1="0" x2="143.12977099236645" y1="0" y2="0" /><g><line style="" x1="0.0" x2="0.0" y1="0" y2="5" /><line style="" x1="33.862409234779385" x2="33.862409234779385" y1="0" y2="5" /><line style="" x1="67.72481846955877" x2="67.72481846955877" y1="0" y2="5" /><line style="" x1="101.58722770433815" x2="101.58722770433815" y1="0" y2="5" /><line style="" x1="135.44963693911754" x2="135.44963693911754" y1="0" y2="5" /></g><g><g transform="translate(0.0,-6)"><text style="fill:rgb(16.1%,15.3%,14.1%);fill-opacity:1.0;font-family:helvetica;font-size:10.0px;font-weight:normal;stroke:none;vertical-align:baseline;white-space:pre" x="-6.95" y="-4.440892098500626e-16">0.0</text></g><g transform="translate(33.862409234779385,-6)"><text style="fill:rgb(16.1%,15.3%,14.1%);fill-opacity:1.0;font-family:helvetica;font-size:10.0px;font-weight:normal;stroke:none;vertical-align:baseline;white-space:pre" x="-6.95" y="-4.440892098500626e-16">0.1</text></g><g transform="translate(67.72481846955877,-6)"><text style="fill:rgb(16.1%,15.3%,14.1%);fill-opacity:1.0;font-family:helvetica;font-size:10.0px;font-weight:normal;stroke:none;vertical-align:baseline;white-space:pre" x="-6.95" y="-4.440892098500626e-16">0.2</text></g><g transform="translate(101.58722770433815,-6)"><text style="fill:rgb(16.1%,15.3%,14.1%);fill-opacity:1.0;font-family:helvetica;font-size:10.0px;font-weight:normal;stroke:none;vertical-align:baseline;white-space:pre" x="-6.95" y="-4.440892098500626e-16">0.3</text></g><g transform="translate(135.44963693911754,-6)"><text style="fill:rgb(16.1%,15.3%,14.1%);fill-opacity:1.0;font-family:helvetica;font-size:10.0px;font-weight:normal;stroke:none;vertical-align:baseline;white-space:pre" x="-6.95" y="-4.440892098500626e-16">0.4</text></g></g><g transform="translate(75.0,-22)"><text style="fill:rgb(16.1%,15.3%,14.1%);fill-opacity:1.0;font-family:helvetica;font-size:12.0px;font-weight:bold;stroke:none;vertical-align:baseline;white-space:pre" x="-34.008" y="0.0">RF distance</text></g><g class="toyplot-coordinates-Axis-coordinates" style="visibility:hidden" transform=""><line style="stroke:rgb(43.9%,50.2%,56.5%);stroke-opacity:1.0;stroke-width:1.0" x1="0" x2="0" y1="3.0" y2="-4.5" /><text style="alignment-baseline:hanging;fill:rgb(43.9%,50.2%,56.5%);fill-opacity:1.0;font-size:10px;font-weight:normal;stroke:none;text-anchor:middle" x="0" y="6" /></g></g></g></svg>