<svg class="toyplot-canvas-Canvas" height="300.0px" id="tabc37df8d9eb4da6a050e4382590af7c" preserveAspectRatio="xMidYMid meet" style="background-color:transparent;border-color:#292724;border-style:none;border-width:1.0;fill:rgb(16.1%,15.3%,14.1%);fill-opacity:1.0;font-family:Helvetica;font-size:12px;opacity:1.0;stroke:rgb(16.1%,15.3%,14.1%);stroke-opacity:1.0;stroke-width:1.0" viewBox="0 0 300.0 300.0" width="300.0px" xmlns="http://www.w3.org/2000/svg" xmlns:toyplot="http://www.sandia.gov/toyplot" xmlns:xlink="http://www.w3.org/1999/xlink"><g class="toyplot-coordinates-Cartesian" id="tfa1f36c505bf411e946e271bb4f34a46"><clipPath id="t6f1234dc542b4896b2fb82b82681ae0d"><rect height="220.0" width="220.0" x="40.0" y="40.0" /></clipPath><g clip-path="url(#t6f1234dc542b4896b2fb82b82681ae0d)"><g class="toyplot-mark-Plot" id="te68ebc315350488e9e621c3e84bdc755" style="fill:none"><g class="toyplot-Series"><path d="M 50.0 249.98 L 50.4 249.98 L 50.8 249.98 L 51.2 249.98 L 51.6 249.98 L 52.0 249.98 L 52.4 249.98 L 52.8 249.98 L 53.2 249.98 L 53.6 249.98 L 54.0 249.98 L 54.4 249.98 L 54.8 249.98 L 55.199999999999996 249.98 L 55.6 249.98 L 56.0 249.98 L 56.4 249.98 L 56.8 249.98 L 57.199999999999996 249.98 L 57.6 249.96 L 58.0 249.96 L 58.4 249.96 L 58.8 249.96 L 59.199999999999996 249.96 L 59.599999999999994 249.96 L 60.0 249.96 L 60.4 249.96 L 60.8 249.96 L 61.199999999999996 249.96 L 61.599999999999994 249.96 L 62.0 249.94 L 62.4 249.94 L 62.8 249.94 L 63.199999999999996 249.94 L 63.599999999999994 249.94 L 64.0 249.94 L 64.4 249.94 L 64.80000000000001 249.92000000000002 L 65.2 249.92000000000002 L 65.6 249.92000000000002 L 66.0 249.92000000000002 L 66.4 249.92000000000002 L 66.80000000000001 249.92000000000002 L 67.2 249.9 L 67.6 249.9 L 68.0 249.9 L 68.4 249.9 L 68.80000000000001 249.9 L 69.2 249.88 L 69.6 249.88 L 70.0 249.88 L 70.4 249.88 L 70.80000000000001 249.85999999999999 L 71.2 249.85999999999999 L 71.6 249.85999999999999 L 72.0 249.85999999999999 L 72.4 249.83999999999997 L 72.8 249.83999999999997 L 73.2 249.83999999999997 L 73.6 249.82 L 74.0 249.82 L 74.4 249.82 L 74.8 249.8 L 75.2 249.8 L 75.6 249.78 L 76.0 249.78 L 76.4 249.76000000000002 L 76.8 249.76000000000002 L 77.2 249.76000000000002 L 77.6 249.74 L 78.0 249.74 L 78.4 249.72 L 78.8 249.7 L 79.19999999999999 249.7 L 79.6 249.68 L 80.0 249.68 L 80.4 249.66 L 80.8 249.64 L 81.19999999999999 249.64 L 81.6 249.62 L 82.0 249.6 L 82.4 249.57999999999998 L 82.8 249.56000000000003 L 83.19999999999999 249.56000000000003 L 83.6 249.54000000000002 L 84.0 249.52 L 84.4 249.5 L 84.80000000000001 249.48 L 85.2 249.45999999999998 L 85.6 249.43999999999997 L 86.0 249.42000000000002 L 86.4 249.4 L 86.80000000000001 249.36 L 87.2 249.34 L 87.6 249.32 L 88.0 249.3 L 88.4 249.26 L 88.80000000000001 249.23999999999998 L 89.2 249.2 L 89.6 249.18 L 90.0 249.14000000000001 L 90.4 249.1 L 90.80000000000001 249.07999999999998 L 91.2 249.04 L 91.6 249.0 L 92.0 248.96 L 92.4 248.92000000000002 L 92.80000000000001 248.88 L 93.2 248.83999999999997 L 93.6 248.8 L 94.0 248.74 L 94.4 248.7 L 94.80000000000001 248.64 L 95.2 248.6 L 95.6 248.54000000000002 L 96.0 248.48 L 96.4 248.42000000000002 L 96.8 248.36 L 97.2 248.3 L 97.6 248.23999999999998 L 98.0 248.16000000000003 L 98.4 248.1 L 98.8 248.02 L 99.2 247.94 L 99.6 247.85999999999999 L 100.0 247.78 L 100.4 247.7 L 100.8 247.62 L 101.2 247.52 L 101.6 247.42000000000002 L 102.0 247.32 L 102.4 247.22 L 102.8 247.12 L 103.2 247.0 L 103.6 246.88000000000002 L 104.0 246.76 L 104.4 246.64 L 104.8 246.52 L 105.19999999999999 246.38 L 105.6 246.23999999999998 L 106.0 246.1 L 106.4 245.94 L 106.8 245.78 L 107.19999999999999 245.62 L 107.6 245.45999999999998 L 108.0 245.28000000000003 L 108.4 245.1 L 108.8 244.9 L 109.19999999999999 244.72 L 109.6 244.52 L 110.0 244.3 L 110.4 244.08 L 110.8 243.86 L 111.19999999999999 243.61999999999998 L 111.6 243.35999999999999 L 112.0 243.12 L 112.4 242.83999999999997 L 112.8 242.57999999999998 L 113.19999999999999 242.28 L 113.6 242.0 L 114.0 241.68 L 114.4 241.35999999999999 L 114.8 241.04000000000002 L 115.19999999999999 240.68 L 115.6 240.32 L 116.0 239.95999999999998 L 116.4 239.57999999999998 L 116.8 239.18 L 117.19999999999999 238.76 L 117.6 238.32 L 118.0 237.88 L 118.4 237.4 L 118.80000000000001 236.92000000000002 L 119.2 236.42000000000002 L 119.6 235.9 L 120.0 235.35999999999999 L 120.4 234.8 L 120.80000000000001 234.2 L 121.2 233.6 L 121.6 232.98000000000002 L 122.0 232.31999999999996 L 122.4 231.64000000000001 L 122.8 230.94 L 123.2 230.2 L 123.6 229.44 L 124.0 228.64000000000001 L 124.4 227.82 L 124.8 226.98 L 125.2 226.07999999999998 L 125.6 225.16000000000003 L 126.0 224.22 L 126.4 223.22 L 126.8 222.2 L 127.2 221.12 L 127.6 220.02 L 128.0 218.86 L 128.4 217.66000000000003 L 128.8 216.42000000000002 L 129.2 215.14000000000001 L 129.6 213.8 L 130.0 212.4 L 130.4 210.95999999999998 L 130.8 209.45999999999998 L 131.2 207.9 L 131.6 206.28 L 132.0 204.6 L 132.4 202.85999999999999 L 132.8 201.04 L 133.2 199.16000000000003 L 133.6 197.22 L 134.0 195.18 L 134.4 193.08 L 134.8 190.9 L 135.2 188.62 L 135.6 186.26000000000002 L 136.0 183.82 L 136.4 181.28 L 136.8 178.64000000000001 L 137.2 175.88 L 137.6 173.04 L 138.0 170.08 L 138.4 167.01999999999998 L 138.8 163.82 L 139.2 160.52 L 139.6 157.07999999999998 L 140.0 153.50000000000003 L 140.4 149.8 L 140.8 145.96 L 141.2 141.96 L 141.6 137.79999999999998 L 142.0 133.5 L 142.4 129.02 L 142.8 124.36 L 143.2 119.53999999999999 L 143.6 114.53999999999999 L 144.0 109.32 L 144.4 103.91999999999999 L 144.8 98.30000000000001 L 145.2 92.48 L 145.6 86.42000000000002 L 146.0 80.13999999999999 L 146.4 73.61999999999999 L 146.8 66.84 L 147.2 59.80000000000001 L 147.6 52.499999999999986 L 148.0 54.94000000000001 L 148.4 62.16 L 148.8 69.10000000000001 L 149.2 75.8 L 149.6 82.24000000000001 L 150.0 88.46000000000001 L 150.4 94.41999999999999 L 150.8 100.18 L 151.2 105.72 L 151.6 111.06 L 152.0 116.19999999999999 L 152.4 121.16 L 152.8 125.92 L 153.2 130.51999999999998 L 153.6 134.94 L 154.0 139.2 L 154.4 143.28 L 154.8 147.24 L 155.2 151.04 L 155.6 154.70000000000002 L 156.0 158.22 L 156.4 161.62 L 156.8 164.9 L 157.2 168.04000000000002 L 157.6 171.07999999999998 L 158.0 174.0 L 158.4 176.8 L 158.8 179.51999999999998 L 159.2 182.12 L 159.6 184.64000000000001 L 160.0 187.06 L 160.4 189.38000000000002 L 160.8 191.61999999999998 L 161.2 193.78 L 161.6 195.86 L 162.0 197.86 L 162.4 199.8 L 162.8 201.66 L 163.2 203.44 L 163.6 205.16000000000003 L 164.0 206.82 L 164.4 208.42000000000002 L 164.8 209.96 L 165.2 211.44 L 165.6 212.86 L 166.0 214.24 L 166.4 215.56 L 166.8 216.84 L 167.2 218.06000000000003 L 167.6 219.24 L 168.0 220.38 L 168.4 221.48 L 168.8 222.54000000000002 L 169.2 223.56000000000003 L 169.6 224.54000000000002 L 170.0 225.48 L 170.4 226.38 L 170.8 227.26 L 171.2 228.1 L 171.6 228.9 L 172.0 229.7 L 172.4 230.44 L 172.8 231.16 L 173.2 231.85999999999999 L 173.6 232.54 L 174.0 233.18000000000004 L 174.4 233.8 L 174.8 234.4 L 175.2 234.98000000000002 L 175.6 235.54 L 176.0 236.07999999999998 L 176.4 236.57999999999998 L 176.8 237.07999999999998 L 177.2 237.56 L 177.6 238.02 L 178.0 238.46 L 178.4 238.9 L 178.8 239.3 L 179.2 239.7 L 179.6 240.07999999999998 L 180.0 240.44 L 180.4 240.8 L 180.8 241.14000000000001 L 181.2 241.48 L 181.6 241.78 L 182.0 242.1 L 182.4 242.38 L 182.8 242.66000000000003 L 183.2 242.94 L 183.6 243.2 L 184.0 243.46 L 184.4 243.7 L 184.8 243.92000000000002 L 185.2 244.16 L 185.6 244.35999999999999 L 186.0 244.57999999999998 L 186.4 244.78 L 186.8 244.98 L 187.2 245.16 L 187.6 245.34 L 188.0 245.52 L 188.4 245.68000000000004 L 188.8 245.83999999999997 L 189.2 246.0 L 189.6 246.14000000000001 L 190.0 246.28000000000003 L 190.4 246.42000000000002 L 190.8 246.56 L 191.2 246.68000000000004 L 191.6 246.8 L 192.0 246.92000000000002 L 192.4 247.04 L 192.8 247.14000000000001 L 193.2 247.26 L 193.6 247.35999999999999 L 194.0 247.45999999999998 L 194.4 247.54000000000002 L 194.8 247.64 L 195.2 247.72 L 195.6 247.82 L 196.0 247.9 L 196.4 247.98 L 196.8 248.04 L 197.2 248.12 L 197.6 248.18 L 198.0 248.26 L 198.4 248.32 L 198.8 248.38 L 199.2 248.43999999999997 L 199.6 248.5 L 200.0 248.56000000000003 L 200.4 248.62 L 200.8 248.66 L 201.2 248.72 L 201.6 248.76000000000002 L 202.0 248.8 L 202.4 248.85999999999999 L 202.8 248.9 L 203.2 248.94 L 203.6 248.98 L 204.0 249.02 L 204.4 249.06 L 204.8 249.07999999999998 L 205.2 249.12 L 205.6 249.16000000000003 L 206.0 249.18 L 206.4 249.22 L 206.8 249.23999999999998 L 207.2 249.28 L 207.6 249.3 L 208.0 249.32 L 208.4 249.36 L 208.8 249.38 L 209.2 249.4 L 209.6 249.42000000000002 L 210.0 249.43999999999997 L 210.4 249.45999999999998 L 210.8 249.48 L 211.2 249.5 L 211.6 249.52 L 212.0 249.54000000000002 L 212.4 249.56000000000003 L 212.8 249.57999999999998 L 213.2 249.6 L 213.6 249.6 L 214.0 249.62 L 214.4 249.64 L 214.8 249.66 L 215.2 249.66 L 215.6 249.68 L 216.0 249.68 L 216.4 249.7 L 216.8 249.72 L 217.2 249.72 L 217.6 249.74 L 218.0 249.74 L 218.4 249.76000000000002 L 218.8 249.76000000000002 L 219.2 249.78 L 219.6 249.78 L 220.0 249.78 L 220.4 249.8 L 220.8 249.8 L 221.2 249.82 L 221.6 249.82 L 222.0 249.82 L 222.4 249.83999999999997 L 222.8 249.83999999999997 L 223.2 249.83999999999997 L 223.6 249.85999999999999 L 224.0 249.85999999999999 L 224.4 249.85999999999999 L 224.8 249.85999999999999 L 225.2 249.88 L 225.6 249.88 L 226.0 249.88 L 226.4 249.88 L 226.8 249.9 L 227.2 249.9 L 227.6 249.9 L 228.0 249.9 L 228.4 249.92000000000002 L 228.8 249.92000000000002 L 229.2 249.92000000000002 L 229.6 249.92000000000002 L 230.0 249.92000000000002 L 230.4 249.92000000000002 L 230.8 249.94 L 231.2 249.94 L 231.6 249.94 L 232.0 249.94 L 232.4 249.94 L 232.8 249.94 L 233.2 249.94 L 233.6 249.94 L 234.0 249.96 L 234.4 249.96 L 234.8 249.96 L 235.2 249.96 L 235.6 249.96 L 236.0 249.96 L 236.4 249.96 L 236.8 249.96 L 237.2 249.96 L 237.6 249.96 L 238.0 249.96 L 238.4 249.98 L 238.8 249.98 L 239.2 249.98 L 239.6 249.98 L 240.0 249.98 L 240.4 249.98 L 240.8 249.98 L 241.2 249.98 L 241.6 249.98 L 242.0 249.98 L 242.4 249.98 L 242.8 249.98 L 243.2 249.98 L 243.6 249.98 L 244.0 249.98 L 244.4 249.98 L 244.8 249.98 L 245.2 249.98" style="stroke:rgb(98.8%,55.3%,38.4%);stroke-opacity:1.0;stroke-width:5.0" /></g></g><g class="toyplot-mark-FillBoundaries" id="t2b063f6edfd047cfaa46707673df9cef" style="stroke:none"><polygon points="50.0,250.0 50.4,250.0 50.8,250.0 51.2,250.0 51.6,250.0 52.0,250.0 52.4,250.0 52.8,250.0 53.2,250.0 53.6,250.0 54.0,250.0 54.4,250.0 54.8,250.0 55.199999999999996,250.0 55.6,250.0 56.0,250.0 56.4,250.0 56.8,250.0 57.199999999999996,250.0 57.6,250.0 58.0,250.0 58.4,250.0 58.8,250.0 59.199999999999996,250.0 59.599999999999994,250.0 60.0,250.0 60.4,250.0 60.8,250.0 61.199999999999996,250.0 61.599999999999994,250.0 62.0,250.0 62.4,250.0 62.8,250.0 63.199999999999996,250.0 63.599999999999994,250.0 64.0,250.0 64.4,250.0 64.80000000000001,250.0 65.2,250.0 65.6,250.0 66.0,250.0 66.4,250.0 66.80000000000001,250.0 67.2,250.0 67.6,250.0 68.0,250.0 68.4,250.0 68.80000000000001,250.0 69.2,250.0 69.6,250.0 70.0,250.0 70.4,250.0 70.80000000000001,250.0 71.2,250.0 71.6,250.0 72.0,250.0 72.4,250.0 72.8,250.0 73.2,250.0 73.6,250.0 74.0,250.0 74.4,250.0 74.8,250.0 75.2,250.0 75.6,250.0 76.0,250.0 76.4,250.0 76.8,250.0 77.2,250.0 77.6,250.0 78.0,250.0 78.4,250.0 78.8,250.0 79.19999999999999,250.0 79.6,250.0 80.0,250.0 80.4,250.0 80.8,250.0 81.19999999999999,250.0 81.6,250.0 82.0,250.0 82.4,250.0 82.8,250.0 83.19999999999999,250.0 83.6,250.0 84.0,250.0 84.4,250.0 84.80000000000001,250.0 85.2,250.0 85.6,250.0 86.0,250.0 86.4,250.0 86.80000000000001,250.0 87.2,250.0 87.6,250.0 88.0,250.0 88.4,250.0 88.80000000000001,250.0 89.2,250.0 89.6,250.0 90.0,250.0 90.4,250.0 90.80000000000001,250.0 91.2,250.0 91.6,250.0 92.0,250.0 92.4,250.0 92.80000000000001,250.0 93.2,250.0 93.6,250.0 94.0,250.0 94.4,250.0 94.80000000000001,250.0 95.2,250.0 95.6,250.0 96.0,250.0 96.4,250.0 96.8,250.0 97.2,250.0 97.6,250.0 98.0,250.0 98.4,250.0 98.8,250.0 99.2,250.0 99.6,250.0 100.0,250.0 100.4,250.0 100.8,250.0 101.2,250.0 101.6,250.0 102.0,250.0 102.4,250.0 102.8,250.0 103.2,250.0 103.6,250.0 104.0,250.0 104.4,250.0 104.8,250.0 105.19999999999999,250.0 105.6,250.0 106.0,250.0 106.4,250.0 106.8,250.0 107.19999999999999,250.0 107.6,250.0 108.0,250.0 108.4,250.0 108.8,250.0 109.19999999999999,250.0 109.6,250.0 110.0,250.0 110.4,250.0 110.8,250.0 111.19999999999999,250.0 111.6,250.0 112.0,250.0 112.4,250.0 112.8,250.0 113.19999999999999,250.0 113.6,250.0 114.0,250.0 114.4,250.0 114.8,250.0 115.19999999999999,250.0 115.6,250.0 116.0,250.0 116.4,250.0 116.8,250.0 117.19999999999999,250.0 117.6,250.0 118.0,250.0 118.4,250.0 118.80000000000001,250.0 119.2,250.0 119.6,250.0 120.0,250.0 120.4,250.0 120.80000000000001,250.0 121.2,250.0 121.6,250.0 122.0,250.0 122.4,250.0 122.8,250.0 123.2,250.0 123.6,250.0 124.0,250.0 124.4,250.0 124.8,250.0 125.2,250.0 125.6,250.0 126.0,250.0 126.4,250.0 126.8,250.0 127.2,250.0 127.6,250.0 128.0,250.0 128.4,250.0 128.8,250.0 129.2,250.0 129.6,250.0 130.0,250.0 130.4,250.0 130.8,250.0 131.2,250.0 131.6,250.0 132.0,250.0 132.4,250.0 132.8,250.0 133.2,250.0 133.6,250.0 134.0,250.0 134.4,250.0 134.8,250.0 135.2,250.0 135.6,250.0 136.0,250.0 136.4,250.0 136.8,250.0 137.2,250.0 137.6,250.0 138.0,250.0 138.4,250.0 138.8,250.0 139.2,250.0 139.6,250.0 140.0,250.0 140.4,250.0 140.8,250.0 141.2,250.0 141.6,250.0 142.0,250.0 142.4,250.0 142.8,250.0 143.2,250.0 143.6,250.0 144.0,250.0 144.4,250.0 144.8,250.0 145.2,250.0 145.6,250.0 146.0,250.0 146.4,250.0 146.8,250.0 147.2,250.0 147.6,250.0 148.0,250.0 148.4,250.0 148.8,250.0 149.2,250.0 149.6,250.0 150.0,250.0 150.4,250.0 150.8,250.0 151.2,250.0 151.6,250.0 152.0,250.0 152.4,250.0 152.8,250.0 153.2,250.0 153.6,250.0 154.0,250.0 154.4,250.0 154.8,250.0 155.2,250.0 155.6,250.0 156.0,250.0 156.4,250.0 156.8,250.0 157.2,250.0 157.6,250.0 158.0,250.0 158.4,250.0 158.8,250.0 159.2,250.0 159.6,250.0 160.0,250.0 160.4,250.0 160.8,250.0 161.2,250.0 161.6,250.0 162.0,250.0 162.4,250.0 162.8,250.0 163.2,250.0 163.6,250.0 164.0,250.0 164.4,250.0 164.8,250.0 165.2,250.0 165.6,250.0 166.0,250.0 166.4,250.0 166.8,250.0 167.2,250.0 167.6,250.0 168.0,250.0 168.4,250.0 168.8,250.0 169.2,250.0 169.6,250.0 170.0,250.0 170.4,250.0 170.8,250.0 171.2,250.0 171.6,250.0 172.0,250.0 172.4,250.0 172.8,250.0 173.2,250.0 173.6,250.0 174.0,250.0 174.4,250.0 174.8,250.0 175.2,250.0 175.6,250.0 176.0,250.0 176.4,250.0 176.8,250.0 177.2,250.0 177.6,250.0 178.0,250.0 178.4,250.0 178.8,250.0 179.2,250.0 179.6,250.0 180.0,250.0 180.4,250.0 180.8,250.0 181.2,250.0 181.6,250.0 182.0,250.0 182.4,250.0 182.8,250.0 183.2,250.0 183.6,250.0 184.0,250.0 184.4,250.0 184.8,250.0 185.2,250.0 185.6,250.0 186.0,250.0 186.4,250.0 186.8,250.0 187.2,250.0 187.6,250.0 188.0,250.0 188.4,250.0 188.8,250.0 189.2,250.0 189.6,250.0 190.0,250.0 190.4,250.0 190.8,250.0 191.2,250.0 191.6,250.0 192.0,250.0 192.4,250.0 192.8,250.0 193.2,250.0 193.6,250.0 194.0,250.0 194.4,250.0 194.8,250.0 195.2,250.0 195.6,250.0 196.0,250.0 196.4,250.0 196.8,250.0 197.2,250.0 197.6,250.0 198.0,250.0 198.4,250.0 198.8,250.0 199.2,250.0 199.6,250.0 200.0,250.0 200.4,250.0 200.8,250.0 201.2,250.0 201.6,250.0 202.0,250.0 202.4,250.0 202.8,250.0 203.2,250.0 203.6,250.0 204.0,250.0 204.4,250.0 204.8,250.0 205.2,250.0 205.6,250.0 206.0,250.0 206.4,250.0 206.8,250.0 207.2,250.0 207.6,250.0 208.0,250.0 208.4,250.0 208.8,250.0 209.2,250.0 209.6,250.0 210.0,250.0 210.4,250.0 210.8,250.0 211.2,250.0 211.6,250.0 212.0,250.0 212.4,250.0 212.8,250.0 213.2,250.0 213.6,250.0 214.0,250.0 214.4,250.0 214.8,250.0 215.2,250.0 215.6,250.0 216.0,250.0 216.4,250.0 216.8,250.0 217.2,250.0 217.6,250.0 218.0,250.0 218.4,250.0 218.8,250.0 219.2,250.0 219.6,250.0 220.0,250.0 220.4,250.0 220.8,250.0 221.2,250.0 221.6,250.0 222.0,250.0 222.4,250.0 222.8,250.0 223.2,250.0 223.6,250.0 224.0,250.0 224.4,250.0 224.8,250.0 225.2,250.0 225.6,250.0 226.0,250.0 226.4,250.0 226.8,250.0 227.2,250.0 227.6,250.0 228.0,250.0 228.4,250.0 228.8,250.0 229.2,250.0 229.6,250.0 230.0,250.0 230.4,250.0 230.8,250.0 231.2,250.0 231.6,250.0 232.0,250.0 232.4,250.0 232.8,250.0 233.2,250.0 233.6,250.0 234.0,250.0 234.4,250.0 234.8,250.0 235.2,250.0 235.6,250.0 236.0,250.0 236.4,250.0 236.8,250.0 237.2,250.0 237.6,250.0 238.0,250.0 238.4,250.0 238.8,250.0 239.2,250.0 239.6,250.0 240.0,250.0 240.4,250.0 240.8,250.0 241.2,250.0 241.6,250.0 242.0,250.0 242.4,250.0 242.8,250.0 243.2,250.0 243.6,250.0 244.0,250.0 244.4,250.0 244.8,250.0 245.2,250.0 245.2,249.98 244.8,249.98 244.4,249.98 244.0,249.98 243.6,249.98 243.2,249.98 242.8,249.98 242.4,249.98 242.0,249.98 241.6,249.98 241.2,249.98 240.8,249.98 240.4,249.98 240.0,249.98 239.6,249.98 239.2,249.98 238.8,249.98 238.4,249.98 238.0,249.96 237.6,249.96 237.2,249.96 236.8,249.96 236.4,249.96 236.0,249.96 235.6,249.96 235.2,249.96 234.8,249.96 234.4,249.96 234.0,249.96 233.6,249.94 233.2,249.94 232.8,249.94 232.4,249.94 232.0,249.94 231.6,249.94 231.2,249.94 230.8,249.94 230.4,249.92000000000002 230.0,249.92000000000002 229.6,249.92000000000002 229.2,249.92000000000002 228.8,249.92000000000002 228.4,249.92000000000002 228.0,249.9 227.6,249.9 227.2,249.9 226.8,249.9 226.4,249.88 226.0,249.88 225.6,249.88 225.2,249.88 224.8,249.85999999999999 224.4,249.85999999999999 224.0,249.85999999999999 223.6,249.85999999999999 223.2,249.83999999999997 222.8,249.83999999999997 222.4,249.83999999999997 222.0,249.82 221.6,249.82 221.2,249.82 220.8,249.8 220.4,249.8 220.0,249.78 219.6,249.78 219.2,249.78 218.8,249.76000000000002 218.4,249.76000000000002 218.0,249.74 217.6,249.74 217.2,249.72 216.8,249.72 216.4,249.7 216.0,249.68 215.6,249.68 215.2,249.66 214.8,249.66 214.4,249.64 214.0,249.62 213.6,249.6 213.2,249.6 212.8,249.57999999999998 212.4,249.56000000000003 212.0,249.54000000000002 211.6,249.52 211.2,249.5 210.8,249.48 210.4,249.45999999999998 210.0,249.43999999999997 209.6,249.42000000000002 209.2,249.4 208.8,249.38 208.4,249.36 208.0,249.32 207.6,249.3 207.2,249.28 206.8,249.23999999999998 206.4,249.22 206.0,249.18 205.6,249.16000000000003 205.2,249.12 204.8,249.07999999999998 204.4,249.06 204.0,249.02 203.6,248.98 203.2,248.94 202.8,248.9 202.4,248.85999999999999 202.0,248.8 201.6,248.76000000000002 201.2,248.72 200.8,248.66 200.4,248.62 200.0,248.56000000000003 199.6,248.5 199.2,248.43999999999997 198.8,248.38 198.4,248.32 198.0,248.26 197.6,248.18 197.2,248.12 196.8,248.04 196.4,247.98 196.0,247.9 195.6,247.82 195.2,247.72 194.8,247.64 194.4,247.54000000000002 194.0,247.45999999999998 193.6,247.35999999999999 193.2,247.26 192.8,247.14000000000001 192.4,247.04 192.0,246.92000000000002 191.6,246.8 191.2,246.68000000000004 190.8,246.56 190.4,246.42000000000002 190.0,246.28000000000003 189.6,246.14000000000001 189.2,246.0 188.8,245.83999999999997 188.4,245.68000000000004 188.0,245.52 187.6,245.34 187.2,245.16 186.8,244.98 186.4,244.78 186.0,244.57999999999998 185.6,244.35999999999999 185.2,244.16 184.8,243.92000000000002 184.4,243.7 184.0,243.46 183.6,243.2 183.2,242.94 182.8,242.66000000000003 182.4,242.38 182.0,242.1 181.6,241.78 181.2,241.48 180.8,241.14000000000001 180.4,240.8 180.0,240.44 179.6,240.07999999999998 179.2,239.7 178.8,239.3 178.4,238.9 178.0,238.46 177.6,238.02 177.2,237.56 176.8,237.07999999999998 176.4,236.57999999999998 176.0,236.07999999999998 175.6,235.54 175.2,234.98000000000002 174.8,234.4 174.4,233.8 174.0,233.18000000000004 173.6,232.54 173.2,231.85999999999999 172.8,231.16 172.4,230.44 172.0,229.7 171.6,228.9 171.2,228.1 170.8,227.26 170.4,226.38 170.0,225.48 169.6,224.54000000000002 169.2,223.56000000000003 168.8,222.54000000000002 168.4,221.48 168.0,220.38 167.6,219.24 167.2,218.06000000000003 166.8,216.84 166.4,215.56 166.0,214.24 165.6,212.86 165.2,211.44 164.8,209.96 164.4,208.42000000000002 164.0,206.82 163.6,205.16000000000003 163.2,203.44 162.8,201.66 162.4,199.8 162.0,197.86 161.6,195.86 161.2,193.78 160.8,191.61999999999998 160.4,189.38000000000002 160.0,187.06 159.6,184.64000000000001 159.2,182.12 158.8,179.51999999999998 158.4,176.8 158.0,174.0 157.6,171.07999999999998 157.2,168.04000000000002 156.8,164.9 156.4,161.62 156.0,158.22 155.6,154.70000000000002 155.2,151.04 154.8,147.24 154.4,143.28 154.0,139.2 153.6,134.94 153.2,130.51999999999998 152.8,125.92 152.4,121.16 152.0,116.19999999999999 151.6,111.06 151.2,105.72 150.8,100.18 150.4,94.41999999999999 150.0,88.46000000000001 149.6,82.24000000000001 149.2,75.8 148.8,69.10000000000001 148.4,62.16 148.0,54.94000000000001 147.6,52.499999999999986 147.2,59.80000000000001 146.8,66.84 146.4,73.61999999999999 146.0,80.13999999999999 145.6,86.42000000000002 145.2,92.48 144.8,98.30000000000001 144.4,103.91999999999999 144.0,109.32 143.6,114.53999999999999 143.2,119.53999999999999 142.8,124.36 142.4,129.02 142.0,133.5 141.6,137.79999999999998 141.2,141.96 140.8,145.96 140.4,149.8 140.0,153.50000000000003 139.6,157.07999999999998 139.2,160.52 138.8,163.82 138.4,167.01999999999998 138.0,170.08 137.6,173.04 137.2,175.88 136.8,178.64000000000001 136.4,181.28 136.0,183.82 135.6,186.26000000000002 135.2,188.62 134.8,190.9 134.4,193.08 134.0,195.18 133.6,197.22 133.2,199.16000000000003 132.8,201.04 132.4,202.85999999999999 132.0,204.6 131.6,206.28 131.2,207.9 130.8,209.45999999999998 130.4,210.95999999999998 130.0,212.4 129.6,213.8 129.2,215.14000000000001 128.8,216.42000000000002 128.4,217.66000000000003 128.0,218.86 127.6,220.02 127.2,221.12 126.8,222.2 126.4,223.22 126.0,224.22 125.6,225.16000000000003 125.2,226.07999999999998 124.8,226.98 124.4,227.82 124.0,228.64000000000001 123.6,229.44 123.2,230.2 122.8,230.94 122.4,231.64000000000001 122.0,232.31999999999996 121.6,232.98000000000002 121.2,233.6 120.80000000000001,234.2 120.4,234.8 120.0,235.35999999999999 119.6,235.9 119.2,236.42000000000002 118.80000000000001,236.92000000000002 118.4,237.4 118.0,237.88 117.6,238.32 117.19999999999999,238.76 116.8,239.18 116.4,239.57999999999998 116.0,239.95999999999998 115.6,240.32 115.19999999999999,240.68 114.8,241.04000000000002 114.4,241.35999999999999 114.0,241.68 113.6,242.0 113.19999999999999,242.28 112.8,242.57999999999998 112.4,242.83999999999997 112.0,243.12 111.6,243.35999999999999 111.19999999999999,243.61999999999998 110.8,243.86 110.4,244.08 110.0,244.3 109.6,244.52 109.19999999999999,244.72 108.8,244.9 108.4,245.1 108.0,245.28000000000003 107.6,245.45999999999998 107.19999999999999,245.62 106.8,245.78 106.4,245.94 106.0,246.1 105.6,246.23999999999998 105.19999999999999,246.38 104.8,246.52 104.4,246.64 104.0,246.76 103.6,246.88000000000002 103.2,247.0 102.8,247.12 102.4,247.22 102.0,247.32 101.6,247.42000000000002 101.2,247.52 100.8,247.62 100.4,247.7 100.0,247.78 99.6,247.85999999999999 99.2,247.94 98.8,248.02 98.4,248.1 98.0,248.16000000000003 97.6,248.23999999999998 97.2,248.3 96.8,248.36 96.4,248.42000000000002 96.0,248.48 95.6,248.54000000000002 95.2,248.6 94.80000000000001,248.64 94.4,248.7 94.0,248.74 93.6,248.8 93.2,248.83999999999997 92.80000000000001,248.88 92.4,248.92000000000002 92.0,248.96 91.6,249.0 91.2,249.04 90.80000000000001,249.07999999999998 90.4,249.1 90.0,249.14000000000001 89.6,249.18 89.2,249.2 88.80000000000001,249.23999999999998 88.4,249.26 88.0,249.3 87.6,249.32 87.2,249.34 86.80000000000001,249.36 86.4,249.4 86.0,249.42000000000002 85.6,249.43999999999997 85.2,249.45999999999998 84.80000000000001,249.48 84.4,249.5 84.0,249.52 83.6,249.54000000000002 83.19999999999999,249.56000000000003 82.8,249.56000000000003 82.4,249.57999999999998 82.0,249.6 81.6,249.62 81.19999999999999,249.64 80.8,249.64 80.4,249.66 80.0,249.68 79.6,249.68 79.19999999999999,249.7 78.8,249.7 78.4,249.72 78.0,249.74 77.6,249.74 77.2,249.76000000000002 76.8,249.76000000000002 76.4,249.76000000000002 76.0,249.78 75.6,249.78 75.2,249.8 74.8,249.8 74.4,249.82 74.0,249.82 73.6,249.82 73.2,249.83999999999997 72.8,249.83999999999997 72.4,249.83999999999997 72.0,249.85999999999999 71.6,249.85999999999999 71.2,249.85999999999999 70.80000000000001,249.85999999999999 70.4,249.88 70.0,249.88 69.6,249.88 69.2,249.88 68.80000000000001,249.9 68.4,249.9 68.0,249.9 67.6,249.9 67.2,249.9 66.80000000000001,249.92000000000002 66.4,249.92000000000002 66.0,249.92000000000002 65.6,249.92000000000002 65.2,249.92000000000002 64.80000000000001,249.92000000000002 64.4,249.94 64.0,249.94 63.599999999999994,249.94 63.199999999999996,249.94 62.8,249.94 62.4,249.94 62.0,249.94 61.599999999999994,249.96 61.199999999999996,249.96 60.8,249.96 60.4,249.96 60.0,249.96 59.599999999999994,249.96 59.199999999999996,249.96 58.8,249.96 58.4,249.96 58.0,249.96 57.6,249.96 57.199999999999996,249.98 56.8,249.98 56.4,249.98 56.0,249.98 55.6,249.98 55.199999999999996,249.98 54.8,249.98 54.4,249.98 54.0,249.98 53.6,249.98 53.2,249.98 52.8,249.98 52.4,249.98 52.0,249.98 51.6,249.98 51.2,249.98 50.8,249.98 50.4,249.98 50.0,249.98" style="fill:rgb(98.8%,55.3%,38.4%);fill-opacity:1.0;opacity:0.25;stroke:none" /></g><g class="toyplot-mark-Plot" id="t795fadc54b2c4450ada8d25a2d70fe71" style="fill:none;stroke-dasharray:6,3"><g class="toyplot-Series"><path d="M 50.0 210.0 L 50.4 210.0 L 50.8 210.0 L 51.2 210.0 L 51.6 210.0 L 52.0 210.0 L 52.4 210.0 L 52.8 210.0 L 53.2 210.0 L 53.6 210.0 L 54.0 210.0 L 54.4 210.0 L 54.8 210.0 L 55.199999999999996 210.0 L 55.6 210.0 L 56.0 210.0 L 56.4 210.0 L 56.8 210.0 L 57.199999999999996 210.0 L 57.6 210.0 L 58.0 210.0 L 58.4 210.0 L 58.8 210.0 L 59.199999999999996 210.0 L 59.599999999999994 210.0 L 60.0 210.0 L 60.4 210.0 L 60.8 210.0 L 61.199999999999996 210.0 L 61.599999999999994 210.0 L 62.0 210.0 L 62.4 210.0 L 62.8 210.0 L 63.199999999999996 210.0 L 63.599999999999994 210.0 L 64.0 210.0 L 64.4 210.0 L 64.80000000000001 210.0 L 65.2 210.0 L 65.6 210.0 L 66.0 210.0 L 66.4 210.0 L 66.80000000000001 210.0 L 67.2 210.0 L 67.6 210.0 L 68.0 210.0 L 68.4 210.0 L 68.80000000000001 210.0 L 69.2 210.0 L 69.6 210.0 L 70.0 210.0 L 70.4 210.0 L 70.80000000000001 210.0 L 71.2 210.0 L 71.6 210.0 L 72.0 210.0 L 72.4 210.0 L 72.8 210.0 L 73.2 210.0 L 73.6 210.0 L 74.0 210.0 L 74.4 210.0 L 74.8 210.0 L 75.2 210.0 L 75.6 210.0 L 76.0 210.0 L 76.4 210.0 L 76.8 210.0 L 77.2 210.0 L 77.6 210.0 L 78.0 210.0 L 78.4 210.0 L 78.8 210.0 L 79.19999999999999 210.0 L 79.6 210.0 L 80.0 210.0 L 80.4 210.0 L 80.8 210.0 L 81.19999999999999 210.0 L 81.6 210.0 L 82.0 210.0 L 82.4 210.0 L 82.8 210.0 L 83.19999999999999 210.0 L 83.6 210.0 L 84.0 210.0 L 84.4 210.0 L 84.80000000000001 210.0 L 85.2 210.0 L 85.6 210.0 L 86.0 210.0 L 86.4 210.0 L 86.80000000000001 210.0 L 87.2 210.0 L 87.6 210.0 L 88.0 210.0 L 88.4 210.0 L 88.80000000000001 210.0 L 89.2 210.0 L 89.6 210.0 L 90.0 210.0 L 90.4 210.0 L 90.80000000000001 210.0 L 91.2 210.0 L 91.6 210.0 L 92.0 210.0 L 92.4 210.0 L 92.80000000000001 210.0 L 93.2 210.0 L 93.6 210.0 L 94.0 210.0 L 94.4 210.0 L 94.80000000000001 210.0 L 95.2 210.0 L 95.6 210.0 L 96.0 210.0 L 96.4 210.0 L 96.8 210.0 L 97.2 210.0 L 97.6 210.0 L 98.0 210.0 L 98.4 210.0 L 98.8 210.0 L 99.2 210.0 L 99.6 210.0 L 100.0 210.0 L 100.4 210.0 L 100.8 210.0 L 101.2 210.0 L 101.6 210.0 L 102.0 210.0 L 102.4 210.0 L 102.8 210.0 L 103.2 210.0 L 103.6 210.0 L 104.0 210.0 L 104.4 210.0 L 104.8 210.0 L 105.19999999999999 210.0 L 105.6 210.0 L 106.0 210.0 L 106.4 210.0 L 106.8 210.0 L 107.19999999999999 210.0 L 107.6 210.0 L 108.0 210.0 L 108.4 210.0 L 108.8 210.0 L 109.19999999999999 210.0 L 109.6 210.0 L 110.0 210.0 L 110.4 210.0 L 110.8 210.0 L 111.19999999999999 210.0 L 111.6 210.0 L 112.0 210.0 L 112.4 210.0 L 112.8 210.0 L 113.19999999999999 210.0 L 113.6 210.0 L 114.0 210.0 L 114.4 210.0 L 114.8 210.0 L 115.19999999999999 210.0 L 115.6 210.0 L 116.0 210.0 L 116.4 210.0 L 116.8 210.0 L 117.19999999999999 210.0 L 117.6 210.0 L 118.0 210.0 L 118.4 210.0 L 118.80000000000001 210.0 L 119.2 210.0 L 119.6 210.0 L 120.0 210.0 L 120.4 210.0 L 120.80000000000001 210.0 L 121.2 210.0 L 121.6 210.0 L 122.0 210.0 L 122.4 210.0 L 122.8 210.0 L 123.2 210.0 L 123.6 210.0 L 124.0 210.0 L 124.4 210.0 L 124.8 210.0 L 125.2 210.0 L 125.6 210.0 L 126.0 210.0 L 126.4 210.0 L 126.8 210.0 L 127.2 210.0 L 127.6 210.0 L 128.0 210.0 L 128.4 210.0 L 128.8 210.0 L 129.2 210.0 L 129.6 210.0 L 130.0 210.0 L 130.4 210.0 L 130.8 210.0 L 131.2 210.0 L 131.6 210.0 L 132.0 210.0 L 132.4 210.0 L 132.8 210.0 L 133.2 210.0 L 133.6 210.0 L 134.0 210.0 L 134.4 210.0 L 134.8 210.0 L 135.2 210.0 L 135.6 210.0 L 136.0 210.0 L 136.4 210.0 L 136.8 210.0 L 137.2 210.0 L 137.6 210.0 L 138.0 210.0 L 138.4 210.0 L 138.8 210.0 L 139.2 210.0 L 139.6 210.0 L 140.0 210.0 L 140.4 210.0 L 140.8 210.0 L 141.2 210.0 L 141.6 210.0 L 142.0 210.0 L 142.4 210.0 L 142.8 210.0 L 143.2 210.0 L 143.6 210.0 L 144.0 210.0 L 144.4 210.0 L 144.8 210.0 L 145.2 210.0 L 145.6 210.0 L 146.0 210.0 L 146.4 210.0 L 146.8 210.0 L 147.2 210.0 L 147.6 210.0 L 148.0 210.0 L 148.4 210.0 L 148.8 210.0 L 149.2 210.0 L 149.6 210.0 L 150.0 210.0 L 150.4 210.0 L 150.8 210.0 L 151.2 210.0 L 151.6 210.0 L 152.0 210.0 L 152.4 210.0 L 152.8 210.0 L 153.2 210.0 L 153.6 210.0 L 154.0 210.0 L 154.4 210.0 L 154.8 210.0 L 155.2 210.0 L 155.6 210.0 L 156.0 210.0 L 156.4 210.0 L 156.8 210.0 L 157.2 210.0 L 157.6 210.0 L 158.0 210.0 L 158.4 210.0 L 158.8 210.0 L 159.2 210.0 L 159.6 210.0 L 160.0 210.0 L 160.4 210.0 L 160.8 210.0 L 161.2 210.0 L 161.6 210.0 L 162.0 210.0 L 162.4 210.0 L 162.8 210.0 L 163.2 210.0 L 163.6 210.0 L 164.0 210.0 L 164.4 210.0 L 164.8 210.0 L 165.2 210.0 L 165.6 210.0 L 166.0 210.0 L 166.4 210.0 L 166.8 210.0 L 167.2 210.0 L 167.6 210.0 L 168.0 210.0 L 168.4 210.0 L 168.8 210.0 L 169.2 210.0 L 169.6 210.0 L 170.0 210.0 L 170.4 210.0 L 170.8 210.0 L 171.2 210.0 L 171.6 210.0 L 172.0 210.0 L 172.4 210.0 L 172.8 210.0 L 173.2 210.0 L 173.6 210.0 L 174.0 210.0 L 174.4 210.0 L 174.8 210.0 L 175.2 210.0 L 175.6 210.0 L 176.0 210.0 L 176.4 210.0 L 176.8 210.0 L 177.2 210.0 L 177.6 210.0 L 178.0 210.0 L 178.4 210.0 L 178.8 210.0 L 179.2 210.0 L 179.6 210.0 L 180.0 210.0 L 180.4 210.0 L 180.8 210.0 L 181.2 210.0 L 181.6 210.0 L 182.0 210.0 L 182.4 210.0 L 182.8 210.0 L 183.2 210.0 L 183.6 210.0 L 184.0 210.0 L 184.4 210.0 L 184.8 210.0 L 185.2 210.0 L 185.6 210.0 L 186.0 210.0 L 186.4 210.0 L 186.8 210.0 L 187.2 210.0 L 187.6 210.0 L 188.0 210.0 L 188.4 210.0 L 188.8 210.0 L 189.2 210.0 L 189.6 210.0 L 190.0 210.0 L 190.4 210.0 L 190.8 210.0 L 191.2 210.0 L 191.6 210.0 L 192.0 210.0 L 192.4 210.0 L 192.8 210.0 L 193.2 210.0 L 193.6 210.0 L 194.0 210.0 L 194.4 210.0 L 194.8 210.0 L 195.2 210.0 L 195.6 210.0 L 196.0 210.0 L 196.4 210.0 L 196.8 210.0 L 197.2 210.0 L 197.6 210.0 L 198.0 210.0 L 198.4 210.0 L 198.8 210.0 L 199.2 210.0 L 199.6 210.0 L 200.0 210.0 L 200.4 210.0 L 200.8 210.0 L 201.2 210.0 L 201.6 210.0 L 202.0 210.0 L 202.4 210.0 L 202.8 210.0 L 203.2 210.0 L 203.6 210.0 L 204.0 210.0 L 204.4 210.0 L 204.8 210.0 L 205.2 210.0 L 205.6 210.0 L 206.0 210.0 L 206.4 210.0 L 206.8 210.0 L 207.2 210.0 L 207.6 210.0 L 208.0 210.0 L 208.4 210.0 L 208.8 210.0 L 209.2 210.0 L 209.6 210.0 L 210.0 210.0 L 210.4 210.0 L 210.8 210.0 L 211.2 210.0 L 211.6 210.0 L 212.0 210.0 L 212.4 210.0 L 212.8 210.0 L 213.2 210.0 L 213.6 210.0 L 214.0 210.0 L 214.4 210.0 L 214.8 210.0 L 215.2 210.0 L 215.6 210.0 L 216.0 210.0 L 216.4 210.0 L 216.8 210.0 L 217.2 210.0 L 217.6 210.0 L 218.0 210.0 L 218.4 210.0 L 218.8 210.0 L 219.2 210.0 L 219.6 210.0 L 220.0 210.0 L 220.4 210.0 L 220.8 210.0 L 221.2 210.0 L 221.6 210.0 L 222.0 210.0 L 222.4 210.0 L 222.8 210.0 L 223.2 210.0 L 223.6 210.0 L 224.0 210.0 L 224.4 210.0 L 224.8 210.0 L 225.2 210.0 L 225.6 210.0 L 226.0 210.0 L 226.4 210.0 L 226.8 210.0 L 227.2 210.0 L 227.6 210.0 L 228.0 210.0 L 228.4 210.0 L 228.8 210.0 L 229.2 210.0 L 229.6 210.0 L 230.0 210.0 L 230.4 210.0 L 230.8 210.0 L 231.2 210.0 L 231.6 210.0 L 232.0 210.0 L 232.4 210.0 L 232.8 210.0 L 233.2 210.0 L 233.6 210.0 L 234.0 210.0 L 234.4 210.0 L 234.8 210.0 L 235.2 210.0 L 235.6 210.0 L 236.0 210.0 L 236.4 210.0 L 236.8 210.0 L 237.2 210.0 L 237.6 210.0 L 238.0 210.0 L 238.4 210.0 L 238.8 210.0 L 239.2 210.0 L 239.6 210.0 L 240.0 210.0 L 240.4 210.0 L 240.8 210.0 L 241.2 210.0 L 241.6 210.0 L 242.0 210.0 L 242.4 210.0 L 242.8 210.0 L 243.2 210.0 L 243.6 210.0 L 244.0 210.0 L 244.4 210.0 L 244.8 210.0 L 245.2 210.0" style="stroke:rgb(40%,76.1%,64.7%);stroke-dasharray:6,3;stroke-opacity:1.0;stroke-width:5.0" /></g></g><g class="toyplot-mark-FillBoundaries" id="taeb2c2d9b15241008fe95994ea7b5218" style="stroke:none"><polygon points="50.0,250.0 50.4,250.0 50.8,250.0 51.2,250.0 51.6,250.0 52.0,250.0 52.4,250.0 52.8,250.0 53.2,250.0 53.6,250.0 54.0,250.0 54.4,250.0 54.8,250.0 55.199999999999996,250.0 55.6,250.0 56.0,250.0 56.4,250.0 56.8,250.0 57.199999999999996,250.0 57.6,250.0 58.0,250.0 58.4,250.0 58.8,250.0 59.199999999999996,250.0 59.599999999999994,250.0 60.0,250.0 60.4,250.0 60.8,250.0 61.199999999999996,250.0 61.599999999999994,250.0 62.0,250.0 62.4,250.0 62.8,250.0 63.199999999999996,250.0 63.599999999999994,250.0 64.0,250.0 64.4,250.0 64.80000000000001,250.0 65.2,250.0 65.6,250.0 66.0,250.0 66.4,250.0 66.80000000000001,250.0 67.2,250.0 67.6,250.0 68.0,250.0 68.4,250.0 68.80000000000001,250.0 69.2,250.0 69.6,250.0 70.0,250.0 70.4,250.0 70.80000000000001,250.0 71.2,250.0 71.6,250.0 72.0,250.0 72.4,250.0 72.8,250.0 73.2,250.0 73.6,250.0 74.0,250.0 74.4,250.0 74.8,250.0 75.2,250.0 75.6,250.0 76.0,250.0 76.4,250.0 76.8,250.0 77.2,250.0 77.6,250.0 78.0,250.0 78.4,250.0 78.8,250.0 79.19999999999999,250.0 79.6,250.0 80.0,250.0 80.4,250.0 80.8,250.0 81.19999999999999,250.0 81.6,250.0 82.0,250.0 82.4,250.0 82.8,250.0 83.19999999999999,250.0 83.6,250.0 84.0,250.0 84.4,250.0 84.80000000000001,250.0 85.2,250.0 85.6,250.0 86.0,250.0 86.4,250.0 86.80000000000001,250.0 87.2,250.0 87.6,250.0 88.0,250.0 88.4,250.0 88.80000000000001,250.0 89.2,250.0 89.6,250.0 90.0,250.0 90.4,250.0 90.80000000000001,250.0 91.2,250.0 91.6,250.0 92.0,250.0 92.4,250.0 92.80000000000001,250.0 93.2,250.0 93.6,250.0 94.0,250.0 94.4,250.0 94.80000000000001,250.0 95.2,250.0 95.6,250.0 96.0,250.0 96.4,250.0 96.8,250.0 97.2,250.0 97.6,250.0 98.0,250.0 98.4,250.0 98.8,250.0 99.2,250.0 99.6,250.0 100.0,250.0 100.4,250.0 100.8,250.0 101.2,250.0 101.6,250.0 102.0,250.0 102.4,250.0 102.8,250.0 103.2,250.0 103.6,250.0 104.0,250.0 104.4,250.0 104.8,250.0 105.19999999999999,250.0 105.6,250.0 106.0,250.0 106.4,250.0 106.8,250.0 107.19999999999999,250.0 107.6,250.0 108.0,250.0 108.4,250.0 108.8,250.0 109.19999999999999,250.0 109.6,250.0 110.0,250.0 110.4,250.0 110.8,250.0 111.19999999999999,250.0 111.6,250.0 112.0,250.0 112.4,250.0 112.8,250.0 113.19999999999999,250.0 113.6,250.0 114.0,250.0 114.4,250.0 114.8,250.0 115.19999999999999,250.0 115.6,250.0 116.0,250.0 116.4,250.0 116.8,250.0 117.19999999999999,250.0 117.6,250.0 118.0,250.0 118.4,250.0 118.80000000000001,250.0 119.2,250.0 119.6,250.0 120.0,250.0 120.4,250.0 120.80000000000001,250.0 121.2,250.0 121.6,250.0 122.0,250.0 122.4,250.0 122.8,250.0 123.2,250.0 123.6,250.0 124.0,250.0 124.4,250.0 124.8,250.0 125.2,250.0 125.6,250.0 126.0,250.0 126.4,250.0 126.8,250.0 127.2,250.0 127.6,250.0 128.0,250.0 128.4,250.0 128.8,250.0 129.2,250.0 129.6,250.0 130.0,250.0 130.4,250.0 130.8,250.0 131.2,250.0 131.6,250.0 132.0,250.0 132.4,250.0 132.8,250.0 133.2,250.0 133.6,250.0 134.0,250.0 134.4,250.0 134.8,250.0 135.2,250.0 135.6,250.0 136.0,250.0 136.4,250.0 136.8,250.0 137.2,250.0 137.6,250.0 138.0,250.0 138.4,250.0 138.8,250.0 139.2,250.0 139.6,250.0 140.0,250.0 140.4,250.0 140.8,250.0 141.2,250.0 141.6,250.0 142.0,250.0 142.4,250.0 142.8,250.0 143.2,250.0 143.6,250.0 144.0,250.0 144.4,250.0 144.8,250.0 145.2,250.0 145.6,250.0 146.0,250.0 146.4,250.0 146.8,250.0 147.2,250.0 147.6,250.0 148.0,250.0 148.4,250.0 148.8,250.0 149.2,250.0 149.6,250.0 150.0,250.0 150.4,250.0 150.8,250.0 151.2,250.0 151.6,250.0 152.0,250.0 152.4,250.0 152.8,250.0 153.2,250.0 153.6,250.0 154.0,250.0 154.4,250.0 154.8,250.0 155.2,250.0 155.6,250.0 156.0,250.0 156.4,250.0 156.8,250.0 157.2,250.0 157.6,250.0 158.0,250.0 158.4,250.0 158.8,250.0 159.2,250.0 159.6,250.0 160.0,250.0 160.4,250.0 160.8,250.0 161.2,250.0 161.6,250.0 162.0,250.0 162.4,250.0 162.8,250.0 163.2,250.0 163.6,250.0 164.0,250.0 164.4,250.0 164.8,250.0 165.2,250.0 165.6,250.0 166.0,250.0 166.4,250.0 166.8,250.0 167.2,250.0 167.6,250.0 168.0,250.0 168.4,250.0 168.8,250.0 169.2,250.0 169.6,250.0 170.0,250.0 170.4,250.0 170.8,250.0 171.2,250.0 171.6,250.0 172.0,250.0 172.4,250.0 172.8,250.0 173.2,250.0 173.6,250.0 174.0,250.0 174.4,250.0 174.8,250.0 175.2,250.0 175.6,250.0 176.0,250.0 176.4,250.0 176.8,250.0 177.2,250.0 177.6,250.0 178.0,250.0 178.4,250.0 178.8,250.0 179.2,250.0 179.6,250.0 180.0,250.0 180.4,250.0 180.8,250.0 181.2,250.0 181.6,250.0 182.0,250.0 182.4,250.0 182.8,250.0 183.2,250.0 183.6,250.0 184.0,250.0 184.4,250.0 184.8,250.0 185.2,250.0 185.6,250.0 186.0,250.0 186.4,250.0 186.8,250.0 187.2,250.0 187.6,250.0 188.0,250.0 188.4,250.0 188.8,250.0 189.2,250.0 189.6,250.0 190.0,250.0 190.4,250.0 190.8,250.0 191.2,250.0 191.6,250.0 192.0,250.0 192.4,250.0 192.8,250.0 193.2,250.0 193.6,250.0 194.0,250.0 194.4,250.0 194.8,250.0 195.2,250.0 195.6,250.0 196.0,250.0 196.4,250.0 196.8,250.0 197.2,250.0 197.6,250.0 198.0,250.0 198.4,250.0 198.8,250.0 199.2,250.0 199.6,250.0 200.0,250.0 200.4,250.0 200.8,250.0 201.2,250.0 201.6,250.0 202.0,250.0 202.4,250.0 202.8,250.0 203.2,250.0 203.6,250.0 204.0,250.0 204.4,250.0 204.8,250.0 205.2,250.0 205.6,250.0 206.0,250.0 206.4,250.0 206.8,250.0 207.2,250.0 207.6,250.0 208.0,250.0 208.4,250.0 208.8,250.0 209.2,250.0 209.6,250.0 210.0,250.0 210.4,250.0 210.8,250.0 211.2,250.0 211.6,250.0 212.0,250.0 212.4,250.0 212.8,250.0 213.2,250.0 213.6,250.0 214.0,250.0 214.4,250.0 214.8,250.0 215.2,250.0 215.6,250.0 216.0,250.0 216.4,250.0 216.8,250.0 217.2,250.0 217.6,250.0 218.0,250.0 218.4,250.0 218.8,250.0 219.2,250.0 219.6,250.0 220.0,250.0 220.4,250.0 220.8,250.0 221.2,250.0 221.6,250.0 222.0,250.0 222.4,250.0 222.8,250.0 223.2,250.0 223.6,250.0 224.0,250.0 224.4,250.0 224.8,250.0 225.2,250.0 225.6,250.0 226.0,250.0 226.4,250.0 226.8,250.0 227.2,250.0 227.6,250.0 228.0,250.0 228.4,250.0 228.8,250.0 229.2,250.0 229.6,250.0 230.0,250.0 230.4,250.0 230.8,250.0 231.2,250.0 231.6,250.0 232.0,250.0 232.4,250.0 232.8,250.0 233.2,250.0 233.6,250.0 234.0,250.0 234.4,250.0 234.8,250.0 235.2,250.0 235.6,250.0 236.0,250.0 236.4,250.0 236.8,250.0 237.2,250.0 237.6,250.0 238.0,250.0 238.4,250.0 238.8,250.0 239.2,250.0 239.6,250.0 240.0,250.0 240.4,250.0 240.8,250.0 241.2,250.0 241.6,250.0 242.0,250.0 242.4,250.0 242.8,250.0 243.2,250.0 243.6,250.0 244.0,250.0 244.4,250.0 244.8,250.0 245.2,250.0 245.2,210.0 244.8,210.0 244.4,210.0 244.0,210.0 243.6,210.0 243.2,210.0 242.8,210.0 242.4,210.0 242.0,210.0 241.6,210.0 241.2,210.0 240.8,210.0 240.4,210.0 240.0,210.0 239.6,210.0 239.2,210.0 238.8,210.0 238.4,210.0 238.0,210.0 237.6,210.0 237.2,210.0 236.8,210.0 236.4,210.0 236.0,210.0 235.6,210.0 235.2,210.0 234.8,210.0 234.4,210.0 234.0,210.0 233.6,210.0 233.2,210.0 232.8,210.0 232.4,210.0 232.0,210.0 231.6,210.0 231.2,210.0 230.8,210.0 230.4,210.0 230.0,210.0 229.6,210.0 229.2,210.0 228.8,210.0 228.4,210.0 228.0,210.0 227.6,210.0 227.2,210.0 226.8,210.0 226.4,210.0 226.0,210.0 225.6,210.0 225.2,210.0 224.8,210.0 224.4,210.0 224.0,210.0 223.6,210.0 223.2,210.0 222.8,210.0 222.4,210.0 222.0,210.0 221.6,210.0 221.2,210.0 220.8,210.0 220.4,210.0 220.0,210.0 219.6,210.0 219.2,210.0 218.8,210.0 218.4,210.0 218.0,210.0 217.6,210.0 217.2,210.0 216.8,210.0 216.4,210.0 216.0,210.0 215.6,210.0 215.2,210.0 214.8,210.0 214.4,210.0 214.0,210.0 213.6,210.0 213.2,210.0 212.8,210.0 212.4,210.0 212.0,210.0 211.6,210.0 211.2,210.0 210.8,210.0 210.4,210.0 210.0,210.0 209.6,210.0 209.2,210.0 208.8,210.0 208.4,210.0 208.0,210.0 207.6,210.0 207.2,210.0 206.8,210.0 206.4,210.0 206.0,210.0 205.6,210.0 205.2,210.0 204.8,210.0 204.4,210.0 204.0,210.0 203.6,210.0 203.2,210.0 202.8,210.0 202.4,210.0 202.0,210.0 201.6,210.0 201.2,210.0 200.8,210.0 200.4,210.0 200.0,210.0 199.6,210.0 199.2,210.0 198.8,210.0 198.4,210.0 198.0,210.0 197.6,210.0 197.2,210.0 196.8,210.0 196.4,210.0 196.0,210.0 195.6,210.0 195.2,210.0 194.8,210.0 194.4,210.0 194.0,210.0 193.6,210.0 193.2,210.0 192.8,210.0 192.4,210.0 192.0,210.0 191.6,210.0 191.2,210.0 190.8,210.0 190.4,210.0 190.0,210.0 189.6,210.0 189.2,210.0 188.8,210.0 188.4,210.0 188.0,210.0 187.6,210.0 187.2,210.0 186.8,210.0 186.4,210.0 186.0,210.0 185.6,210.0 185.2,210.0 184.8,210.0 184.4,210.0 184.0,210.0 183.6,210.0 183.2,210.0 182.8,210.0 182.4,210.0 182.0,210.0 181.6,210.0 181.2,210.0 180.8,210.0 180.4,210.0 180.0,210.0 179.6,210.0 179.2,210.0 178.8,210.0 178.4,210.0 178.0,210.0 177.6,210.0 177.2,210.0 176.8,210.0 176.4,210.0 176.0,210.0 175.6,210.0 175.2,210.0 174.8,210.0 174.4,210.0 174.0,210.0 173.6,210.0 173.2,210.0 172.8,210.0 172.4,210.0 172.0,210.0 171.6,210.0 171.2,210.0 170.8,210.0 170.4,210.0 170.0,210.0 169.6,210.0 169.2,210.0 168.8,210.0 168.4,210.0 168.0,210.0 167.6,210.0 167.2,210.0 166.8,210.0 166.4,210.0 166.0,210.0 165.6,210.0 165.2,210.0 164.8,210.0 164.4,210.0 164.0,210.0 163.6,210.0 163.2,210.0 162.8,210.0 162.4,210.0 162.0,210.0 161.6,210.0 161.2,210.0 160.8,210.0 160.4,210.0 160.0,210.0 159.6,210.0 159.2,210.0 158.8,210.0 158.4,210.0 158.0,210.0 157.6,210.0 157.2,210.0 156.8,210.0 156.4,210.0 156.0,210.0 155.6,210.0 155.2,210.0 154.8,210.0 154.4,210.0 154.0,210.0 153.6,210.0 153.2,210.0 152.8,210.0 152.4,210.0 152.0,210.0 151.6,210.0 151.2,210.0 150.8,210.0 150.4,210.0 150.0,210.0 149.6,210.0 149.2,210.0 148.8,210.0 148.4,210.0 148.0,210.0 147.6,210.0 147.2,210.0 146.8,210.0 146.4,210.0 146.0,210.0 145.6,210.0 145.2,210.0 144.8,210.0 144.4,210.0 144.0,210.0 143.6,210.0 143.2,210.0 142.8,210.0 142.4,210.0 142.0,210.0 141.6,210.0 141.2,210.0 140.8,210.0 140.4,210.0 140.0,210.0 139.6,210.0 139.2,210.0 138.8,210.0 138.4,210.0 138.0,210.0 137.6,210.0 137.2,210.0 136.8,210.0 136.4,210.0 136.0,210.0 135.6,210.0 135.2,210.0 134.8,210.0 134.4,210.0 134.0,210.0 133.6,210.0 133.2,210.0 132.8,210.0 132.4,210.0 132.0,210.0 131.6,210.0 131.2,210.0 130.8,210.0 130.4,210.0 130.0,210.0 129.6,210.0 129.2,210.0 128.8,210.0 128.4,210.0 128.0,210.0 127.6,210.0 127.2,210.0 126.8,210.0 126.4,210.0 126.0,210.0 125.6,210.0 125.2,210.0 124.8,210.0 124.4,210.0 124.0,210.0 123.6,210.0 123.2,210.0 122.8,210.0 122.4,210.0 122.0,210.0 121.6,210.0 121.2,210.0 120.80000000000001,210.0 120.4,210.0 120.0,210.0 119.6,210.0 119.2,210.0 118.80000000000001,210.0 118.4,210.0 118.0,210.0 117.6,210.0 117.19999999999999,210.0 116.8,210.0 116.4,210.0 116.0,210.0 115.6,210.0 115.19999999999999,210.0 114.8,210.0 114.4,210.0 114.0,210.0 113.6,210.0 113.19999999999999,210.0 112.8,210.0 112.4,210.0 112.0,210.0 111.6,210.0 111.19999999999999,210.0 110.8,210.0 110.4,210.0 110.0,210.0 109.6,210.0 109.19999999999999,210.0 108.8,210.0 108.4,210.0 108.0,210.0 107.6,210.0 107.19999999999999,210.0 106.8,210.0 106.4,210.0 106.0,210.0 105.6,210.0 105.19999999999999,210.0 104.8,210.0 104.4,210.0 104.0,210.0 103.6,210.0 103.2,210.0 102.8,210.0 102.4,210.0 102.0,210.0 101.6,210.0 101.2,210.0 100.8,210.0 100.4,210.0 100.0,210.0 99.6,210.0 99.2,210.0 98.8,210.0 98.4,210.0 98.0,210.0 97.6,210.0 97.2,210.0 96.8,210.0 96.4,210.0 96.0,210.0 95.6,210.0 95.2,210.0 94.80000000000001,210.0 94.4,210.0 94.0,210.0 93.6,210.0 93.2,210.0 92.80000000000001,210.0 92.4,210.0 92.0,210.0 91.6,210.0 91.2,210.0 90.80000000000001,210.0 90.4,210.0 90.0,210.0 89.6,210.0 89.2,210.0 88.80000000000001,210.0 88.4,210.0 88.0,210.0 87.6,210.0 87.2,210.0 86.80000000000001,210.0 86.4,210.0 86.0,210.0 85.6,210.0 85.2,210.0 84.80000000000001,210.0 84.4,210.0 84.0,210.0 83.6,210.0 83.19999999999999,210.0 82.8,210.0 82.4,210.0 82.0,210.0 81.6,210.0 81.19999999999999,210.0 80.8,210.0 80.4,210.0 80.0,210.0 79.6,210.0 79.19999999999999,210.0 78.8,210.0 78.4,210.0 78.0,210.0 77.6,210.0 77.2,210.0 76.8,210.0 76.4,210.0 76.0,210.0 75.6,210.0 75.2,210.0 74.8,210.0 74.4,210.0 74.0,210.0 73.6,210.0 73.2,210.0 72.8,210.0 72.4,210.0 72.0,210.0 71.6,210.0 71.2,210.0 70.80000000000001,210.0 70.4,210.0 70.0,210.0 69.6,210.0 69.2,210.0 68.80000000000001,210.0 68.4,210.0 68.0,210.0 67.6,210.0 67.2,210.0 66.80000000000001,210.0 66.4,210.0 66.0,210.0 65.6,210.0 65.2,210.0 64.80000000000001,210.0 64.4,210.0 64.0,210.0 63.599999999999994,210.0 63.199999999999996,210.0 62.8,210.0 62.4,210.0 62.0,210.0 61.599999999999994,210.0 61.199999999999996,210.0 60.8,210.0 60.4,210.0 60.0,210.0 59.599999999999994,210.0 59.199999999999996,210.0 58.8,210.0 58.4,210.0 58.0,210.0 57.6,210.0 57.199999999999996,210.0 56.8,210.0 56.4,210.0 56.0,210.0 55.6,210.0 55.199999999999996,210.0 54.8,210.0 54.4,210.0 54.0,210.0 53.6,210.0 53.2,210.0 52.8,210.0 52.4,210.0 52.0,210.0 51.6,210.0 51.2,210.0 50.8,210.0 50.4,210.0 50.0,210.0" style="fill:rgb(40%,76.1%,64.7%);fill-opacity:1.0;opacity:0.25;stroke:none" /></g></g><g class="toyplot-coordinates-Axis" id="tdde37c8678244341b1a6e047825157b3" transform="translate(50.0,250.0)translate(0,10.0)"><line style="" x1="0" x2="195.2" y1="0" y2="0" /><g><g transform="translate(0.0,6)"><text style="fill:rgb(16.1%,15.3%,14.1%);fill-opacity:1.0;font-family:helvetica;font-size:10.0px;font-weight:normal;stroke:none;vertical-align:baseline;white-space:pre" x="-2.78" y="8.555">0</text></g><g transform="translate(40.0,6)"><text style="fill:rgb(16.1%,15.3%,14.1%);fill-opacity:1.0;font-family:helvetica;font-size:10.0px;font-weight:normal;stroke:none;vertical-align:baseline;white-space:pre" x="-13.9" y="8.555">10000</text></g><g transform="translate(80.0,6)"><text style="fill:rgb(16.1%,15.3%,14.1%);fill-opacity:1.0;font-family:helvetica;font-size:10.0px;font-weight:normal;stroke:none;vertical-align:baseline;white-space:pre" x="-13.9" y="8.555">20000</text></g><g transform="translate(120.0,6)"><text style="fill:rgb(16.1%,15.3%,14.1%);fill-opacity:1.0;font-family:helvetica;font-size:10.0px;font-weight:normal;stroke:none;vertical-align:baseline;white-space:pre" x="-13.9" y="8.555">30000</text></g><g transform="translate(160.0,6)"><text style="fill:rgb(16.1%,15.3%,14.1%);fill-opacity:1.0;font-family:helvetica;font-size:10.0px;font-weight:normal;stroke:none;vertical-align:baseline;white-space:pre" x="-13.9" y="8.555">40000</text></g><g transform="translate(200.0,6)"><text style="fill:rgb(16.1%,15.3%,14.1%);fill-opacity:1.0;font-family:helvetica;font-size:10.0px;font-weight:normal;stroke:none;vertical-align:baseline;white-space:pre" x="-13.9" y="8.555">50000</text></g></g><g class="toyplot-coordinates-Axis-coordinates" style="visibility:hidden" transform=""><line style="stroke:rgb(43.9%,50.2%,56.5%);stroke-opacity:1.0;stroke-width:1.0" x1="0" x2="0" y1="-3.0" y2="4.5" /><text style="alignment-baseline:alphabetic;fill:rgb(43.9%,50.2%,56.5%);fill-opacity:1.0;font-size:10px;font-weight:normal;stroke:none;text-anchor:middle" x="0" y="-6" /></g></g><g class="toyplot-coordinates-Axis" id="te049f04176fe4e2aa9d20e379f092723" transform="translate(50.0,250.0)rotate(-90.0)translate(0,-10.0)"><line style="" x1="0" x2="197.5" y1="0" y2="0" /><g><g transform="translate(0.0,-6)"><text style="fill:rgb(16.1%,15.3%,14.1%);fill-opacity:1.0;font-family:helvetica;font-size:10.0px;font-weight:normal;stroke:none;vertical-align:baseline;white-space:pre" x="-2.78" y="-4.440892098500626e-16">0</text></g><g transform="translate(100.0,-6)"><text style="fill:rgb(16.1%,15.3%,14.1%);fill-opacity:1.0;font-family:helvetica;font-size:10.0px;font-weight:normal;stroke:none;vertical-align:baseline;white-space:pre" x="-11.12" y="-4.440892098500626e-16">5000</text></g><g transform="translate(200.0,-6)"><text style="fill:rgb(16.1%,15.3%,14.1%);fill-opacity:1.0;font-family:helvetica;font-size:10.0px;font-weight:normal;stroke:none;vertical-align:baseline;white-space:pre" x="-13.9" y="-4.440892098500626e-16">10000</text></g></g><g class="toyplot-coordinates-Axis-coordinates" style="visibility:hidden" transform=""><line style="stroke:rgb(43.9%,50.2%,56.5%);stroke-opacity:1.0;stroke-width:1.0" x1="0" x2="0" y1="3.0" y2="-4.5" /><text style="alignment-baseline:hanging;fill:rgb(43.9%,50.2%,56.5%);fill-opacity:1.0;font-size:10px;font-weight:normal;stroke:none;text-anchor:middle" x="0" y="6" /></g></g></g></svg>