<svg class="toyplot-canvas-Canvas" height="300.0px" id="t97516506b7db4467a4fe54c7e1a3e000" preserveAspectRatio="xMidYMid meet" style="background-color:transparent;border-color:#292724;border-style:none;border-width:1.0;fill:rgb(16.1%,15.3%,14.1%);fill-opacity:1.0;font-family:Helvetica;font-size:12px;opacity:1.0;stroke:rgb(16.1%,15.3%,14.1%);stroke-opacity:1.0;stroke-width:1.0" viewBox="0 0 350.0 300.0" width="350.0px" xmlns="http://www.w3.org/2000/svg" xmlns:toyplot="http://www.sandia.gov/toyplot" xmlns:xlink="http://www.w3.org/1999/xlink"><g class="toyplot-coordinates-Cartesian" id="t19e7ff99debc4820936934fd26fc51ca"><clipPath id="t1e661aa4cad14382971e844074b7a810"><rect height="220.0" width="270.0" x="40.0" y="40.0" /></clipPath><g clip-path="url(#t1e661aa4cad14382971e844074b7a810)"><g class="toyplot-mark-Point" id="tb16cd59419e0400ab9bacfeb1f841491"><g class="toyplot-Series"><g class="toyplot-Datum" style="fill:rgb(40%,76.1%,64.7%);fill-opacity:1.0;opacity:0.7;stroke:rgb(40%,76.1%,64.7%);stroke-opacity:1.0" transform="translate(50.0005, 246.0720773895518)"><circle r="3.5" /></g><g class="toyplot-Datum" style="fill:rgb(40%,76.1%,64.7%);fill-opacity:1.0;opacity:0.7;stroke:rgb(40%,76.1%,64.7%);stroke-opacity:1.0" transform="translate(50.001, 246.03442914120512)"><circle r="3.5" /></g><g class="toyplot-Datum" style="fill:rgb(40%,76.1%,64.7%);fill-opacity:1.0;opacity:0.7;stroke:rgb(40%,76.1%,64.7%);stroke-opacity:1.0" transform="translate(50.001, 246.0582069822662)"><circle r="3.5" /></g><g class="toyplot-Datum" style="fill:rgb(40%,76.1%,64.7%);fill-opacity:1.0;opacity:0.7;stroke:rgb(40%,76.1%,64.7%);stroke-opacity:1.0" transform="translate(50.00150000000001, 246.01263278689913)"><circle r="3.5" /></g><g class="toyplot-Datum" style="fill:rgb(40%,76.1%,64.7%);fill-opacity:1.0;opacity:0.7;stroke:rgb(40%,76.1%,64.7%);stroke-opacity:1.0" transform="translate(50.002, 245.94328075047108)"><circle r="3.5" /></g><g class="toyplot-Datum" style="fill:rgb(40%,76.1%,64.7%);fill-opacity:1.0;opacity:0.7;stroke:rgb(40%,76.1%,64.7%);stroke-opacity:1.0" transform="translate(50.003, 245.92544736967525)"><circle r="3.5" /></g><g class="toyplot-Datum" style="fill:rgb(40%,76.1%,64.7%);fill-opacity:1.0;opacity:0.7;stroke:rgb(40%,76.1%,64.7%);stroke-opacity:1.0" transform="translate(50.004000000000005, 245.70946531337057)"><circle r="3.5" /></g><g class="toyplot-Datum" style="fill:rgb(40%,76.1%,64.7%);fill-opacity:1.0;opacity:0.7;stroke:rgb(40%,76.1%,64.7%);stroke-opacity:1.0" transform="translate(50.005, 245.62029840939155)"><circle r="3.5" /></g><g class="toyplot-Datum" style="fill:rgb(40%,76.1%,64.7%);fill-opacity:1.0;opacity:0.7;stroke:rgb(40%,76.1%,64.7%);stroke-opacity:1.0" transform="translate(50.0065, 245.28344566102646)"><circle r="3.5" /></g><g class="toyplot-Datum" style="fill:rgb(40%,76.1%,64.7%);fill-opacity:1.0;opacity:0.7;stroke:rgb(40%,76.1%,64.7%);stroke-opacity:1.0" transform="translate(50.0085, 245.0813340120074)"><circle r="3.5" /></g><g class="toyplot-Datum" style="fill:rgb(40%,76.1%,64.7%);fill-opacity:1.0;opacity:0.7;stroke:rgb(40%,76.1%,64.7%);stroke-opacity:1.0" transform="translate(50.011500000000005, 244.5998327305208)"><circle r="3.5" /></g><g class="toyplot-Datum" style="fill:rgb(40%,76.1%,64.7%);fill-opacity:1.0;opacity:0.7;stroke:rgb(40%,76.1%,64.7%);stroke-opacity:1.0" transform="translate(50.014500000000005, 244.93272250537572)"><circle r="3.5" /></g><g class="toyplot-Datum" style="fill:rgb(40%,76.1%,64.7%);fill-opacity:1.0;opacity:0.7;stroke:rgb(40%,76.1%,64.7%);stroke-opacity:1.0" transform="translate(50.019, 244.26892444242097)"><circle r="3.5" /></g><g class="toyplot-Datum" style="fill:rgb(40%,76.1%,64.7%);fill-opacity:1.0;opacity:0.7;stroke:rgb(40%,76.1%,64.7%);stroke-opacity:1.0" transform="translate(50.0245, 243.63088570728235)"><circle r="3.5" /></g><g class="toyplot-Datum" style="fill:rgb(40%,76.1%,64.7%);fill-opacity:1.0;opacity:0.7;stroke:rgb(40%,76.1%,64.7%);stroke-opacity:1.0" transform="translate(50.032000000000004, 242.42614176018833)"><circle r="3.5" /></g><g class="toyplot-Datum" style="fill:rgb(40%,76.1%,64.7%);fill-opacity:1.0;opacity:0.7;stroke:rgb(40%,76.1%,64.7%);stroke-opacity:1.0" transform="translate(50.041, 241.85547357472274)"><circle r="3.5" /></g><g class="toyplot-Datum" style="fill:rgb(40%,76.1%,64.7%);fill-opacity:1.0;opacity:0.7;stroke:rgb(40%,76.1%,64.7%);stroke-opacity:1.0" transform="translate(50.053000000000004, 241.10052712103388)"><circle r="3.5" /></g><g class="toyplot-Datum" style="fill:rgb(40%,76.1%,64.7%);fill-opacity:1.0;opacity:0.7;stroke:rgb(40%,76.1%,64.7%);stroke-opacity:1.0" transform="translate(50.068999999999996, 238.99816967388463)"><circle r="3.5" /></g><g class="toyplot-Datum" style="fill:rgb(40%,76.1%,64.7%);fill-opacity:1.0;opacity:0.7;stroke:rgb(40%,76.1%,64.7%);stroke-opacity:1.0" transform="translate(50.089, 236.65407084261452)"><circle r="3.5" /></g><g class="toyplot-Datum" style="fill:rgb(40%,76.1%,64.7%);fill-opacity:1.0;opacity:0.7;stroke:rgb(40%,76.1%,64.7%);stroke-opacity:1.0" transform="translate(50.114999999999995, 235.03321467695184)"><circle r="3.5" /></g><g class="toyplot-Datum" style="fill:rgb(40%,76.1%,64.7%);fill-opacity:1.0;opacity:0.7;stroke:rgb(40%,76.1%,64.7%);stroke-opacity:1.0" transform="translate(50.1485, 231.40313094162903)"><circle r="3.5" /></g><g class="toyplot-Datum" style="fill:rgb(40%,76.1%,64.7%);fill-opacity:1.0;opacity:0.7;stroke:rgb(40%,76.1%,64.7%);stroke-opacity:1.0" transform="translate(50.192, 227.20634199435088)"><circle r="3.5" /></g><g class="toyplot-Datum" style="fill:rgb(40%,76.1%,64.7%);fill-opacity:1.0;opacity:0.7;stroke:rgb(40%,76.1%,64.7%);stroke-opacity:1.0" transform="translate(50.2485, 222.07429129867074)"><circle r="3.5" /></g><g class="toyplot-Datum" style="fill:rgb(40%,76.1%,64.7%);fill-opacity:1.0;opacity:0.7;stroke:rgb(40%,76.1%,64.7%);stroke-opacity:1.0" transform="translate(50.321, 216.51225797713636)"><circle r="3.5" /></g><g class="toyplot-Datum" style="fill:rgb(40%,76.1%,64.7%);fill-opacity:1.0;opacity:0.7;stroke:rgb(40%,76.1%,64.7%);stroke-opacity:1.0" transform="translate(50.4145, 208.92316370514607)"><circle r="3.5" /></g><g class="toyplot-Datum" style="fill:rgb(40%,76.1%,64.7%);fill-opacity:1.0;opacity:0.7;stroke:rgb(40%,76.1%,64.7%);stroke-opacity:1.0" transform="translate(50.535500000000006, 199.49524972443334)"><circle r="3.5" /></g><g class="toyplot-Datum" style="fill:rgb(40%,76.1%,64.7%);fill-opacity:1.0;opacity:0.7;stroke:rgb(40%,76.1%,64.7%);stroke-opacity:1.0" transform="translate(50.692, 190.28728077353543)"><circle r="3.5" /></g><g class="toyplot-Datum" style="fill:rgb(40%,76.1%,64.7%);fill-opacity:1.0;opacity:0.7;stroke:rgb(40%,76.1%,64.7%);stroke-opacity:1.0" transform="translate(50.894, 179.5416781006886)"><circle r="3.5" /></g><g class="toyplot-Datum" style="fill:rgb(40%,76.1%,64.7%);fill-opacity:1.0;opacity:0.7;stroke:rgb(40%,76.1%,64.7%);stroke-opacity:1.0" transform="translate(51.15500000000001, 166.57879174889734)"><circle r="3.5" /></g><g class="toyplot-Datum" style="fill:rgb(40%,76.1%,64.7%);fill-opacity:1.0;opacity:0.7;stroke:rgb(40%,76.1%,64.7%);stroke-opacity:1.0" transform="translate(51.492, 151.51949241022209)"><circle r="3.5" /></g><g class="toyplot-Datum" style="fill:rgb(40%,76.1%,64.7%);fill-opacity:1.0;opacity:0.7;stroke:rgb(40%,76.1%,64.7%);stroke-opacity:1.0" transform="translate(51.9275, 138.14445681337236)"><circle r="3.5" /></g><g class="toyplot-Datum" style="fill:rgb(40%,76.1%,64.7%);fill-opacity:1.0;opacity:0.7;stroke:rgb(40%,76.1%,64.7%);stroke-opacity:1.0" transform="translate(52.49, 124.933884617195)"><circle r="3.5" /></g><g class="toyplot-Datum" style="fill:rgb(40%,76.1%,64.7%);fill-opacity:1.0;opacity:0.7;stroke:rgb(40%,76.1%,64.7%);stroke-opacity:1.0" transform="translate(53.217, 112.06809111640311)"><circle r="3.5" /></g><g class="toyplot-Datum" style="fill:rgb(40%,76.1%,64.7%);fill-opacity:1.0;opacity:0.7;stroke:rgb(40%,76.1%,64.7%);stroke-opacity:1.0" transform="translate(54.156000000000006, 101.57413726145256)"><circle r="3.5" /></g><g class="toyplot-Datum" style="fill:rgb(40%,76.1%,64.7%);fill-opacity:1.0;opacity:0.7;stroke:rgb(40%,76.1%,64.7%);stroke-opacity:1.0" transform="translate(55.3685, 90.93949784689067)"><circle r="3.5" /></g><g class="toyplot-Datum" style="fill:rgb(40%,76.1%,64.7%);fill-opacity:1.0;opacity:0.7;stroke:rgb(40%,76.1%,64.7%);stroke-opacity:1.0" transform="translate(56.9355, 82.61923496227261)"><circle r="3.5" /></g><g class="toyplot-Datum" style="fill:rgb(40%,76.1%,64.7%);fill-opacity:1.0;opacity:0.7;stroke:rgb(40%,76.1%,64.7%);stroke-opacity:1.0" transform="translate(58.959500000000006, 75.11534462075116)"><circle r="3.5" /></g><g class="toyplot-Datum" style="fill:rgb(40%,76.1%,64.7%);fill-opacity:1.0;opacity:0.7;stroke:rgb(40%,76.1%,64.7%);stroke-opacity:1.0" transform="translate(61.574, 69.5235889978904)"><circle r="3.5" /></g><g class="toyplot-Datum" style="fill:rgb(40%,76.1%,64.7%);fill-opacity:1.0;opacity:0.7;stroke:rgb(40%,76.1%,64.7%);stroke-opacity:1.0" transform="translate(64.952, 65.94898689171012)"><circle r="3.5" /></g><g class="toyplot-Datum" style="fill:rgb(40%,76.1%,64.7%);fill-opacity:1.0;opacity:0.7;stroke:rgb(40%,76.1%,64.7%);stroke-opacity:1.0" transform="translate(69.315, 63.50977669619573)"><circle r="3.5" /></g><g class="toyplot-Datum" style="fill:rgb(40%,76.1%,64.7%);fill-opacity:1.0;opacity:0.7;stroke:rgb(40%,76.1%,64.7%);stroke-opacity:1.0" transform="translate(74.952, 61.942420672920484)"><circle r="3.5" /></g><g class="toyplot-Datum" style="fill:rgb(40%,76.1%,64.7%);fill-opacity:1.0;opacity:0.7;stroke:rgb(40%,76.1%,64.7%);stroke-opacity:1.0" transform="translate(82.23349999999999, 60.62671346754145)"><circle r="3.5" /></g><g class="toyplot-Datum" style="fill:rgb(40%,76.1%,64.7%);fill-opacity:1.0;opacity:0.7;stroke:rgb(40%,76.1%,64.7%);stroke-opacity:1.0" transform="translate(91.64, 60.602935626480445)"><circle r="3.5" /></g><g class="toyplot-Datum" style="fill:rgb(40%,76.1%,64.7%);fill-opacity:1.0;opacity:0.7;stroke:rgb(40%,76.1%,64.7%);stroke-opacity:1.0" transform="translate(103.792, 59.540858725752784)"><circle r="3.5" /></g><g class="toyplot-Datum" style="fill:rgb(40%,76.1%,64.7%);fill-opacity:1.0;opacity:0.7;stroke:rgb(40%,76.1%,64.7%);stroke-opacity:1.0" transform="translate(119.49, 59.04548703698056)"><circle r="3.5" /></g><g class="toyplot-Datum" style="fill:rgb(40%,76.1%,64.7%);fill-opacity:1.0;opacity:0.7;stroke:rgb(40%,76.1%,64.7%);stroke-opacity:1.0" transform="translate(139.76850000000002, 59.25948760653017)"><circle r="3.5" /></g><g class="toyplot-Datum" style="fill:rgb(40%,76.1%,64.7%);fill-opacity:1.0;opacity:0.7;stroke:rgb(40%,76.1%,64.7%);stroke-opacity:1.0" transform="translate(165.96550000000002, 59.447728848263615)"><circle r="3.5" /></g><g class="toyplot-Datum" style="fill:rgb(40%,76.1%,64.7%);fill-opacity:1.0;opacity:0.7;stroke:rgb(40%,76.1%,64.7%);stroke-opacity:1.0" transform="translate(199.807, 59.406117626406754)"><circle r="3.5" /></g><g class="toyplot-Datum" style="fill:rgb(40%,76.1%,64.7%);fill-opacity:1.0;opacity:0.7;stroke:rgb(40%,76.1%,64.7%);stroke-opacity:1.0" transform="translate(243.5245, 59.22382084493856)"><circle r="3.5" /></g><g class="toyplot-Datum" style="fill:rgb(40%,76.1%,64.7%);fill-opacity:1.0;opacity:0.7;stroke:rgb(40%,76.1%,64.7%);stroke-opacity:1.0" transform="translate(299.9995, 58.86120876875731)"><circle r="3.5" /></g></g></g><g class="toyplot-mark-Plot" id="t0062eda6ba27419f8abe8e9ed9214737" style="fill:none;stroke-dasharray:0, 0"><g class="toyplot-Series"><path d="M 50.0005 246.0720773895518 L 50.001 246.03442914120512 L 50.001 246.0582069822662 L 50.00150000000001 246.01263278689913 L 50.002 245.94328075047108 L 50.003 245.92544736967525 L 50.004000000000005 245.70946531337057 L 50.005 245.62029840939155 L 50.0065 245.28344566102646 L 50.0085 245.0813340120074 L 50.011500000000005 244.5998327305208 L 50.014500000000005 244.93272250537572 L 50.019 244.26892444242097 L 50.0245 243.63088570728235 L 50.032000000000004 242.42614176018833 L 50.041 241.85547357472274 L 50.053000000000004 241.10052712103388 L 50.068999999999996 238.99816967388463 L 50.089 236.65407084261452 L 50.114999999999995 235.03321467695184 L 50.1485 231.40313094162903 L 50.192 227.20634199435088 L 50.2485 222.07429129867074 L 50.321 216.51225797713636 L 50.4145 208.92316370514607 L 50.535500000000006 199.49524972443334 L 50.692 190.28728077353543 L 50.894 179.5416781006886 L 51.15500000000001 166.57879174889734 L 51.492 151.51949241022209 L 51.9275 138.14445681337236 L 52.49 124.933884617195 L 53.217 112.06809111640311 L 54.156000000000006 101.57413726145256 L 55.3685 90.93949784689067 L 56.9355 82.61923496227261 L 58.959500000000006 75.11534462075116 L 61.574 69.5235889978904 L 64.952 65.94898689171012 L 69.315 63.50977669619573 L 74.952 61.942420672920484 L 82.23349999999999 60.62671346754145 L 91.64 60.602935626480445 L 103.792 59.540858725752784 L 119.49 59.04548703698056 L 139.76850000000002 59.25948760653017 L 165.96550000000002 59.447728848263615 L 199.807 59.406117626406754 L 243.5245 59.22382084493856 L 299.9995 58.86120876875731" style="stroke:rgb(40%,76.1%,64.7%);stroke-dasharray:0, 0;stroke-opacity:1.0;stroke-width:2.0" /></g></g><g class="toyplot-mark-FillBoundaries" id="tff36fdc996bc44c9b3fd7f5a6b174213" style="stroke:none"><polygon points="50.0005,247.39492720761018 50.001,247.32849473926424 50.001,247.4108166344542 50.00150000000001,247.80027650329862 50.002,247.70694978499085 50.003,247.44631558178347 50.004000000000005,248.2621547993794 50.005,248.29920987776174 50.0065,249.3254280338437 50.0085,249.2611421227404 50.011500000000005,250.0 50.014500000000005,249.27704850462914 50.019,249.33558103815918 50.0245,249.9937725910267 50.032000000000004,249.9546066158069 50.041,249.58759543198138 50.053000000000004,249.72779188719252 50.068999999999996,249.00655629562635 50.089,247.8334847789099 50.114999999999995,247.0596867310522 50.1485,245.77998816824294 50.192,242.98764182001156 50.2485,239.3380017880075 50.321,234.51031541723148 50.4145,228.64292785596376 50.535500000000006,220.16844242751137 50.692,212.39365843224462 50.894,201.2689874849611 51.15500000000001,187.82125801056367 51.492,172.2006754780461 51.9275,157.67409159729246 52.49,143.610121116978 53.217,127.41854303851002 54.156000000000006,114.9724484319934 55.3685,103.02722953350506 56.9355,92.86422207291687 58.959500000000006,83.868353500965 61.574,76.6242243212305 64.952,72.08411243994517 69.315,69.63153697449196 74.952,67.7147303434868 82.23349999999999,65.96836627010738 91.64,65.40361596476963 103.792,64.01602583476517 119.49,62.90189756983729 139.76850000000002,63.70529702905337 165.96550000000002,63.858117776801926 199.807,63.82042852905203 243.5245,63.17686209060174 299.9995,63.54323010702314 299.9995,54.17918743049148 243.5245,55.27077959927537 199.807,54.99180672376147 165.96550000000002,55.037339919725326 139.76850000000002,54.813678184007 119.49,55.18907650412381 103.792,55.06569161674038 91.64,55.80225528819127 82.23349999999999,55.28506066497549 74.952,56.17011100235418 69.315,57.3880164178995 64.952,59.81386134347504 61.574,62.422953674550286 58.959500000000006,66.36233574053729 56.9355,72.37424785162835 55.3685,78.85176616027627 54.156000000000006,88.1758260909117 53.217,96.71763919429621 52.49,106.25764811741203 51.9275,118.61482202945224 51.492,130.83830934239808 51.15500000000001,145.33632548723102 50.894,157.81436871641614 50.692,168.1809031148262 50.535500000000006,178.8220570213553 50.4145,189.2033995543284 50.321,198.51420053704123 50.2485,204.81058080933403 50.192,211.4250421686902 50.1485,217.02627371501518 50.114999999999995,223.0067426228515 50.089,225.47465690631913 50.068999999999996,228.9897830521429 50.053000000000004,232.47326235487523 50.041,234.12335171746412 50.032000000000004,234.89767690456975 50.0245,237.267998823538 50.019,239.20226784668276 50.014500000000005,240.5883965061223 50.011500000000005,239.1996654610416 50.0085,240.90152590127437 50.0065,241.2414632882092 50.005,242.9413869410214 50.004000000000005,243.15677582736174 50.003,244.40457915756704 50.002,244.17961171595124 50.00150000000001,244.2249890704997 50.001,244.7055973300782 50.001,244.740363543146 50.0005,244.74922757149346" style="fill:rgb(40%,76.1%,64.7%);fill-opacity:1.0;opacity:0.15;stroke:none" /></g><g class="toyplot-mark-Point" id="t73ad6de3c667420998c3cd6b83b7759e"><g class="toyplot-Series"><g class="toyplot-Datum" style="fill:rgb(98.8%,55.3%,38.4%);fill-opacity:1.0;opacity:0.7;stroke:rgb(98.8%,55.3%,38.4%);stroke-opacity:1.0" transform="translate(50.0005, 246.15331834651047)"><rect height="7.0" width="7.0" x="-3.5" y="-3.5" /></g><g class="toyplot-Datum" style="fill:rgb(98.8%,55.3%,38.4%);fill-opacity:1.0;opacity:0.7;stroke:rgb(98.8%,55.3%,38.4%);stroke-opacity:1.0" transform="translate(50.001, 246.16322578028593)"><rect height="7.0" width="7.0" x="-3.5" y="-3.5" /></g><g class="toyplot-Datum" style="fill:rgb(98.8%,55.3%,38.4%);fill-opacity:1.0;opacity:0.7;stroke:rgb(98.8%,55.3%,38.4%);stroke-opacity:1.0" transform="translate(50.001, 246.1612442935308)"><rect height="7.0" width="7.0" x="-3.5" y="-3.5" /></g><g class="toyplot-Datum" style="fill:rgb(98.8%,55.3%,38.4%);fill-opacity:1.0;opacity:0.7;stroke:rgb(98.8%,55.3%,38.4%);stroke-opacity:1.0" transform="translate(50.00150000000001, 246.15728132002064)"><rect height="7.0" width="7.0" x="-3.5" y="-3.5" /></g><g class="toyplot-Datum" style="fill:rgb(98.8%,55.3%,38.4%);fill-opacity:1.0;opacity:0.7;stroke:rgb(98.8%,55.3%,38.4%);stroke-opacity:1.0" transform="translate(50.002, 246.15926280677576)"><rect height="7.0" width="7.0" x="-3.5" y="-3.5" /></g><g class="toyplot-Datum" style="fill:rgb(98.8%,55.3%,38.4%);fill-opacity:1.0;opacity:0.7;stroke:rgb(98.8%,55.3%,38.4%);stroke-opacity:1.0" transform="translate(50.003, 246.1493553730003)"><rect height="7.0" width="7.0" x="-3.5" y="-3.5" /></g><g class="toyplot-Datum" style="fill:rgb(98.8%,55.3%,38.4%);fill-opacity:1.0;opacity:0.7;stroke:rgb(98.8%,55.3%,38.4%);stroke-opacity:1.0" transform="translate(50.004000000000005, 246.1414294259799)"><rect height="7.0" width="7.0" x="-3.5" y="-3.5" /></g><g class="toyplot-Datum" style="fill:rgb(98.8%,55.3%,38.4%);fill-opacity:1.0;opacity:0.7;stroke:rgb(98.8%,55.3%,38.4%);stroke-opacity:1.0" transform="translate(50.005, 246.12359604518412)"><rect height="7.0" width="7.0" x="-3.5" y="-3.5" /></g><g class="toyplot-Datum" style="fill:rgb(98.8%,55.3%,38.4%);fill-opacity:1.0;opacity:0.7;stroke:rgb(98.8%,55.3%,38.4%);stroke-opacity:1.0" transform="translate(50.0065, 246.1473738862452)"><rect height="7.0" width="7.0" x="-3.5" y="-3.5" /></g><g class="toyplot-Datum" style="fill:rgb(98.8%,55.3%,38.4%);fill-opacity:1.0;opacity:0.7;stroke:rgb(98.8%,55.3%,38.4%);stroke-opacity:1.0" transform="translate(50.0085, 246.1117071246536)"><rect height="7.0" width="7.0" x="-3.5" y="-3.5" /></g><g class="toyplot-Datum" style="fill:rgb(98.8%,55.3%,38.4%);fill-opacity:1.0;opacity:0.7;stroke:rgb(98.8%,55.3%,38.4%);stroke-opacity:1.0" transform="translate(50.011500000000005, 246.11765158491886)"><rect height="7.0" width="7.0" x="-3.5" y="-3.5" /></g><g class="toyplot-Datum" style="fill:rgb(98.8%,55.3%,38.4%);fill-opacity:1.0;opacity:0.7;stroke:rgb(98.8%,55.3%,38.4%);stroke-opacity:1.0" transform="translate(50.014500000000005, 246.0958552306129)"><rect height="7.0" width="7.0" x="-3.5" y="-3.5" /></g><g class="toyplot-Datum" style="fill:rgb(98.8%,55.3%,38.4%);fill-opacity:1.0;opacity:0.7;stroke:rgb(98.8%,55.3%,38.4%);stroke-opacity:1.0" transform="translate(50.019, 246.05424400875603)"><rect height="7.0" width="7.0" x="-3.5" y="-3.5" /></g><g class="toyplot-Datum" style="fill:rgb(98.8%,55.3%,38.4%);fill-opacity:1.0;opacity:0.7;stroke:rgb(98.8%,55.3%,38.4%);stroke-opacity:1.0" transform="translate(50.0245, 245.99281791934828)"><rect height="7.0" width="7.0" x="-3.5" y="-3.5" /></g><g class="toyplot-Datum" style="fill:rgb(98.8%,55.3%,38.4%);fill-opacity:1.0;opacity:0.7;stroke:rgb(98.8%,55.3%,38.4%);stroke-opacity:1.0" transform="translate(50.032000000000004, 245.9531881842465)"><rect height="7.0" width="7.0" x="-3.5" y="-3.5" /></g><g class="toyplot-Datum" style="fill:rgb(98.8%,55.3%,38.4%);fill-opacity:1.0;opacity:0.7;stroke:rgb(98.8%,55.3%,38.4%);stroke-opacity:1.0" transform="translate(50.041, 245.83231749218604)"><rect height="7.0" width="7.0" x="-3.5" y="-3.5" /></g><g class="toyplot-Datum" style="fill:rgb(98.8%,55.3%,38.4%);fill-opacity:1.0;opacity:0.7;stroke:rgb(98.8%,55.3%,38.4%);stroke-opacity:1.0" transform="translate(50.053000000000004, 245.74315058820704)"><rect height="7.0" width="7.0" x="-3.5" y="-3.5" /></g><g class="toyplot-Datum" style="fill:rgb(98.8%,55.3%,38.4%);fill-opacity:1.0;opacity:0.7;stroke:rgb(98.8%,55.3%,38.4%);stroke-opacity:1.0" transform="translate(50.068999999999996, 245.7570209954927)"><rect height="7.0" width="7.0" x="-3.5" y="-3.5" /></g><g class="toyplot-Datum" style="fill:rgb(98.8%,55.3%,38.4%);fill-opacity:1.0;opacity:0.7;stroke:rgb(98.8%,55.3%,38.4%);stroke-opacity:1.0" transform="translate(50.089, 245.42016824712758)"><rect height="7.0" width="7.0" x="-3.5" y="-3.5" /></g><g class="toyplot-Datum" style="fill:rgb(98.8%,55.3%,38.4%);fill-opacity:1.0;opacity:0.7;stroke:rgb(98.8%,55.3%,38.4%);stroke-opacity:1.0" transform="translate(50.114999999999995, 245.32109390937313)"><rect height="7.0" width="7.0" x="-3.5" y="-3.5" /></g><g class="toyplot-Datum" style="fill:rgb(98.8%,55.3%,38.4%);fill-opacity:1.0;opacity:0.7;stroke:rgb(98.8%,55.3%,38.4%);stroke-opacity:1.0" transform="translate(50.1485, 245.0258523828649)"><rect height="7.0" width="7.0" x="-3.5" y="-3.5" /></g><g class="toyplot-Datum" style="fill:rgb(98.8%,55.3%,38.4%);fill-opacity:1.0;opacity:0.7;stroke:rgb(98.8%,55.3%,38.4%);stroke-opacity:1.0" transform="translate(50.192, 244.69296260800996)"><rect height="7.0" width="7.0" x="-3.5" y="-3.5" /></g><g class="toyplot-Datum" style="fill:rgb(98.8%,55.3%,38.4%);fill-opacity:1.0;opacity:0.7;stroke:rgb(98.8%,55.3%,38.4%);stroke-opacity:1.0" transform="translate(50.2485, 244.2808133629515)"><rect height="7.0" width="7.0" x="-3.5" y="-3.5" /></g><g class="toyplot-Datum" style="fill:rgb(98.8%,55.3%,38.4%);fill-opacity:1.0;opacity:0.7;stroke:rgb(98.8%,55.3%,38.4%);stroke-opacity:1.0" transform="translate(50.321, 243.84290479007686)"><rect height="7.0" width="7.0" x="-3.5" y="-3.5" /></g><g class="toyplot-Datum" style="fill:rgb(98.8%,55.3%,38.4%);fill-opacity:1.0;opacity:0.7;stroke:rgb(98.8%,55.3%,38.4%);stroke-opacity:1.0" transform="translate(50.4145, 243.24845876355022)"><rect height="7.0" width="7.0" x="-3.5" y="-3.5" /></g><g class="toyplot-Datum" style="fill:rgb(98.8%,55.3%,38.4%);fill-opacity:1.0;opacity:0.7;stroke:rgb(98.8%,55.3%,38.4%);stroke-opacity:1.0" transform="translate(50.535500000000006, 242.42217878667816)"><rect height="7.0" width="7.0" x="-3.5" y="-3.5" /></g><g class="toyplot-Datum" style="fill:rgb(98.8%,55.3%,38.4%);fill-opacity:1.0;opacity:0.7;stroke:rgb(98.8%,55.3%,38.4%);stroke-opacity:1.0" transform="translate(50.692, 241.03513805811596)"><rect height="7.0" width="7.0" x="-3.5" y="-3.5" /></g><g class="toyplot-Datum" style="fill:rgb(98.8%,55.3%,38.4%);fill-opacity:1.0;opacity:0.7;stroke:rgb(98.8%,55.3%,38.4%);stroke-opacity:1.0" transform="translate(50.894, 239.72339382624713)"><rect height="7.0" width="7.0" x="-3.5" y="-3.5" /></g><g class="toyplot-Datum" style="fill:rgb(98.8%,55.3%,38.4%);fill-opacity:1.0;opacity:0.7;stroke:rgb(98.8%,55.3%,38.4%);stroke-opacity:1.0" transform="translate(51.15500000000001, 238.11442658111497)"><rect height="7.0" width="7.0" x="-3.5" y="-3.5" /></g><g class="toyplot-Datum" style="fill:rgb(98.8%,55.3%,38.4%);fill-opacity:1.0;opacity:0.7;stroke:rgb(98.8%,55.3%,38.4%);stroke-opacity:1.0" transform="translate(51.492, 236.1626621273525)"><rect height="7.0" width="7.0" x="-3.5" y="-3.5" /></g><g class="toyplot-Datum" style="fill:rgb(98.8%,55.3%,38.4%);fill-opacity:1.0;opacity:0.7;stroke:rgb(98.8%,55.3%,38.4%);stroke-opacity:1.0" transform="translate(51.9275, 233.84035965038836)"><rect height="7.0" width="7.0" x="-3.5" y="-3.5" /></g><g class="toyplot-Datum" style="fill:rgb(98.8%,55.3%,38.4%);fill-opacity:1.0;opacity:0.7;stroke:rgb(98.8%,55.3%,38.4%);stroke-opacity:1.0" transform="translate(52.49, 230.10525711704588)"><rect height="7.0" width="7.0" x="-3.5" y="-3.5" /></g><g class="toyplot-Datum" style="fill:rgb(98.8%,55.3%,38.4%);fill-opacity:1.0;opacity:0.7;stroke:rgb(98.8%,55.3%,38.4%);stroke-opacity:1.0" transform="translate(53.217, 226.11454279229693)"><rect height="7.0" width="7.0" x="-3.5" y="-3.5" /></g><g class="toyplot-Datum" style="fill:rgb(98.8%,55.3%,38.4%);fill-opacity:1.0;opacity:0.7;stroke:rgb(98.8%,55.3%,38.4%);stroke-opacity:1.0" transform="translate(54.156000000000006, 221.05977008006525)"><rect height="7.0" width="7.0" x="-3.5" y="-3.5" /></g><g class="toyplot-Datum" style="fill:rgb(98.8%,55.3%,38.4%);fill-opacity:1.0;opacity:0.7;stroke:rgb(98.8%,55.3%,38.4%);stroke-opacity:1.0" transform="translate(55.3685, 216.12388657313895)"><rect height="7.0" width="7.0" x="-3.5" y="-3.5" /></g><g class="toyplot-Datum" style="fill:rgb(98.8%,55.3%,38.4%);fill-opacity:1.0;opacity:0.7;stroke:rgb(98.8%,55.3%,38.4%);stroke-opacity:1.0" transform="translate(56.9355, 209.7137769204265)"><rect height="7.0" width="7.0" x="-3.5" y="-3.5" /></g><g class="toyplot-Datum" style="fill:rgb(98.8%,55.3%,38.4%);fill-opacity:1.0;opacity:0.7;stroke:rgb(98.8%,55.3%,38.4%);stroke-opacity:1.0" transform="translate(58.959500000000006, 203.12929643326626)"><rect height="7.0" width="7.0" x="-3.5" y="-3.5" /></g><g class="toyplot-Datum" style="fill:rgb(98.8%,55.3%,38.4%);fill-opacity:1.0;opacity:0.7;stroke:rgb(98.8%,55.3%,38.4%);stroke-opacity:1.0" transform="translate(61.574, 196.18418535667985)"><rect height="7.0" width="7.0" x="-3.5" y="-3.5" /></g><g class="toyplot-Datum" style="fill:rgb(98.8%,55.3%,38.4%);fill-opacity:1.0;opacity:0.7;stroke:rgb(98.8%,55.3%,38.4%);stroke-opacity:1.0" transform="translate(64.952, 188.7179432635051)"><rect height="7.0" width="7.0" x="-3.5" y="-3.5" /></g><g class="toyplot-Datum" style="fill:rgb(98.8%,55.3%,38.4%);fill-opacity:1.0;opacity:0.7;stroke:rgb(98.8%,55.3%,38.4%);stroke-opacity:1.0" transform="translate(69.315, 181.92540666706049)"><rect height="7.0" width="7.0" x="-3.5" y="-3.5" /></g><g class="toyplot-Datum" style="fill:rgb(98.8%,55.3%,38.4%);fill-opacity:1.0;opacity:0.7;stroke:rgb(98.8%,55.3%,38.4%);stroke-opacity:1.0" transform="translate(74.952, 174.30460860698878)"><rect height="7.0" width="7.0" x="-3.5" y="-3.5" /></g><g class="toyplot-Datum" style="fill:rgb(98.8%,55.3%,38.4%);fill-opacity:1.0;opacity:0.7;stroke:rgb(98.8%,55.3%,38.4%);stroke-opacity:1.0" transform="translate(82.23349999999999, 167.11775614628152)"><rect height="7.0" width="7.0" x="-3.5" y="-3.5" /></g><g class="toyplot-Datum" style="fill:rgb(98.8%,55.3%,38.4%);fill-opacity:1.0;opacity:0.7;stroke:rgb(98.8%,55.3%,38.4%);stroke-opacity:1.0" transform="translate(91.64, 162.1283724969678)"><rect height="7.0" width="7.0" x="-3.5" y="-3.5" /></g><g class="toyplot-Datum" style="fill:rgb(98.8%,55.3%,38.4%);fill-opacity:1.0;opacity:0.7;stroke:rgb(98.8%,55.3%,38.4%);stroke-opacity:1.0" transform="translate(103.792, 156.65154310590225)"><rect height="7.0" width="7.0" x="-3.5" y="-3.5" /></g><g class="toyplot-Datum" style="fill:rgb(98.8%,55.3%,38.4%);fill-opacity:1.0;opacity:0.7;stroke:rgb(98.8%,55.3%,38.4%);stroke-opacity:1.0" transform="translate(119.49, 154.3668888772848)"><rect height="7.0" width="7.0" x="-3.5" y="-3.5" /></g><g class="toyplot-Datum" style="fill:rgb(98.8%,55.3%,38.4%);fill-opacity:1.0;opacity:0.7;stroke:rgb(98.8%,55.3%,38.4%);stroke-opacity:1.0" transform="translate(139.76850000000002, 151.1113061386738)"><rect height="7.0" width="7.0" x="-3.5" y="-3.5" /></g><g class="toyplot-Datum" style="fill:rgb(98.8%,55.3%,38.4%);fill-opacity:1.0;opacity:0.7;stroke:rgb(98.8%,55.3%,38.4%);stroke-opacity:1.0" transform="translate(165.96550000000002, 149.40524604254227)"><rect height="7.0" width="7.0" x="-3.5" y="-3.5" /></g><g class="toyplot-Datum" style="fill:rgb(98.8%,55.3%,38.4%);fill-opacity:1.0;opacity:0.7;stroke:rgb(98.8%,55.3%,38.4%);stroke-opacity:1.0" transform="translate(199.807, 144.42775131375907)"><rect height="7.0" width="7.0" x="-3.5" y="-3.5" /></g><g class="toyplot-Datum" style="fill:rgb(98.8%,55.3%,38.4%);fill-opacity:1.0;opacity:0.7;stroke:rgb(98.8%,55.3%,38.4%);stroke-opacity:1.0" transform="translate(243.5245, 147.66153769806408)"><rect height="7.0" width="7.0" x="-3.5" y="-3.5" /></g><g class="toyplot-Datum" style="fill:rgb(98.8%,55.3%,38.4%);fill-opacity:1.0;opacity:0.7;stroke:rgb(98.8%,55.3%,38.4%);stroke-opacity:1.0" transform="translate(299.9995, 149.2308752080945)"><rect height="7.0" width="7.0" x="-3.5" y="-3.5" /></g></g></g><g class="toyplot-mark-Plot" id="td4ef596cdc604e8887a502e5ccb141b4" style="fill:none;stroke-dasharray:2, 2"><g class="toyplot-Series"><path d="M 50.0005 246.15331834651047 L 50.001 246.16322578028593 L 50.001 246.1612442935308 L 50.00150000000001 246.15728132002064 L 50.002 246.15926280677576 L 50.003 246.1493553730003 L 50.004000000000005 246.1414294259799 L 50.005 246.12359604518412 L 50.0065 246.1473738862452 L 50.0085 246.1117071246536 L 50.011500000000005 246.11765158491886 L 50.014500000000005 246.0958552306129 L 50.019 246.05424400875603 L 50.0245 245.99281791934828 L 50.032000000000004 245.9531881842465 L 50.041 245.83231749218604 L 50.053000000000004 245.74315058820704 L 50.068999999999996 245.7570209954927 L 50.089 245.42016824712758 L 50.114999999999995 245.32109390937313 L 50.1485 245.0258523828649 L 50.192 244.69296260800996 L 50.2485 244.2808133629515 L 50.321 243.84290479007686 L 50.4145 243.24845876355022 L 50.535500000000006 242.42217878667816 L 50.692 241.03513805811596 L 50.894 239.72339382624713 L 51.15500000000001 238.11442658111497 L 51.492 236.1626621273525 L 51.9275 233.84035965038836 L 52.49 230.10525711704588 L 53.217 226.11454279229693 L 54.156000000000006 221.05977008006525 L 55.3685 216.12388657313895 L 56.9355 209.7137769204265 L 58.959500000000006 203.12929643326626 L 61.574 196.18418535667985 L 64.952 188.7179432635051 L 69.315 181.92540666706049 L 74.952 174.30460860698878 L 82.23349999999999 167.11775614628152 L 91.64 162.1283724969678 L 103.792 156.65154310590225 L 119.49 154.3668888772848 L 139.76850000000002 151.1113061386738 L 165.96550000000002 149.40524604254227 L 199.807 144.42775131375907 L 243.5245 147.66153769806408 L 299.9995 149.2308752080945" style="stroke:rgb(98.8%,55.3%,38.4%);stroke-dasharray:2, 2;stroke-opacity:1.0;stroke-width:2.0" /></g></g><g class="toyplot-mark-FillBoundaries" id="t1adeb8cf309c4772b65da5a28cf48fe0" style="stroke:none"><polygon points="50.0005,246.47861426615555 50.001,246.25175190277042 50.001,246.34913061883816 50.00150000000001,246.34500039364215 50.002,246.31254332715383 50.003,246.4070934114414 50.004000000000005,246.47787980878198 50.005,246.56452026065145 50.0065,246.34452932905586 50.0085,246.56880824683518 50.011500000000005,246.53505918921746 50.014500000000005,246.57594784053916 50.019,246.76799468141886 50.0245,246.8056043672903 50.032000000000004,246.91239151896661 50.041,247.02851693795608 50.053000000000004,247.05183821278735 50.068999999999996,246.96905450996968 50.089,247.24364320879906 50.114999999999995,247.26322488090884 50.1485,247.2818113848493 50.192,247.31457067930626 50.2485,247.10795544648377 50.321,246.86171205469452 50.4145,246.64211046818093 50.535500000000006,246.427478692154 50.692,245.5950983587241 50.894,244.6757218933669 51.15500000000001,243.7593704048525 51.492,242.33161278424942 51.9275,240.47705632979137 52.49,238.024951070797 53.217,234.27663285194646 54.156000000000006,229.96296713172995 55.3685,225.66464879608927 56.9355,220.1484056407159 58.959500000000006,214.05474794730588 61.574,206.9599714411576 64.952,199.3441361300346 69.315,192.43508969316346 74.952,184.26810074624802 82.23349999999999,176.44649056951118 91.64,172.05090479305014 103.792,166.3723511946948 119.49,163.39359066507774 139.76850000000002,160.41948986191346 165.96550000000002,161.1738613868836 199.807,153.62619934500464 243.5245,158.5439652419456 299.9995,160.91203105047754 299.9995,137.54971936571138 243.5245,136.77911015418258 199.807,135.22930328251354 165.96550000000002,137.636630698201 139.76850000000002,141.8031224154341 119.49,145.34018708949182 103.792,146.9307350171097 91.64,152.20584020088546 82.23349999999999,157.78902172305183 74.952,164.34111646772953 69.315,171.41572364095754 64.952,178.09175039697558 61.574,185.4083992722021 58.959500000000006,192.2038449192267 56.9355,199.27914820013714 55.3685,206.58312435018863 54.156000000000006,212.15657302840063 53.217,217.95245273264737 52.49,222.18556316329474 51.9275,227.20366297098533 51.492,229.99371147045554 51.15500000000001,232.4694827573775 50.894,234.77106575912737 50.692,236.47517775750788 50.535500000000006,238.4168788812023 50.4145,239.85480705891948 50.321,240.8240975254592 50.2485,241.45367127941924 50.192,242.0713545367137 50.1485,242.76989338088055 50.114999999999995,243.37896293783746 50.089,243.59669328545613 50.068999999999996,244.54498748101568 50.053000000000004,244.4344629636268 50.041,244.63611804641602 50.032000000000004,244.99398484952638 50.0245,245.1800314714062 50.019,245.34049333609318 50.014500000000005,245.6157626206866 50.011500000000005,245.7002439806203 50.0085,245.65460600247198 50.0065,245.95021844343455 50.005,245.68267182971675 50.004000000000005,245.80497904317787 50.003,245.89161733455916 50.002,246.0059822863976 50.00150000000001,245.9695622463991 50.001,245.97335796822352 50.001,246.0746996578014 50.0005,245.8280224268654" style="fill:rgb(98.8%,55.3%,38.4%);fill-opacity:1.0;opacity:0.15;stroke:none" /></g><g class="toyplot-mark-Point" id="t444552ffdedb4d91bf306b4a56d4bb39"><g class="toyplot-Series"><g class="toyplot-Datum" style="fill:rgb(55.3%,62.7%,79.6%);fill-opacity:1.0;opacity:0.7;stroke:rgb(55.3%,62.7%,79.6%);stroke-opacity:1.0" transform="translate(50.0005, 246.16520726704098)"><polygon points="-3.5,3.5 0,-3.5 3.5,3.5" /></g><g class="toyplot-Datum" style="fill:rgb(55.3%,62.7%,79.6%);fill-opacity:1.0;opacity:0.7;stroke:rgb(55.3%,62.7%,79.6%);stroke-opacity:1.0" transform="translate(50.001, 246.1671887537961)"><polygon points="-3.5,3.5 0,-3.5 3.5,3.5" /></g><g class="toyplot-Datum" style="fill:rgb(55.3%,62.7%,79.6%);fill-opacity:1.0;opacity:0.7;stroke:rgb(55.3%,62.7%,79.6%);stroke-opacity:1.0" transform="translate(50.001, 246.1671887537961)"><polygon points="-3.5,3.5 0,-3.5 3.5,3.5" /></g><g class="toyplot-Datum" style="fill:rgb(55.3%,62.7%,79.6%);fill-opacity:1.0;opacity:0.7;stroke:rgb(55.3%,62.7%,79.6%);stroke-opacity:1.0" transform="translate(50.00150000000001, 246.15926280677576)"><polygon points="-3.5,3.5 0,-3.5 3.5,3.5" /></g><g class="toyplot-Datum" style="fill:rgb(55.3%,62.7%,79.6%);fill-opacity:1.0;opacity:0.7;stroke:rgb(55.3%,62.7%,79.6%);stroke-opacity:1.0" transform="translate(50.002, 246.16520726704098)"><polygon points="-3.5,3.5 0,-3.5 3.5,3.5" /></g><g class="toyplot-Datum" style="fill:rgb(55.3%,62.7%,79.6%);fill-opacity:1.0;opacity:0.7;stroke:rgb(55.3%,62.7%,79.6%);stroke-opacity:1.0" transform="translate(50.003, 246.16520726704098)"><polygon points="-3.5,3.5 0,-3.5 3.5,3.5" /></g><g class="toyplot-Datum" style="fill:rgb(55.3%,62.7%,79.6%);fill-opacity:1.0;opacity:0.7;stroke:rgb(55.3%,62.7%,79.6%);stroke-opacity:1.0" transform="translate(50.004000000000005, 246.1612442935308)"><polygon points="-3.5,3.5 0,-3.5 3.5,3.5" /></g><g class="toyplot-Datum" style="fill:rgb(55.3%,62.7%,79.6%);fill-opacity:1.0;opacity:0.7;stroke:rgb(55.3%,62.7%,79.6%);stroke-opacity:1.0" transform="translate(50.005, 246.15331834651047)"><polygon points="-3.5,3.5 0,-3.5 3.5,3.5" /></g><g class="toyplot-Datum" style="fill:rgb(55.3%,62.7%,79.6%);fill-opacity:1.0;opacity:0.7;stroke:rgb(55.3%,62.7%,79.6%);stroke-opacity:1.0" transform="translate(50.0065, 246.15728132002064)"><polygon points="-3.5,3.5 0,-3.5 3.5,3.5" /></g><g class="toyplot-Datum" style="fill:rgb(55.3%,62.7%,79.6%);fill-opacity:1.0;opacity:0.7;stroke:rgb(55.3%,62.7%,79.6%);stroke-opacity:1.0" transform="translate(50.0085, 246.15331834651047)"><polygon points="-3.5,3.5 0,-3.5 3.5,3.5" /></g><g class="toyplot-Datum" style="fill:rgb(55.3%,62.7%,79.6%);fill-opacity:1.0;opacity:0.7;stroke:rgb(55.3%,62.7%,79.6%);stroke-opacity:1.0" transform="translate(50.011500000000005, 246.15728132002064)"><polygon points="-3.5,3.5 0,-3.5 3.5,3.5" /></g><g class="toyplot-Datum" style="fill:rgb(55.3%,62.7%,79.6%);fill-opacity:1.0;opacity:0.7;stroke:rgb(55.3%,62.7%,79.6%);stroke-opacity:1.0" transform="translate(50.014500000000005, 246.15133685975536)"><polygon points="-3.5,3.5 0,-3.5 3.5,3.5" /></g><g class="toyplot-Datum" style="fill:rgb(55.3%,62.7%,79.6%);fill-opacity:1.0;opacity:0.7;stroke:rgb(55.3%,62.7%,79.6%);stroke-opacity:1.0" transform="translate(50.019, 246.13746645246974)"><polygon points="-3.5,3.5 0,-3.5 3.5,3.5" /></g><g class="toyplot-Datum" style="fill:rgb(55.3%,62.7%,79.6%);fill-opacity:1.0;opacity:0.7;stroke:rgb(55.3%,62.7%,79.6%);stroke-opacity:1.0" transform="translate(50.0245, 246.1295405054494)"><polygon points="-3.5,3.5 0,-3.5 3.5,3.5" /></g><g class="toyplot-Datum" style="fill:rgb(55.3%,62.7%,79.6%);fill-opacity:1.0;opacity:0.7;stroke:rgb(55.3%,62.7%,79.6%);stroke-opacity:1.0" transform="translate(50.032000000000004, 246.11963307167395)"><polygon points="-3.5,3.5 0,-3.5 3.5,3.5" /></g><g class="toyplot-Datum" style="fill:rgb(55.3%,62.7%,79.6%);fill-opacity:1.0;opacity:0.7;stroke:rgb(55.3%,62.7%,79.6%);stroke-opacity:1.0" transform="translate(50.041, 246.10179969087815)"><polygon points="-3.5,3.5 0,-3.5 3.5,3.5" /></g><g class="toyplot-Datum" style="fill:rgb(55.3%,62.7%,79.6%);fill-opacity:1.0;opacity:0.7;stroke:rgb(55.3%,62.7%,79.6%);stroke-opacity:1.0" transform="translate(50.053000000000004, 246.0958552306129)"><polygon points="-3.5,3.5 0,-3.5 3.5,3.5" /></g><g class="toyplot-Datum" style="fill:rgb(55.3%,62.7%,79.6%);fill-opacity:1.0;opacity:0.7;stroke:rgb(55.3%,62.7%,79.6%);stroke-opacity:1.0" transform="translate(50.068999999999996, 246.07802184981708)"><polygon points="-3.5,3.5 0,-3.5 3.5,3.5" /></g><g class="toyplot-Datum" style="fill:rgb(55.3%,62.7%,79.6%);fill-opacity:1.0;opacity:0.7;stroke:rgb(55.3%,62.7%,79.6%);stroke-opacity:1.0" transform="translate(50.089, 246.0403736014704)"><polygon points="-3.5,3.5 0,-3.5 3.5,3.5" /></g><g class="toyplot-Datum" style="fill:rgb(55.3%,62.7%,79.6%);fill-opacity:1.0;opacity:0.7;stroke:rgb(55.3%,62.7%,79.6%);stroke-opacity:1.0" transform="translate(50.114999999999995, 246.0027253531237)"><polygon points="-3.5,3.5 0,-3.5 3.5,3.5" /></g><g class="toyplot-Datum" style="fill:rgb(55.3%,62.7%,79.6%);fill-opacity:1.0;opacity:0.7;stroke:rgb(55.3%,62.7%,79.6%);stroke-opacity:1.0" transform="translate(50.1485, 245.97696602530755)"><polygon points="-3.5,3.5 0,-3.5 3.5,3.5" /></g><g class="toyplot-Datum" style="fill:rgb(55.3%,62.7%,79.6%);fill-opacity:1.0;opacity:0.7;stroke:rgb(55.3%,62.7%,79.6%);stroke-opacity:1.0" transform="translate(50.192, 245.90761398887943)"><polygon points="-3.5,3.5 0,-3.5 3.5,3.5" /></g><g class="toyplot-Datum" style="fill:rgb(55.3%,62.7%,79.6%);fill-opacity:1.0;opacity:0.7;stroke:rgb(55.3%,62.7%,79.6%);stroke-opacity:1.0" transform="translate(50.2485, 245.75900248224778)"><polygon points="-3.5,3.5 0,-3.5 3.5,3.5" /></g><g class="toyplot-Datum" style="fill:rgb(55.3%,62.7%,79.6%);fill-opacity:1.0;opacity:0.7;stroke:rgb(55.3%,62.7%,79.6%);stroke-opacity:1.0" transform="translate(50.321, 245.71144680012566)"><polygon points="-3.5,3.5 0,-3.5 3.5,3.5" /></g><g class="toyplot-Datum" style="fill:rgb(55.3%,62.7%,79.6%);fill-opacity:1.0;opacity:0.7;stroke:rgb(55.3%,62.7%,79.6%);stroke-opacity:1.0" transform="translate(50.4145, 245.57274272726943)"><polygon points="-3.5,3.5 0,-3.5 3.5,3.5" /></g><g class="toyplot-Datum" style="fill:rgb(55.3%,62.7%,79.6%);fill-opacity:1.0;opacity:0.7;stroke:rgb(55.3%,62.7%,79.6%);stroke-opacity:1.0" transform="translate(50.535500000000006, 245.3785570252707)"><polygon points="-3.5,3.5 0,-3.5 3.5,3.5" /></g><g class="toyplot-Datum" style="fill:rgb(55.3%,62.7%,79.6%);fill-opacity:1.0;opacity:0.7;stroke:rgb(55.3%,62.7%,79.6%);stroke-opacity:1.0" transform="translate(50.692, 245.26363079347556)"><polygon points="-3.5,3.5 0,-3.5 3.5,3.5" /></g><g class="toyplot-Datum" style="fill:rgb(55.3%,62.7%,79.6%);fill-opacity:1.0;opacity:0.7;stroke:rgb(55.3%,62.7%,79.6%);stroke-opacity:1.0" transform="translate(50.894, 244.91092615106976)"><polygon points="-3.5,3.5 0,-3.5 3.5,3.5" /></g><g class="toyplot-Datum" style="fill:rgb(55.3%,62.7%,79.6%);fill-opacity:1.0;opacity:0.7;stroke:rgb(55.3%,62.7%,79.6%);stroke-opacity:1.0" transform="translate(51.15500000000001, 244.53444366760286)"><polygon points="-3.5,3.5 0,-3.5 3.5,3.5" /></g><g class="toyplot-Datum" style="fill:rgb(55.3%,62.7%,79.6%);fill-opacity:1.0;opacity:0.7;stroke:rgb(55.3%,62.7%,79.6%);stroke-opacity:1.0" transform="translate(51.492, 244.21938727354376)"><polygon points="-3.5,3.5 0,-3.5 3.5,3.5" /></g><g class="toyplot-Datum" style="fill:rgb(55.3%,62.7%,79.6%);fill-opacity:1.0;opacity:0.7;stroke:rgb(55.3%,62.7%,79.6%);stroke-opacity:1.0" transform="translate(51.9275, 243.601163405956)"><polygon points="-3.5,3.5 0,-3.5 3.5,3.5" /></g><g class="toyplot-Datum" style="fill:rgb(55.3%,62.7%,79.6%);fill-opacity:1.0;opacity:0.7;stroke:rgb(55.3%,62.7%,79.6%);stroke-opacity:1.0" transform="translate(52.49, 242.84621695226718)"><polygon points="-3.5,3.5 0,-3.5 3.5,3.5" /></g><g class="toyplot-Datum" style="fill:rgb(55.3%,62.7%,79.6%);fill-opacity:1.0;opacity:0.7;stroke:rgb(55.3%,62.7%,79.6%);stroke-opacity:1.0" transform="translate(53.217, 241.99219616082388)"><polygon points="-3.5,3.5 0,-3.5 3.5,3.5" /></g><g class="toyplot-Datum" style="fill:rgb(55.3%,62.7%,79.6%);fill-opacity:1.0;opacity:0.7;stroke:rgb(55.3%,62.7%,79.6%);stroke-opacity:1.0" transform="translate(54.156000000000006, 241.05098995215667)"><polygon points="-3.5,3.5 0,-3.5 3.5,3.5" /></g><g class="toyplot-Datum" style="fill:rgb(55.3%,62.7%,79.6%);fill-opacity:1.0;opacity:0.7;stroke:rgb(55.3%,62.7%,79.6%);stroke-opacity:1.0" transform="translate(55.3685, 239.7848199156549)"><polygon points="-3.5,3.5 0,-3.5 3.5,3.5" /></g><g class="toyplot-Datum" style="fill:rgb(55.3%,62.7%,79.6%);fill-opacity:1.0;opacity:0.7;stroke:rgb(55.3%,62.7%,79.6%);stroke-opacity:1.0" transform="translate(56.9355, 238.16990821025746)"><polygon points="-3.5,3.5 0,-3.5 3.5,3.5" /></g><g class="toyplot-Datum" style="fill:rgb(55.3%,62.7%,79.6%);fill-opacity:1.0;opacity:0.7;stroke:rgb(55.3%,62.7%,79.6%);stroke-opacity:1.0" transform="translate(58.959500000000006, 236.463848114126)"><polygon points="-3.5,3.5 0,-3.5 3.5,3.5" /></g><g class="toyplot-Datum" style="fill:rgb(55.3%,62.7%,79.6%);fill-opacity:1.0;opacity:0.7;stroke:rgb(55.3%,62.7%,79.6%);stroke-opacity:1.0" transform="translate(61.574, 234.02067494510143)"><polygon points="-3.5,3.5 0,-3.5 3.5,3.5" /></g><g class="toyplot-Datum" style="fill:rgb(55.3%,62.7%,79.6%);fill-opacity:1.0;opacity:0.7;stroke:rgb(55.3%,62.7%,79.6%);stroke-opacity:1.0" transform="translate(64.952, 231.468520004547)"><polygon points="-3.5,3.5 0,-3.5 3.5,3.5" /></g><g class="toyplot-Datum" style="fill:rgb(55.3%,62.7%,79.6%);fill-opacity:1.0;opacity:0.7;stroke:rgb(55.3%,62.7%,79.6%);stroke-opacity:1.0" transform="translate(69.315, 228.34767836528206)"><polygon points="-3.5,3.5 0,-3.5 3.5,3.5" /></g><g class="toyplot-Datum" style="fill:rgb(55.3%,62.7%,79.6%);fill-opacity:1.0;opacity:0.7;stroke:rgb(55.3%,62.7%,79.6%);stroke-opacity:1.0" transform="translate(74.952, 225.75985666313602)"><polygon points="-3.5,3.5 0,-3.5 3.5,3.5" /></g><g class="toyplot-Datum" style="fill:rgb(55.3%,62.7%,79.6%);fill-opacity:1.0;opacity:0.7;stroke:rgb(55.3%,62.7%,79.6%);stroke-opacity:1.0" transform="translate(82.23349999999999, 222.88075640799192)"><polygon points="-3.5,3.5 0,-3.5 3.5,3.5" /></g><g class="toyplot-Datum" style="fill:rgb(55.3%,62.7%,79.6%);fill-opacity:1.0;opacity:0.7;stroke:rgb(55.3%,62.7%,79.6%);stroke-opacity:1.0" transform="translate(91.64, 219.5994143415648)"><polygon points="-3.5,3.5 0,-3.5 3.5,3.5" /></g><g class="toyplot-Datum" style="fill:rgb(55.3%,62.7%,79.6%);fill-opacity:1.0;opacity:0.7;stroke:rgb(55.3%,62.7%,79.6%);stroke-opacity:1.0" transform="translate(103.792, 217.33061200698808)"><polygon points="-3.5,3.5 0,-3.5 3.5,3.5" /></g><g class="toyplot-Datum" style="fill:rgb(55.3%,62.7%,79.6%);fill-opacity:1.0;opacity:0.7;stroke:rgb(55.3%,62.7%,79.6%);stroke-opacity:1.0" transform="translate(119.49, 215.11729130155382)"><polygon points="-3.5,3.5 0,-3.5 3.5,3.5" /></g><g class="toyplot-Datum" style="fill:rgb(55.3%,62.7%,79.6%);fill-opacity:1.0;opacity:0.7;stroke:rgb(55.3%,62.7%,79.6%);stroke-opacity:1.0" transform="translate(139.76850000000002, 213.22497145044395)"><polygon points="-3.5,3.5 0,-3.5 3.5,3.5" /></g><g class="toyplot-Datum" style="fill:rgb(55.3%,62.7%,79.6%);fill-opacity:1.0;opacity:0.7;stroke:rgb(55.3%,62.7%,79.6%);stroke-opacity:1.0" transform="translate(165.96550000000002, 212.07967210600262)"><polygon points="-3.5,3.5 0,-3.5 3.5,3.5" /></g><g class="toyplot-Datum" style="fill:rgb(55.3%,62.7%,79.6%);fill-opacity:1.0;opacity:0.7;stroke:rgb(55.3%,62.7%,79.6%);stroke-opacity:1.0" transform="translate(199.807, 210.79368720194992)"><polygon points="-3.5,3.5 0,-3.5 3.5,3.5" /></g><g class="toyplot-Datum" style="fill:rgb(55.3%,62.7%,79.6%);fill-opacity:1.0;opacity:0.7;stroke:rgb(55.3%,62.7%,79.6%);stroke-opacity:1.0" transform="translate(243.5245, 209.4839244568362)"><polygon points="-3.5,3.5 0,-3.5 3.5,3.5" /></g><g class="toyplot-Datum" style="fill:rgb(55.3%,62.7%,79.6%);fill-opacity:1.0;opacity:0.7;stroke:rgb(55.3%,62.7%,79.6%);stroke-opacity:1.0" transform="translate(299.9995, 211.7269674635968)"><polygon points="-3.5,3.5 0,-3.5 3.5,3.5" /></g></g></g><g class="toyplot-mark-Plot" id="t453b4c646c614ab69a2c682e1b64abd0" style="fill:none;stroke-dasharray:4, 4"><g class="toyplot-Series"><path d="M 50.0005 246.16520726704098 L 50.001 246.1671887537961 L 50.001 246.1671887537961 L 50.00150000000001 246.15926280677576 L 50.002 246.16520726704098 L 50.003 246.16520726704098 L 50.004000000000005 246.1612442935308 L 50.005 246.15331834651047 L 50.0065 246.15728132002064 L 50.0085 246.15331834651047 L 50.011500000000005 246.15728132002064 L 50.014500000000005 246.15133685975536 L 50.019 246.13746645246974 L 50.0245 246.1295405054494 L 50.032000000000004 246.11963307167395 L 50.041 246.10179969087815 L 50.053000000000004 246.0958552306129 L 50.068999999999996 246.07802184981708 L 50.089 246.0403736014704 L 50.114999999999995 246.0027253531237 L 50.1485 245.97696602530755 L 50.192 245.90761398887943 L 50.2485 245.75900248224778 L 50.321 245.71144680012566 L 50.4145 245.57274272726943 L 50.535500000000006 245.3785570252707 L 50.692 245.26363079347556 L 50.894 244.91092615106976 L 51.15500000000001 244.53444366760286 L 51.492 244.21938727354376 L 51.9275 243.601163405956 L 52.49 242.84621695226718 L 53.217 241.99219616082388 L 54.156000000000006 241.05098995215667 L 55.3685 239.7848199156549 L 56.9355 238.16990821025746 L 58.959500000000006 236.463848114126 L 61.574 234.02067494510143 L 64.952 231.468520004547 L 69.315 228.34767836528206 L 74.952 225.75985666313602 L 82.23349999999999 222.88075640799192 L 91.64 219.5994143415648 L 103.792 217.33061200698808 L 119.49 215.11729130155382 L 139.76850000000002 213.22497145044395 L 165.96550000000002 212.07967210600262 L 199.807 210.79368720194992 L 243.5245 209.4839244568362 L 299.9995 211.7269674635968" style="stroke:rgb(55.3%,62.7%,79.6%);stroke-dasharray:4, 4;stroke-opacity:1.0;stroke-width:2.0" /></g></g><g class="toyplot-mark-FillBoundaries" id="tfa10bebdaf034e24ac59c57bff24487f" style="stroke:none"><polygon points="50.0005,246.22783604214345 50.001,246.1671887537961 50.001,246.1671887537961 50.00150000000001,246.35725289988585 50.002,246.22783604214345 50.003,246.22783604214345 50.004000000000005,246.2696118748175 50.005,246.34078626282437 50.0065,246.29704287252684 50.0085,246.34078626282437 50.011500000000005,246.3227680901267 50.014500000000005,246.32785608120182 50.019,246.43650031225405 50.0245,246.42768019400165 50.032000000000004,246.4708875797402 50.041,246.49765591557974 50.053000000000004,246.5593029138129 50.068999999999996,246.54261605941142 50.089,246.61433476398295 50.114999999999995,246.67791823696666 50.1485,246.70980544742736 50.192,246.72900896461914 50.2485,246.81415859850387 50.321,246.78785197864852 50.4145,246.80381861753318 50.535500000000006,246.79028255713507 50.692,246.76755704986115 50.894,246.73566352223634 51.15500000000001,246.59844914753677 51.492,246.49655526822528 51.9275,246.16485428084476 52.49,245.70877890990423 53.217,245.1635352254046 54.156000000000006,244.65559485058515 55.3685,243.50461418367564 56.9355,242.51235078769668 58.959500000000006,240.6860383860567 61.574,238.75518451550036 64.952,236.45512974562422 69.315,233.62563568447342 74.952,231.20573752937997 82.23349999999999,228.44816862641431 91.64,225.37691325944516 103.792,223.37242182074198 119.49,222.56491428320822 139.76850000000002,221.0553235025597 165.96550000000002,219.65760674836173 199.807,218.5087976803812 243.5245,216.87883488513506 299.9995,218.63432882942013 299.9995,204.81960609777343 243.5245,202.08901402853738 199.807,203.07857672351867 165.96550000000002,204.50173746364348 139.76850000000002,205.39461939832822 119.49,207.6696683198994 103.792,211.28880219323418 91.64,213.82191542368443 82.23349999999999,217.31334418956956 74.952,220.3139757968921 69.315,223.0697210460907 64.952,226.48191026346976 61.574,229.28616537470253 58.959500000000006,232.24165784219525 56.9355,233.82746563281827 55.3685,236.06502564763414 54.156000000000006,237.4463850537282 53.217,238.82085709624317 52.49,239.98365499463011 51.9275,241.03747253106727 51.492,241.9422192788622 51.15500000000001,242.47043818766898 50.894,243.08618877990318 50.692,243.75970453708996 50.535500000000006,243.96683149340632 50.4145,244.34166683700568 50.321,244.63504162160277 50.2485,244.70384636599167 50.192,245.08621901313973 50.1485,245.24412660318777 50.114999999999995,245.32753246928075 50.089,245.46641243895783 50.068999999999996,245.61342764022277 50.053000000000004,245.63240754741287 50.041,245.70594346617654 50.032000000000004,245.7683785636077 50.0245,245.83140081689712 50.019,245.83843259268545 50.014500000000005,245.97481763830893 50.011500000000005,245.99179454991457 50.0085,245.96585043019658 50.0065,246.01751976751444 50.005,245.96585043019658 50.004000000000005,246.05287671224409 50.003,246.10257849193857 50.002,246.10257849193857 50.00150000000001,245.9612727136656 50.001,246.1671887537961 50.001,246.1671887537961 50.0005,246.10257849193857" style="fill:rgb(55.3%,62.7%,79.6%);fill-opacity:1.0;opacity:0.15;stroke:none" /></g></g><g class="toyplot-coordinates-Axis" id="t8f5debef07c74493bd22658f39983614" transform="translate(50.0,250.0)translate(0,10.0)"><line style="" x1="0.0005" x2="249.9995" y1="0" y2="0" /><g><line style="" x1="0.0" x2="0.0" y1="0" y2="-5" /><line style="" x1="50.0" x2="50.0" y1="0" y2="-5" /><line style="" x1="100.0" x2="100.0" y1="0" y2="-5" /><line style="" x1="150.0" x2="150.0" y1="0" y2="-5" /><line style="" x1="200.0" x2="200.0" y1="0" y2="-5" /><line style="" x1="250.0" x2="250.0" y1="0" y2="-5" /></g><g><g transform="translate(0.0,6)"><text style="fill:rgb(16.1%,15.3%,14.1%);fill-opacity:1.0;font-family:helvetica;font-size:10.0px;font-weight:normal;stroke:none;vertical-align:baseline;white-space:pre" x="-2.78" y="8.555">0</text></g><g transform="translate(50.0,6)"><text style="fill:rgb(16.1%,15.3%,14.1%);fill-opacity:1.0;font-family:helvetica;font-size:10.0px;font-weight:normal;stroke:none;vertical-align:baseline;white-space:pre" x="-16.68" y="8.555">100000</text></g><g transform="translate(100.0,6)"><text style="fill:rgb(16.1%,15.3%,14.1%);fill-opacity:1.0;font-family:helvetica;font-size:10.0px;font-weight:normal;stroke:none;vertical-align:baseline;white-space:pre" x="-16.68" y="8.555">200000</text></g><g transform="translate(150.0,6)"><text style="fill:rgb(16.1%,15.3%,14.1%);fill-opacity:1.0;font-family:helvetica;font-size:10.0px;font-weight:normal;stroke:none;vertical-align:baseline;white-space:pre" x="-16.68" y="8.555">300000</text></g><g transform="translate(200.0,6)"><text style="fill:rgb(16.1%,15.3%,14.1%);fill-opacity:1.0;font-family:helvetica;font-size:10.0px;font-weight:normal;stroke:none;vertical-align:baseline;white-space:pre" x="-16.68" y="8.555">400000</text></g><g transform="translate(250.0,6)"><text style="fill:rgb(16.1%,15.3%,14.1%);fill-opacity:1.0;font-family:helvetica;font-size:10.0px;font-weight:normal;stroke:none;vertical-align:baseline;white-space:pre" x="-16.68" y="8.555">500000</text></g></g><g transform="translate(125.0,22)"><text style="fill:rgb(16.1%,15.3%,14.1%);fill-opacity:1.0;font-family:helvetica;font-size:12.0px;font-weight:bold;stroke:none;vertical-align:baseline;white-space:pre" x="-64.67999999999999" y="10.265999999999998">Genomic distance (bp)</text></g><g class="toyplot-coordinates-Axis-coordinates" style="visibility:hidden" transform=""><line style="stroke:rgb(43.9%,50.2%,56.5%);stroke-opacity:1.0;stroke-width:1.0" x1="0" x2="0" y1="-3.0" y2="4.5" /><text style="alignment-baseline:alphabetic;fill:rgb(43.9%,50.2%,56.5%);fill-opacity:1.0;font-size:10px;font-weight:normal;stroke:none;text-anchor:middle" x="0" y="-6" /></g></g><g class="toyplot-coordinates-Axis" id="t03ca99bb524a46529068400ed8b99a4a" transform="translate(50.0,250.0)rotate(-90.0)translate(0,-10.0)"><line style="" x1="0" x2="195.82081256950852" y1="0" y2="0" /><g><line style="" x1="3.8328112462039168" x2="3.8328112462039168" y1="0" y2="5" /><line style="" x1="43.06624899696313" x2="43.06624899696313" y1="0" y2="5" /><line style="" x1="82.29968674772236" x2="82.29968674772236" y1="0" y2="5" /><line style="" x1="121.5331244984816" x2="121.5331244984816" y1="0" y2="5" /><line style="" x1="160.76656224924082" x2="160.76656224924082" y1="0" y2="5" /><line style="" x1="200.0" x2="200.0" y1="0" y2="5" /></g><g><g transform="translate(3.8328112462039168,-6)"><text style="fill:rgb(16.1%,15.3%,14.1%);fill-opacity:1.0;font-family:helvetica;font-size:10.0px;font-weight:normal;stroke:none;vertical-align:baseline;white-space:pre" x="-6.95" y="-4.440892098500626e-16">0.0</text></g><g transform="translate(43.06624899696313,-6)"><text style="fill:rgb(16.1%,15.3%,14.1%);fill-opacity:1.0;font-family:helvetica;font-size:10.0px;font-weight:normal;stroke:none;vertical-align:baseline;white-space:pre" x="-6.95" y="-4.440892098500626e-16">0.1</text></g><g transform="translate(82.29968674772236,-6)"><text style="fill:rgb(16.1%,15.3%,14.1%);fill-opacity:1.0;font-family:helvetica;font-size:10.0px;font-weight:normal;stroke:none;vertical-align:baseline;white-space:pre" x="-6.95" y="-4.440892098500626e-16">0.2</text></g><g transform="translate(121.5331244984816,-6)"><text style="fill:rgb(16.1%,15.3%,14.1%);fill-opacity:1.0;font-family:helvetica;font-size:10.0px;font-weight:normal;stroke:none;vertical-align:baseline;white-space:pre" x="-6.95" y="-4.440892098500626e-16">0.3</text></g><g transform="translate(160.76656224924082,-6)"><text style="fill:rgb(16.1%,15.3%,14.1%);fill-opacity:1.0;font-family:helvetica;font-size:10.0px;font-weight:normal;stroke:none;vertical-align:baseline;white-space:pre" x="-6.95" y="-4.440892098500626e-16">0.4</text></g><g transform="translate(200.0,-6)"><text style="fill:rgb(16.1%,15.3%,14.1%);fill-opacity:1.0;font-family:helvetica;font-size:10.0px;font-weight:normal;stroke:none;vertical-align:baseline;white-space:pre" x="-6.95" y="-4.440892098500626e-16">0.5</text></g></g><g transform="translate(100.0,-22)"><text style="fill:rgb(16.1%,15.3%,14.1%);fill-opacity:1.0;font-family:helvetica;font-size:12.0px;font-weight:bold;stroke:none;vertical-align:baseline;white-space:pre" x="-55.02" y="0.0">Scaled RF distance</text></g><g class="toyplot-coordinates-Axis-coordinates" style="visibility:hidden" transform=""><line style="stroke:rgb(43.9%,50.2%,56.5%);stroke-opacity:1.0;stroke-width:1.0" x1="0" x2="0" y1="3.0" y2="-4.5" /><text style="alignment-baseline:hanging;fill:rgb(43.9%,50.2%,56.5%);fill-opacity:1.0;font-size:10px;font-weight:normal;stroke:none;text-anchor:middle" x="0" y="6" /></g></g></g></svg>