<svg class="toyplot-canvas-Canvas" height="250.0px" id="t546b5393cbe94c5db3ac7181277496b4" preserveAspectRatio="xMidYMid meet" style="background-color:transparent;border-color:#292724;border-style:none;border-width:1.0;fill:rgb(16.1%,15.3%,14.1%);fill-opacity:1.0;font-family:Helvetica;font-size:12px;opacity:1.0;stroke:rgb(16.1%,15.3%,14.1%);stroke-opacity:1.0;stroke-width:1.0" viewBox="0 0 600.0 250.0" width="600.0px" xmlns="http://www.w3.org/2000/svg" xmlns:toyplot="http://www.sandia.gov/toyplot" xmlns:xlink="http://www.w3.org/1999/xlink"><g class="toyplot-coordinates-Cartesian" id="tf2230e3a7641484f8ccd5c1860e78d23"><clipPath id="t88d97f9510784d8b8679e71a4fb29ecc"><rect height="170.0" width="520.0" x="40.0" y="40.0" /></clipPath><g clip-path="url(#t88d97f9510784d8b8679e71a4fb29ecc)"><g class="toyplot-mark-Plot" id="t31d58fc033ef417888876c8dbc04c3e0" style="fill:none;stroke-dasharray:4, 2"><g class="toyplot-Series"><path d="M 50.0 60.82474226804123 L 59.536448598130846 73.19587628865979 L 69.07289719626168 73.19587628865979 L 78.60934579439252 70.10309278350515 L 88.14579439252336 70.10309278350515 L 97.6822429906542 70.10309278350515 L 107.21869158878505 85.56701030927836 L 116.75560747663552 82.47422680412372 L 126.29205607476636 76.28865979381445 L 135.8285046728972 76.28865979381445 L 145.36495327102804 73.19587628865979 L 154.9014018691589 82.47422680412372 L 164.4378504672897 63.91752577319588 L 173.9747663551402 67.01030927835052 L 183.51121495327104 79.38144329896906 L 193.04766355140185 76.28865979381445 L 202.58411214953273 82.47422680412372 L 212.12056074766352 82.47422680412372 L 221.6570093457944 85.56701030927836 L 231.19392523364485 73.19587628865979 L 240.73037383177572 67.01030927835052 L 250.26682242990654 70.10309278350515 L 259.8032710280374 70.10309278350515 L 269.3397196261682 76.28865979381445 L 278.8761682242991 76.28865979381445 L 288.41308411214953 67.01030927835052 L 297.9495327102804 85.56701030927836 L 307.4859813084112 88.65979381443299 L 317.0224299065421 85.56701030927836 L 326.5588785046729 63.91752577319588 L 336.09532710280376 85.56701030927836 L 345.6322429906542 85.56701030927836 L 355.1686915887851 85.56701030927836 L 364.70514018691586 73.19587628865979 L 374.2415887850467 82.47422680412372 L 383.77803738317755 82.47422680412372 L 393.3144859813084 76.28865979381445 L 402.85140186915885 79.38144329896906 L 412.3878504672897 70.10309278350515 L 421.9242990654206 76.28865979381445 L 431.46074766355144 82.47422680412372 L 440.99719626168223 73.19587628865979 L 450.5336448598131 88.65979381443299 L 460.0705607476636 63.91752577319588 L 469.6070093457944 67.01030927835052 L 479.14345794392517 79.38144329896906 L 488.6799065420561 67.01030927835052 L 498.2163551401869 67.01030927835052 L 507.75280373831777 57.7319587628866 L 517.2897196261682 60.82474226804123" style="stroke:rgb(40%,76.1%,64.7%);stroke-dasharray:4, 2;stroke-opacity:1.0;stroke-width:5.0" /></g></g><g class="toyplot-mark-Text" id="t859c76409ec844dda781a619e509fec7"><g class="toyplot-Series"><g class="toyplot-Datum" transform="translate(517.2897196261682,60.82474226804123)"><text style="fill:rgb(40%,76.1%,64.7%);fill-opacity:1.0;font-family:helvetica;font-size:12.0px;font-weight:normal;opacity:1;stroke:none;vertical-align:baseline;white-space:pre" x="0" y="3.066">1000000</text></g></g></g><g class="toyplot-mark-Plot" id="tea4f48384aa344a0bc77b062b8e07c58" style="fill:none;stroke-dasharray:4, 2"><g class="toyplot-Series"><path d="M 50.0 113.40206185567011 L 59.536448598130846 135.05154639175257 L 69.07289719626168 128.8659793814433 L 78.60934579439252 113.40206185567011 L 88.14579439252336 125.77319587628865 L 97.6822429906542 141.23711340206188 L 107.21869158878505 135.05154639175257 L 116.75560747663552 116.49484536082474 L 126.29205607476636 104.1237113402062 L 135.8285046728972 101.03092783505154 L 145.36495327102804 113.40206185567011 L 154.9014018691589 116.49484536082474 L 164.4378504672897 101.03092783505154 L 173.9747663551402 104.1237113402062 L 183.51121495327104 153.6082474226804 L 193.04766355140185 125.77319587628865 L 202.58411214953273 110.30927835051546 L 212.12056074766352 116.49484536082474 L 221.6570093457944 119.58762886597938 L 231.19392523364485 94.84536082474227 L 240.73037383177572 128.8659793814433 L 250.26682242990654 116.49484536082474 L 259.8032710280374 119.58762886597938 L 269.3397196261682 128.8659793814433 L 278.8761682242991 144.3298969072165 L 288.41308411214953 116.49484536082474 L 297.9495327102804 138.1443298969072 L 307.4859813084112 110.30927835051546 L 317.0224299065421 131.95876288659795 L 326.5588785046729 116.49484536082474 L 336.09532710280376 131.95876288659795 L 345.6322429906542 119.58762886597938 L 355.1686915887851 107.21649484536083 L 364.70514018691586 97.9381443298969 L 374.2415887850467 131.95876288659795 L 383.77803738317755 119.58762886597938 L 393.3144859813084 122.68041237113403 L 402.85140186915885 119.58762886597938 L 412.3878504672897 125.77319587628865 L 421.9242990654206 113.40206185567011 L 431.46074766355144 131.95876288659795 L 440.99719626168223 94.84536082474227 L 450.5336448598131 122.68041237113403 L 460.0705607476636 141.23711340206188 L 469.6070093457944 138.1443298969072 L 479.14345794392517 135.05154639175257 L 488.6799065420561 107.21649484536083 L 498.2163551401869 147.42268041237114 L 507.75280373831777 113.40206185567011 L 517.2897196261682 107.21649484536083" style="stroke:rgb(40%,76.1%,64.7%);stroke-dasharray:4, 2;stroke-opacity:1.0;stroke-width:1.5" /></g></g><g class="toyplot-mark-Text" id="tcf064ba5976d4885966922aef70e4c61"><g class="toyplot-Series"><g class="toyplot-Datum" transform="translate(517.2897196261682,107.21649484536083)"><text style="fill:rgb(40%,76.1%,64.7%);fill-opacity:1.0;font-family:helvetica;font-size:12.0px;font-weight:normal;opacity:1;stroke:none;vertical-align:baseline;white-space:pre" x="0" y="3.066">1000</text></g></g></g><g class="toyplot-mark-Plot" id="tf8b073143e2945fabc3b1d85892d4e28" style="fill:none;stroke-dasharray:4, 2"><g class="toyplot-Series"><path d="M 50.0 135.05154639175257 L 59.536448598130846 131.95876288659795 L 69.07289719626168 138.1443298969072 L 78.60934579439252 135.05154639175257 L 88.14579439252336 135.05154639175257 L 97.6822429906542 131.95876288659795 L 107.21869158878505 165.979381443299 L 116.75560747663552 141.23711340206188 L 126.29205607476636 125.77319587628865 L 135.8285046728972 107.21649484536083 L 145.36495327102804 122.68041237113403 L 154.9014018691589 107.21649484536083 L 164.4378504672897 88.65979381443299 L 173.9747663551402 141.23711340206188 L 183.51121495327104 150.51546391752578 L 193.04766355140185 131.95876288659795 L 202.58411214953273 128.8659793814433 L 212.12056074766352 131.95876288659795 L 221.6570093457944 141.23711340206188 L 231.19392523364485 88.65979381443299 L 240.73037383177572 141.23711340206188 L 250.26682242990654 147.42268041237114 L 259.8032710280374 138.1443298969072 L 269.3397196261682 153.6082474226804 L 278.8761682242991 178.35051546391753 L 288.41308411214953 128.8659793814433 L 297.9495327102804 131.95876288659795 L 307.4859813084112 122.68041237113403 L 317.0224299065421 116.49484536082474 L 326.5588785046729 131.95876288659795 L 336.09532710280376 147.42268041237114 L 345.6322429906542 138.1443298969072 L 355.1686915887851 107.21649484536083 L 364.70514018691586 122.68041237113403 L 374.2415887850467 125.77319587628865 L 383.77803738317755 141.23711340206188 L 393.3144859813084 150.51546391752578 L 402.85140186915885 119.58762886597938 L 412.3878504672897 144.3298969072165 L 421.9242990654206 125.77319587628865 L 431.46074766355144 128.8659793814433 L 440.99719626168223 119.58762886597938 L 450.5336448598131 128.8659793814433 L 460.0705607476636 165.979381443299 L 469.6070093457944 159.7938144329897 L 479.14345794392517 147.42268041237114 L 488.6799065420561 135.05154639175257 L 498.2163551401869 119.58762886597938 L 507.75280373831777 131.95876288659795 L 517.2897196261682 125.77319587628865" style="stroke:rgb(40%,76.1%,64.7%);stroke-dasharray:4, 2;stroke-opacity:1.0;stroke-width:2.0" /></g></g><g class="toyplot-mark-Text" id="taa25bb1c30d04f879483d5c65ffc75ff"><g class="toyplot-Series"><g class="toyplot-Datum" transform="translate(517.2897196261682,125.77319587628865)"><text style="fill:rgb(40%,76.1%,64.7%);fill-opacity:1.0;font-family:helvetica;font-size:12.0px;font-weight:normal;opacity:1;stroke:none;vertical-align:baseline;white-space:pre" x="0" y="3.066">2500</text></g></g></g><g class="toyplot-mark-Plot" id="t2ca36605ce8a44788efe2a7fcc4a4bdf" style="fill:none;stroke-dasharray:4, 2"><g class="toyplot-Series"><path d="M 50.0 94.84536082474227 L 59.536448598130846 116.49484536082474 L 69.07289719626168 104.1237113402062 L 78.60934579439252 101.03092783505154 L 88.14579439252336 119.58762886597938 L 97.6822429906542 107.21649484536083 L 107.21869158878505 91.75257731958763 L 116.75560747663552 110.30927835051546 L 126.29205607476636 94.84536082474227 L 135.8285046728972 107.21649484536083 L 145.36495327102804 104.1237113402062 L 154.9014018691589 116.49484536082474 L 164.4378504672897 94.84536082474227 L 173.9747663551402 97.9381443298969 L 183.51121495327104 110.30927835051546 L 193.04766355140185 119.58762886597938 L 202.58411214953273 104.1237113402062 L 212.12056074766352 107.21649484536083 L 221.6570093457944 104.1237113402062 L 231.19392523364485 91.75257731958763 L 240.73037383177572 128.8659793814433 L 250.26682242990654 97.9381443298969 L 259.8032710280374 141.23711340206188 L 269.3397196261682 122.68041237113403 L 278.8761682242991 135.05154639175257 L 288.41308411214953 91.75257731958763 L 297.9495327102804 113.40206185567011 L 307.4859813084112 101.03092783505154 L 317.0224299065421 125.77319587628865 L 326.5588785046729 88.65979381443299 L 336.09532710280376 116.49484536082474 L 345.6322429906542 138.1443298969072 L 355.1686915887851 125.77319587628865 L 364.70514018691586 88.65979381443299 L 374.2415887850467 110.30927835051546 L 383.77803738317755 122.68041237113403 L 393.3144859813084 122.68041237113403 L 402.85140186915885 97.9381443298969 L 412.3878504672897 113.40206185567011 L 421.9242990654206 110.30927835051546 L 431.46074766355144 116.49484536082474 L 440.99719626168223 110.30927835051546 L 450.5336448598131 101.03092783505154 L 460.0705607476636 88.65979381443299 L 469.6070093457944 76.28865979381445 L 479.14345794392517 119.58762886597938 L 488.6799065420561 82.47422680412372 L 498.2163551401869 82.47422680412372 L 507.75280373831777 79.38144329896906 L 517.2897196261682 97.9381443298969" style="stroke:rgb(40%,76.1%,64.7%);stroke-dasharray:4, 2;stroke-opacity:1.0;stroke-width:2.5" /></g></g><g class="toyplot-mark-Text" id="t98b358caf63642ecb6064e00e856a9db"><g class="toyplot-Series"><g class="toyplot-Datum" transform="translate(517.2897196261682,97.9381443298969)"><text style="fill:rgb(40%,76.1%,64.7%);fill-opacity:1.0;font-family:helvetica;font-size:12.0px;font-weight:normal;opacity:1;stroke:none;vertical-align:baseline;white-space:pre" x="0" y="3.066">10000</text></g></g></g><g class="toyplot-mark-Plot" id="t9f3a666a9047418a81e6e1865227f2b6" style="fill:none;stroke-dasharray:4, 2"><g class="toyplot-Series"><path d="M 50.0 85.56701030927836 L 59.536448598130846 88.65979381443299 L 69.07289719626168 97.9381443298969 L 78.60934579439252 107.21649484536083 L 88.14579439252336 85.56701030927836 L 97.6822429906542 91.75257731958763 L 107.21869158878505 97.9381443298969 L 116.75560747663552 82.47422680412372 L 126.29205607476636 76.28865979381445 L 135.8285046728972 88.65979381443299 L 145.36495327102804 97.9381443298969 L 154.9014018691589 85.56701030927836 L 164.4378504672897 88.65979381443299 L 173.9747663551402 88.65979381443299 L 183.51121495327104 88.65979381443299 L 193.04766355140185 104.1237113402062 L 202.58411214953273 76.28865979381445 L 212.12056074766352 91.75257731958763 L 221.6570093457944 79.38144329896906 L 231.19392523364485 85.56701030927836 L 240.73037383177572 91.75257731958763 L 250.26682242990654 88.65979381443299 L 259.8032710280374 94.84536082474227 L 269.3397196261682 82.47422680412372 L 278.8761682242991 97.9381443298969 L 288.41308411214953 76.28865979381445 L 297.9495327102804 82.47422680412372 L 307.4859813084112 82.47422680412372 L 317.0224299065421 116.49484536082474 L 326.5588785046729 79.38144329896906 L 336.09532710280376 97.9381443298969 L 345.6322429906542 113.40206185567011 L 355.1686915887851 88.65979381443299 L 364.70514018691586 85.56701030927836 L 374.2415887850467 101.03092783505154 L 383.77803738317755 107.21649484536083 L 393.3144859813084 73.19587628865979 L 402.85140186915885 94.84536082474227 L 412.3878504672897 94.84536082474227 L 421.9242990654206 82.47422680412372 L 431.46074766355144 94.84536082474227 L 440.99719626168223 82.47422680412372 L 450.5336448598131 91.75257731958763 L 460.0705607476636 76.28865979381445 L 469.6070093457944 70.10309278350515 L 479.14345794392517 79.38144329896906 L 488.6799065420561 79.38144329896906 L 498.2163551401869 76.28865979381445 L 507.75280373831777 60.82474226804123 L 517.2897196261682 76.28865979381445" style="stroke:rgb(40%,76.1%,64.7%);stroke-dasharray:4, 2;stroke-opacity:1.0;stroke-width:3.0" /></g></g><g class="toyplot-mark-Text" id="t62bf7eaec6b9441ba08bf67cb2884b64"><g class="toyplot-Series"><g class="toyplot-Datum" transform="translate(517.2897196261682,76.28865979381445)"><text style="fill:rgb(40%,76.1%,64.7%);fill-opacity:1.0;font-family:helvetica;font-size:12.0px;font-weight:normal;opacity:1;stroke:none;vertical-align:baseline;white-space:pre" x="0" y="3.066">25000</text></g></g></g><g class="toyplot-mark-Plot" id="t54015eee3b41431d80bf584f8aa4cbaa" style="fill:none;stroke-dasharray:4, 2"><g class="toyplot-Series"><path d="M 50.0 70.10309278350515 L 59.536448598130846 73.19587628865979 L 69.07289719626168 76.28865979381445 L 78.60934579439252 79.38144329896906 L 88.14579439252336 60.82474226804123 L 97.6822429906542 79.38144329896906 L 107.21869158878505 76.28865979381445 L 116.75560747663552 85.56701030927836 L 126.29205607476636 85.56701030927836 L 135.8285046728972 85.56701030927836 L 145.36495327102804 76.28865979381445 L 154.9014018691589 88.65979381443299 L 164.4378504672897 63.91752577319588 L 173.9747663551402 67.01030927835052 L 183.51121495327104 76.28865979381445 L 193.04766355140185 67.01030927835052 L 202.58411214953273 91.75257731958763 L 212.12056074766352 91.75257731958763 L 221.6570093457944 79.38144329896906 L 231.19392523364485 76.28865979381445 L 240.73037383177572 70.10309278350515 L 250.26682242990654 85.56701030927836 L 259.8032710280374 73.19587628865979 L 269.3397196261682 85.56701030927836 L 278.8761682242991 76.28865979381445 L 288.41308411214953 63.91752577319588 L 297.9495327102804 73.19587628865979 L 307.4859813084112 85.56701030927836 L 317.0224299065421 94.84536082474227 L 326.5588785046729 63.91752577319588 L 336.09532710280376 91.75257731958763 L 345.6322429906542 85.56701030927836 L 355.1686915887851 67.01030927835052 L 364.70514018691586 60.82474226804123 L 374.2415887850467 82.47422680412372 L 383.77803738317755 88.65979381443299 L 393.3144859813084 79.38144329896906 L 402.85140186915885 82.47422680412372 L 412.3878504672897 82.47422680412372 L 421.9242990654206 82.47422680412372 L 431.46074766355144 97.9381443298969 L 440.99719626168223 70.10309278350515 L 450.5336448598131 88.65979381443299 L 460.0705607476636 76.28865979381445 L 469.6070093457944 76.28865979381445 L 479.14345794392517 82.47422680412372 L 488.6799065420561 70.10309278350515 L 498.2163551401869 67.01030927835052 L 507.75280373831777 60.82474226804123 L 517.2897196261682 57.7319587628866" style="stroke:rgb(40%,76.1%,64.7%);stroke-dasharray:4, 2;stroke-opacity:1.0;stroke-width:4.0" /></g></g><g class="toyplot-mark-Text" id="t5201380e39bc4c2ba4e214713742858f"><g class="toyplot-Series"><g class="toyplot-Datum" transform="translate(517.2897196261682,57.7319587628866)"><text style="fill:rgb(40%,76.1%,64.7%);fill-opacity:1.0;font-family:helvetica;font-size:12.0px;font-weight:normal;opacity:1;stroke:none;vertical-align:baseline;white-space:pre" x="0" y="3.066">100000</text></g></g></g><g class="toyplot-mark-Plot" id="t58d06717cb244116829751d38141c0bf" style="fill:none"><g class="toyplot-Series"><path d="M 50.0 141.23711340206188 L 59.536448598130846 144.3298969072165 L 69.07289719626168 147.42268041237114 L 78.60934579439252 131.95876288659795 L 88.14579439252336 141.23711340206188 L 97.6822429906542 141.23711340206188 L 107.21869158878505 144.3298969072165 L 116.75560747663552 113.40206185567011 L 126.29205607476636 131.95876288659795 L 135.8285046728972 94.84536082474227 L 145.36495327102804 125.77319587628865 L 154.9014018691589 138.1443298969072 L 164.4378504672897 113.40206185567011 L 173.9747663551402 138.1443298969072 L 183.51121495327104 150.51546391752578 L 193.04766355140185 125.77319587628865 L 202.58411214953273 150.51546391752578 L 212.12056074766352 116.49484536082474 L 221.6570093457944 131.95876288659795 L 231.19392523364485 107.21649484536083 L 240.73037383177572 138.1443298969072 L 250.26682242990654 128.8659793814433 L 259.8032710280374 138.1443298969072 L 269.3397196261682 150.51546391752578 L 278.8761682242991 181.44329896907217 L 288.41308411214953 150.51546391752578 L 297.9495327102804 125.77319587628865 L 307.4859813084112 141.23711340206188 L 317.0224299065421 156.70103092783506 L 326.5588785046729 135.05154639175257 L 336.09532710280376 125.77319587628865 L 345.6322429906542 135.05154639175257 L 355.1686915887851 122.68041237113403 L 364.70514018691586 94.84536082474227 L 374.2415887850467 131.95876288659795 L 383.77803738317755 138.1443298969072 L 393.3144859813084 135.05154639175257 L 402.85140186915885 122.68041237113403 L 412.3878504672897 144.3298969072165 L 421.9242990654206 141.23711340206188 L 431.46074766355144 141.23711340206188 L 440.99719626168223 128.8659793814433 L 450.5336448598131 116.49484536082474 L 460.0705607476636 175.2577319587629 L 469.6070093457944 147.42268041237114 L 479.14345794392517 153.6082474226804 L 488.6799065420561 110.30927835051546 L 498.2163551401869 141.23711340206188 L 507.75280373831777 131.95876288659795 L 517.2897196261682 131.95876288659795" style="stroke:rgb(98.8%,55.3%,38.4%);stroke-opacity:1.0;stroke-width:4.0" /></g></g><g class="toyplot-mark-Text" id="t1eff53431b074370abe0a0825f4c9534"><g class="toyplot-Series"><g class="toyplot-Datum" transform="translate(517.2897196261682,131.95876288659795)"><text style="fill:rgb(98.8%,55.3%,38.4%);fill-opacity:1.0;font-family:helvetica;font-size:12.0px;font-weight:normal;opacity:1;stroke:none;vertical-align:baseline;white-space:pre" x="0" y="3.066">0</text></g></g></g><g class="toyplot-mark-Plot" id="td1e89fec8777483cb05db9c49940b2dc" style="fill:none"><g class="toyplot-Series"><path d="M 50.0 147.42268041237114 L 59.536448598130846 153.6082474226804 L 69.07289719626168 153.6082474226804 L 78.60934579439252 141.23711340206188 L 88.14579439252336 144.3298969072165 L 97.6822429906542 156.70103092783506 L 107.21869158878505 165.979381443299 L 116.75560747663552 119.58762886597938 L 126.29205607476636 113.40206185567011 L 135.8285046728972 113.40206185567011 L 145.36495327102804 156.70103092783506 L 154.9014018691589 150.51546391752578 L 164.4378504672897 119.58762886597938 L 173.9747663551402 147.42268041237114 L 183.51121495327104 147.42268041237114 L 193.04766355140185 135.05154639175257 L 202.58411214953273 162.88659793814435 L 212.12056074766352 116.49484536082474 L 221.6570093457944 131.95876288659795 L 231.19392523364485 113.40206185567011 L 240.73037383177572 159.7938144329897 L 250.26682242990654 156.70103092783506 L 259.8032710280374 150.51546391752578 L 269.3397196261682 172.16494845360825 L 278.8761682242991 184.53608247422682 L 288.41308411214953 159.7938144329897 L 297.9495327102804 141.23711340206188 L 307.4859813084112 147.42268041237114 L 317.0224299065421 162.88659793814435 L 326.5588785046729 141.23711340206188 L 336.09532710280376 156.70103092783506 L 345.6322429906542 144.3298969072165 L 355.1686915887851 128.8659793814433 L 364.70514018691586 110.30927835051546 L 374.2415887850467 141.23711340206188 L 383.77803738317755 141.23711340206188 L 393.3144859813084 165.979381443299 L 402.85140186915885 135.05154639175257 L 412.3878504672897 144.3298969072165 L 421.9242990654206 150.51546391752578 L 431.46074766355144 153.6082474226804 L 440.99719626168223 131.95876288659795 L 450.5336448598131 147.42268041237114 L 460.0705607476636 172.16494845360825 L 469.6070093457944 153.6082474226804 L 479.14345794392517 156.70103092783506 L 488.6799065420561 110.30927835051546 L 498.2163551401869 153.6082474226804 L 507.75280373831777 141.23711340206188 L 517.2897196261682 144.3298969072165" style="stroke:rgb(98.8%,55.3%,38.4%);stroke-opacity:1.0;stroke-width:3.0" /></g></g><g class="toyplot-mark-Text" id="t0801d4d2b6914ff091e060e9de3a74ec"><g class="toyplot-Series"><g class="toyplot-Datum" transform="translate(517.2897196261682,144.3298969072165)"><text style="fill:rgb(98.8%,55.3%,38.4%);fill-opacity:1.0;font-family:helvetica;font-size:12.0px;font-weight:normal;opacity:1;stroke:none;vertical-align:baseline;white-space:pre" x="0" y="3.066">1</text></g></g></g><g class="toyplot-mark-Plot" id="t49ea6ff90ee34aeab6aabeea01520641" style="fill:none"><g class="toyplot-Series"><path d="M 50.0 135.05154639175257 L 59.536448598130846 150.51546391752578 L 69.07289719626168 150.51546391752578 L 78.60934579439252 144.3298969072165 L 88.14579439252336 150.51546391752578 L 97.6822429906542 159.7938144329897 L 107.21869158878505 162.88659793814435 L 116.75560747663552 147.42268041237114 L 126.29205607476636 125.77319587628865 L 135.8285046728972 119.58762886597938 L 145.36495327102804 128.8659793814433 L 154.9014018691589 138.1443298969072 L 164.4378504672897 119.58762886597938 L 173.9747663551402 141.23711340206188 L 183.51121495327104 156.70103092783506 L 193.04766355140185 153.6082474226804 L 202.58411214953273 150.51546391752578 L 212.12056074766352 122.68041237113403 L 221.6570093457944 150.51546391752578 L 231.19392523364485 113.40206185567011 L 240.73037383177572 156.70103092783506 L 250.26682242990654 135.05154639175257 L 259.8032710280374 159.7938144329897 L 269.3397196261682 162.88659793814435 L 278.8761682242991 175.2577319587629 L 288.41308411214953 138.1443298969072 L 297.9495327102804 147.42268041237114 L 307.4859813084112 144.3298969072165 L 317.0224299065421 156.70103092783506 L 326.5588785046729 141.23711340206188 L 336.09532710280376 144.3298969072165 L 345.6322429906542 156.70103092783506 L 355.1686915887851 119.58762886597938 L 364.70514018691586 116.49484536082474 L 374.2415887850467 147.42268041237114 L 383.77803738317755 156.70103092783506 L 393.3144859813084 169.0721649484536 L 402.85140186915885 125.77319587628865 L 412.3878504672897 144.3298969072165 L 421.9242990654206 159.7938144329897 L 431.46074766355144 156.70103092783506 L 440.99719626168223 131.95876288659795 L 450.5336448598131 128.8659793814433 L 460.0705607476636 169.0721649484536 L 469.6070093457944 153.6082474226804 L 479.14345794392517 156.70103092783506 L 488.6799065420561 122.68041237113403 L 498.2163551401869 144.3298969072165 L 507.75280373831777 128.8659793814433 L 517.2897196261682 135.05154639175257" style="stroke:rgb(98.8%,55.3%,38.4%);stroke-opacity:1.0;stroke-width:2.0" /></g></g><g class="toyplot-mark-Text" id="t48cc735e3d6f49b2842ef4b2a2b9c49e"><g class="toyplot-Series"><g class="toyplot-Datum" transform="translate(517.2897196261682,135.05154639175257)"><text style="fill:rgb(98.8%,55.3%,38.4%);fill-opacity:1.0;font-family:helvetica;font-size:12.0px;font-weight:normal;opacity:1;stroke:none;vertical-align:baseline;white-space:pre" x="0" y="3.066">2</text></g></g></g><g class="toyplot-mark-Plot" id="t6e3c91068a354154a1068f3c39b8f8e2" style="fill:none"><g class="toyplot-Series"><path d="M 50.0 116.49484536082474 L 59.536448598130846 135.05154639175257 L 69.07289719626168 128.8659793814433 L 78.60934579439252 128.8659793814433 L 88.14579439252336 122.68041237113403 L 97.6822429906542 144.3298969072165 L 107.21869158878505 162.88659793814435 L 116.75560747663552 138.1443298969072 L 126.29205607476636 125.77319587628865 L 135.8285046728972 110.30927835051546 L 145.36495327102804 113.40206185567011 L 154.9014018691589 125.77319587628865 L 164.4378504672897 113.40206185567011 L 173.9747663551402 116.49484536082474 L 183.51121495327104 150.51546391752578 L 193.04766355140185 144.3298969072165 L 202.58411214953273 122.68041237113403 L 212.12056074766352 138.1443298969072 L 221.6570093457944 141.23711340206188 L 231.19392523364485 94.84536082474227 L 240.73037383177572 156.70103092783506 L 250.26682242990654 131.95876288659795 L 259.8032710280374 165.979381443299 L 269.3397196261682 147.42268041237114 L 278.8761682242991 175.2577319587629 L 288.41308411214953 119.58762886597938 L 297.9495327102804 135.05154639175257 L 307.4859813084112 128.8659793814433 L 317.0224299065421 144.3298969072165 L 326.5588785046729 122.68041237113403 L 336.09532710280376 144.3298969072165 L 345.6322429906542 153.6082474226804 L 355.1686915887851 119.58762886597938 L 364.70514018691586 113.40206185567011 L 374.2415887850467 131.95876288659795 L 383.77803738317755 141.23711340206188 L 393.3144859813084 162.88659793814435 L 402.85140186915885 119.58762886597938 L 412.3878504672897 141.23711340206188 L 421.9242990654206 150.51546391752578 L 431.46074766355144 147.42268041237114 L 440.99719626168223 122.68041237113403 L 450.5336448598131 119.58762886597938 L 460.0705607476636 147.42268041237114 L 469.6070093457944 150.51546391752578 L 479.14345794392517 147.42268041237114 L 488.6799065420561 131.95876288659795 L 498.2163551401869 119.58762886597938 L 507.75280373831777 125.77319587628865 L 517.2897196261682 150.51546391752578" style="stroke:rgb(98.8%,55.3%,38.4%);stroke-opacity:1.0;stroke-width:1.5" /></g></g><g class="toyplot-mark-Text" id="t66a48b2f1fa643bcb875e2b9fa37bdc2"><g class="toyplot-Series"><g class="toyplot-Datum" transform="translate(517.2897196261682,150.51546391752578)"><text style="fill:rgb(98.8%,55.3%,38.4%);fill-opacity:1.0;font-family:helvetica;font-size:12.0px;font-weight:normal;opacity:1;stroke:none;vertical-align:baseline;white-space:pre" x="0" y="3.066">3</text></g></g></g></g><g class="toyplot-coordinates-Axis" id="t12b91b63380f425a9517d860798c568d" transform="translate(50.0,200.0)translate(0,10.0)"><line style="" x1="0" x2="467.2897196261682" y1="0" y2="0" /><g><line style="" x1="23.36448598130841" x2="23.36448598130841" y1="0" y2="-5" /><line style="" x1="40.88785046728972" x2="40.88785046728972" y1="0" y2="-5" /><line style="" x1="58.41121495327103" x2="58.41121495327103" y1="0" y2="-5" /><line style="" x1="75.93457943925233" x2="75.93457943925233" y1="0" y2="-5" /><line style="" x1="93.45794392523364" x2="93.45794392523364" y1="0" y2="-5" /><line style="" x1="110.98130841121495" x2="110.98130841121495" y1="0" y2="-5" /><line style="" x1="128.50467289719626" x2="128.50467289719626" y1="0" y2="-5" /><line style="" x1="146.02803738317758" x2="146.02803738317758" y1="0" y2="-5" /><line style="" x1="163.55140186915887" x2="163.55140186915887" y1="0" y2="-5" /><line style="" x1="181.07476635514018" x2="181.07476635514018" y1="0" y2="-5" /><line style="" x1="198.5981308411215" x2="198.5981308411215" y1="0" y2="-5" /><line style="" x1="216.12149532710282" x2="216.12149532710282" y1="0" y2="-5" /><line style="" x1="233.6448598130841" x2="233.6448598130841" y1="0" y2="-5" /><line style="" x1="251.16822429906543" x2="251.16822429906543" y1="0" y2="-5" /><line style="" x1="268.69158878504675" x2="268.69158878504675" y1="0" y2="-5" /><line style="" x1="286.21495327102804" x2="286.21495327102804" y1="0" y2="-5" /><line style="" x1="303.7383177570093" x2="303.7383177570093" y1="0" y2="-5" /><line style="" x1="321.2616822429907" x2="321.2616822429907" y1="0" y2="-5" /><line style="" x1="338.78504672897196" x2="338.78504672897196" y1="0" y2="-5" /><line style="" x1="356.30841121495325" x2="356.30841121495325" y1="0" y2="-5" /><line style="" x1="373.83177570093454" x2="373.83177570093454" y1="0" y2="-5" /><line style="" x1="391.3551401869159" x2="391.3551401869159" y1="0" y2="-5" /><line style="" x1="408.87850467289724" x2="408.87850467289724" y1="0" y2="-5" /><line style="" x1="426.4018691588785" x2="426.4018691588785" y1="0" y2="-5" /><line style="" x1="443.9252336448598" x2="443.9252336448598" y1="0" y2="-5" /></g><g /><g transform="translate(250.0,22)"><text style="fill:rgb(16.1%,15.3%,14.1%);fill-opacity:1.0;font-family:helvetica;font-size:12.0px;font-weight:bold;stroke:none;vertical-align:baseline;white-space:pre" x="-62.675999999999995" y="10.265999999999998">chromosome position</text></g><g class="toyplot-coordinates-Axis-coordinates" style="visibility:hidden" transform=""><line style="stroke:rgb(43.9%,50.2%,56.5%);stroke-opacity:1.0;stroke-width:1.0" x1="0" x2="0" y1="-3.0" y2="4.5" /><text style="alignment-baseline:alphabetic;fill:rgb(43.9%,50.2%,56.5%);fill-opacity:1.0;font-size:10px;font-weight:normal;stroke:none;text-anchor:middle" x="0" y="-6" /></g></g><g class="toyplot-coordinates-Axis" id="td3d9e7e174a942f8aa02c010145c5a97" transform="translate(50.0,200.0)rotate(-90.0)translate(0,-10.0)"><line style="" x1="15.463917525773194" x2="142.2680412371134" y1="0" y2="0" /><g><line style="" x1="0.0" x2="0.0" y1="0" y2="5" /><line style="" x1="30.0" x2="30.0" y1="0" y2="5" /><line style="" x1="60.0" x2="60.0" y1="0" y2="5" /><line style="" x1="90.00000000000001" x2="90.00000000000001" y1="0" y2="5" /><line style="" x1="120.0" x2="120.0" y1="0" y2="5" /><line style="" x1="150.0" x2="150.0" y1="0" y2="5" /></g><g><g transform="translate(0.0,-6)"><text style="fill:rgb(16.1%,15.3%,14.1%);fill-opacity:1.0;font-family:helvetica;font-size:10.0px;font-weight:normal;stroke:none;vertical-align:baseline;white-space:pre" x="-6.95" y="-4.440892098500626e-16">0.0</text></g><g transform="translate(30.0,-6)"><text style="fill:rgb(16.1%,15.3%,14.1%);fill-opacity:1.0;font-family:helvetica;font-size:10.0px;font-weight:normal;stroke:none;vertical-align:baseline;white-space:pre" x="-6.95" y="-4.440892098500626e-16">0.1</text></g><g transform="translate(60.0,-6)"><text style="fill:rgb(16.1%,15.3%,14.1%);fill-opacity:1.0;font-family:helvetica;font-size:10.0px;font-weight:normal;stroke:none;vertical-align:baseline;white-space:pre" x="-6.95" y="-4.440892098500626e-16">0.2</text></g><g transform="translate(90.00000000000001,-6)"><text style="fill:rgb(16.1%,15.3%,14.1%);fill-opacity:1.0;font-family:helvetica;font-size:10.0px;font-weight:normal;stroke:none;vertical-align:baseline;white-space:pre" x="-6.95" y="-4.440892098500626e-16">0.3</text></g><g transform="translate(120.0,-6)"><text style="fill:rgb(16.1%,15.3%,14.1%);fill-opacity:1.0;font-family:helvetica;font-size:10.0px;font-weight:normal;stroke:none;vertical-align:baseline;white-space:pre" x="-6.95" y="-4.440892098500626e-16">0.4</text></g><g transform="translate(150.0,-6)"><text style="fill:rgb(16.1%,15.3%,14.1%);fill-opacity:1.0;font-family:helvetica;font-size:10.0px;font-weight:normal;stroke:none;vertical-align:baseline;white-space:pre" x="-6.95" y="-4.440892098500626e-16">0.5</text></g></g><g transform="translate(75.0,-22)"><text style="fill:rgb(16.1%,15.3%,14.1%);fill-opacity:1.0;font-family:helvetica;font-size:12.0px;font-weight:bold;stroke:none;vertical-align:baseline;white-space:pre" x="-34.008" y="0.0">RF distance</text></g><g class="toyplot-coordinates-Axis-coordinates" style="visibility:hidden" transform=""><line style="stroke:rgb(43.9%,50.2%,56.5%);stroke-opacity:1.0;stroke-width:1.0" x1="0" x2="0" y1="3.0" y2="-4.5" /><text style="alignment-baseline:hanging;fill:rgb(43.9%,50.2%,56.5%);fill-opacity:1.0;font-size:10px;font-weight:normal;stroke:none;text-anchor:middle" x="0" y="6" /></g></g></g></svg>