<?xml version="1.0" encoding="UTF-8" standalone="no"?>
<svg
   xmlns:dc="http://purl.org/dc/elements/1.1/"
   xmlns:cc="http://creativecommons.org/ns#"
   xmlns:rdf="http://www.w3.org/1999/02/22-rdf-syntax-ns#"
   xmlns:svg="http://www.w3.org/2000/svg"
   xmlns="http://www.w3.org/2000/svg"
   xmlns:sodipodi="http://sodipodi.sourceforge.net/DTD/sodipodi-0.dtd"
   xmlns:inkscape="http://www.inkscape.org/namespaces/inkscape"
   class="toyplot-canvas-Canvas"
   height="250"
   id="t546b5393cbe94c5db3ac7181277496b4"
   preserveAspectRatio="xMidYMid meet"
   style="font-size:12px;font-family:Helvetica;opacity:1;fill:#282623;fill-opacity:1;stroke:#282623;stroke-width:1;stroke-opacity:1"
   viewBox="0 0 1000 250"
   width="1000"
   version="1.1"
   sodipodi:docname="Fig-3-post-revision.svg"
   inkscape:version="0.92.4 (5da689c313, 2019-01-14)">
  <metadata
     id="metadata2085">
    <rdf:RDF>
      <cc:Work
         rdf:about="">
        <dc:format>image/svg+xml</dc:format>
        <dc:type
           rdf:resource="http://purl.org/dc/dcmitype/StillImage" />
        <dc:title></dc:title>
      </cc:Work>
    </rdf:RDF>
  </metadata>
  <defs
     id="defs2083">
    <clipPath
       id="t80405937ebda4922aaa8c5ecec954910">
      <rect
         id="rect3879"
         y="40"
         x="40"
         width="220"
         height="220" />
    </clipPath>
    <clipPath
       id="t88d97f9510784d8b8679e71a4fb29ecc">
      <rect
         id="rect1834"
         y="40"
         x="40"
         width="520"
         height="170" />
    </clipPath>
    <clipPath
       id="t7c06e06fa52b4ffa888b75b6c26bb069">
      <rect
         id="rect2542"
         y="40"
         x="40"
         width="220"
         height="220" />
    </clipPath>
    <clipPath
       id="t6f1234dc542b4896b2fb82b82681ae0d">
      <rect
         id="rect2972"
         y="40"
         x="40"
         width="220"
         height="220" />
    </clipPath>
  </defs>
  <sodipodi:namedview
     pagecolor="#ffffff"
     bordercolor="#666666"
     borderopacity="1"
     objecttolerance="10"
     gridtolerance="10"
     guidetolerance="10"
     inkscape:pageopacity="0"
     inkscape:pageshadow="2"
     inkscape:window-width="1860"
     inkscape:window-height="1029"
     id="namedview2081"
     showgrid="false"
     inkscape:zoom="0.8208331"
     inkscape:cx="514.2925"
     inkscape:cy="42.759654"
     inkscape:window-x="60"
     inkscape:window-y="27"
     inkscape:window-maximized="1"
     inkscape:current-layer="t546b5393cbe94c5db3ac7181277496b4" />
  <path
     d="m 278.89023,52.684729 10.35625,13.434618 h 10.35625 l 10.35625,-3.358654 h 10.35623 10.35626 l 10.35625,16.793272 10.35676,-3.358655 10.35625,-6.717309 h 10.35623 l 10.35625,-3.358654 10.35626,10.075963 10.35625,-20.151925 10.35676,3.358653 10.35624,13.434617 10.35624,-3.358654 10.35626,6.717309 h 10.35625 l 10.35624,3.358655 10.35677,-13.434618 10.35623,-6.717309 10.35626,3.358655 h 10.35625 l 10.35625,6.717308 h 10.35624 l 10.35675,-10.075963 10.35625,20.151927 10.35626,3.358654 10.35625,-3.358654 10.35624,-23.51058 10.35626,23.51058 h 10.35674 10.35626 l 10.35625,-13.434618 10.35624,10.075963 h 10.35625 l 10.35626,-6.717309 10.35674,3.358654 10.35626,-10.075962 10.35625,6.717308 10.35624,6.717309 10.35626,-10.075963 10.35624,16.793272 10.35676,-26.869234 10.35625,3.358653 10.35624,13.434617 10.35625,-13.434617 h 10.35626 l 10.35624,-10.075963 10.35676,3.358654"
     style="fill:none;stroke:#66c2a3;stroke-width:5.42982435;stroke-dasharray:4.34385962, 2.17192981;stroke-opacity:1"
     id="path1837"
     inkscape:connector-curvature="0" />
  <path
     d="m 278.89023,109.78185 10.35625,23.51059 10.35625,-6.71731 10.35625,-16.79328 10.35623,13.43462 10.35626,16.79327 10.35625,-6.7173 10.35676,-20.15193 10.35625,-13.434621 10.35623,-3.358651 10.35625,13.434612 10.35626,3.35866 10.35625,-16.793272 10.35676,3.358651 10.35624,53.738471 10.35624,-30.22789 10.35626,-16.79327 10.35625,6.71731 10.35624,3.35865 10.35677,-26.869232 10.35623,36.945202 10.35626,-13.43462 10.35625,3.35865 10.35625,10.07597 10.35624,16.79327 10.35675,-30.22789 10.35625,23.51058 10.35626,-30.22789 10.35625,23.51057 10.35624,-16.79326 10.35626,16.79326 10.35674,-13.43461 10.35626,-13.43462 10.35625,-10.075959 10.35624,36.945189 10.35625,-13.43461 10.35626,3.35866 10.35674,-3.35866 10.35626,6.71731 10.35625,-13.43462 10.35624,20.15192 10.35626,-40.303842 10.35624,30.227892 10.35676,20.15192 10.35625,-3.35865 10.35624,-3.35865 10.35625,-30.2279 10.35626,43.66252 10.35624,-36.94521 10.35676,-6.71731"
     style="fill:none;stroke:#66c2a3;stroke-width:1.62894738;stroke-dasharray:4.34385962, 2.17192981;stroke-opacity:1"
     id="path1849"
     inkscape:connector-curvature="0" />
  <path
     d="m 278.89023,133.29244 10.35625,-3.35867 10.35625,6.71732 10.35625,-3.35865 h 10.35623 l 10.35626,-3.35867 10.35625,36.9452 10.35676,-26.86923 10.35625,-16.79327 10.35623,-20.15193 10.35625,16.79328 10.35626,-16.79328 10.35625,-20.151921 10.35676,57.097121 10.35624,10.07596 10.35624,-20.15193 10.35626,-3.35864 10.35625,3.35864 10.35624,10.07597 10.35677,-57.097121 10.35623,57.097121 10.35626,6.71732 10.35625,-10.07597 10.35625,16.79327 10.35624,26.86924 10.35675,-53.73847 10.35625,3.35864 10.35626,-10.07595 10.35625,-6.71731 10.35624,16.79326 10.35626,16.79329 10.35674,-10.07597 10.35626,-33.58655 10.35625,16.79328 10.35624,3.35865 10.35625,16.79327 10.35626,10.07596 10.35674,-33.58654 10.35626,26.86924 10.35625,-20.15193 10.35624,3.35866 10.35626,-10.07597 10.35624,10.07597 10.35676,40.30384 10.35625,-6.71731 10.35624,-13.4346 10.35625,-13.43462 10.35626,-16.79328 10.35624,13.43461 10.35676,-6.7173"
     style="fill:none;stroke:#66c2a3;stroke-width:2.17192984;stroke-dasharray:4.34385962, 2.17192981;stroke-opacity:1"
     id="path1861"
     inkscape:connector-curvature="0" />
  <path
     d="m 278.89023,89.629928 10.35625,23.510582 10.35625,-13.434621 10.35625,-3.358651 10.35623,20.151922 10.35626,-13.43462 10.35625,-16.793267 10.35676,20.151927 10.35625,-16.793272 10.35623,13.434612 10.35625,-3.358651 10.35626,13.434621 10.35625,-23.510582 10.35676,3.358653 10.35624,13.434619 10.35624,10.07596 10.35626,-16.793271 10.35625,3.358651 10.35624,-3.358651 10.35677,-13.434616 10.35623,40.303857 10.35626,-33.586549 10.35625,47.021159 10.35625,-20.15192 10.35624,13.43462 10.35675,-47.021167 10.35625,23.510577 10.35626,-13.434612 10.35625,26.869232 10.35624,-40.303851 10.35626,30.227891 10.35674,23.51058 10.35626,-13.43462 10.35625,-40.303851 10.35624,23.510581 10.35625,13.43462 h 10.35626 l 10.35674,-26.869239 10.35626,16.793269 10.35625,-3.35865 10.35624,6.71731 10.35626,-6.71731 10.35624,-10.075962 10.35676,-13.434619 10.35625,-13.434618 10.35624,47.021159 10.35625,-40.30385 h 10.35626 l 10.35624,-3.358655 10.35676,20.151926"
     style="fill:none;stroke:#66c2a3;stroke-width:2.71491218;stroke-dasharray:4.34385962, 2.17192981;stroke-opacity:1"
     id="path1873"
     inkscape:connector-curvature="0" />
  <path
     d="m 278.89023,79.553965 10.35625,3.358654 10.35625,10.075962 10.35625,10.075959 10.35623,-23.510575 10.35626,6.717308 10.35625,6.717308 10.35676,-16.793271 10.35625,-6.717309 10.35623,13.434618 10.35625,10.075962 10.35626,-13.434616 10.35625,3.358654 h 10.35676 10.35624 l 10.35624,16.79327 10.35626,-30.227888 10.35625,16.793272 10.35624,-13.434618 10.35677,6.71731 10.35623,6.717308 10.35626,-3.358654 10.35625,6.717309 10.35625,-13.434618 10.35624,16.793271 10.35675,-23.51058 10.35625,6.717309 h 10.35626 l 10.35625,36.9452 10.35624,-40.303855 10.35626,20.151926 10.35674,16.793269 10.35626,-26.869231 10.35625,-3.358654 10.35624,16.793273 10.35625,6.717302 10.35626,-36.945193 10.35674,23.510581 h 10.35626 l 10.35625,-13.434618 10.35624,13.434618 10.35626,-13.434618 10.35624,10.075963 10.35676,-16.793272 10.35625,-6.717308 10.35624,10.075962 h 10.35625 l 10.35626,-3.358654 10.35624,-16.793272 10.35676,16.793272"
     style="fill:none;stroke:#66c2a3;stroke-width:3.25789475;stroke-dasharray:4.34385962, 2.17192981;stroke-opacity:1"
     id="path1885"
     inkscape:connector-curvature="0" />
  <path
     d="m 278.89023,62.760693 10.35625,3.358654 10.35625,3.358654 10.35625,3.358654 10.35623,-20.151926 10.35626,20.151926 10.35625,-3.358654 10.35676,10.075964 h 10.35625 10.35623 l 10.35625,-10.075964 10.35626,13.434618 10.35625,-26.869234 10.35676,3.358653 10.35624,10.075963 10.35624,-10.075963 10.35626,26.869235 h 10.35625 l 10.35624,-13.434618 10.35677,-3.358654 10.35623,-6.717308 10.35626,16.793272 10.35625,-13.434618 10.35625,13.434618 10.35624,-10.075964 10.35675,-13.434616 10.35625,10.075962 10.35626,13.434618 10.35625,10.075963 10.35624,-33.586543 10.35626,30.227888 10.35674,-6.717308 10.35626,-20.151927 10.35625,-6.717309 10.35624,23.510581 10.35625,6.717309 10.35626,-10.075964 10.35674,3.358655 h 10.35626 10.35625 l 10.35624,16.793271 10.35626,-30.227888 10.35624,20.151926 10.35676,-13.434618 h 10.35625 l 10.35624,6.717309 10.35625,-13.434617 10.35626,-3.358655 10.35624,-6.717309 10.35676,-3.358654"
     style="fill:none;stroke:#66c2a3;stroke-width:4.34385967;stroke-dasharray:4.34385962, 2.17192981;stroke-opacity:1"
     id="path1897"
     inkscape:connector-curvature="0" />
  <path
     d="m 278.89023,140.00974 10.35625,3.35866 10.35625,3.35866 10.35625,-16.79329 10.35623,10.07597 h 10.35626 l 10.35625,3.35866 10.35676,-33.58655 10.35625,20.15192 10.35623,-40.303842 10.35625,33.586542 10.35626,13.43462 10.35625,-26.86924 10.35676,26.86924 10.35624,13.43461 10.35624,-26.86923 10.35626,26.86923 10.35625,-36.94519 10.35624,16.79326 10.35677,-26.86923 10.35623,33.58655 10.35626,-10.07596 10.35625,10.07596 10.35625,13.43461 10.35624,33.58655 10.35675,-33.58655 10.35625,-26.86923 10.35626,16.79327 10.35625,16.79327 10.35624,-23.51057 10.35626,-10.07597 10.35674,10.07597 10.35626,-13.43462 10.35625,-30.227892 10.35624,40.303842 10.35625,6.71732 10.35626,-3.35865 10.35674,-13.43462 10.35626,23.51058 10.35625,-3.35866 h 10.35624 l 10.35626,-13.43461 10.35624,-13.43462 10.35676,63.81443 10.35625,-30.22788 10.35624,6.7173 10.35625,-47.02116 10.35626,33.58654 10.35624,-10.07597 h 10.35676"
     style="fill:none;stroke:#fa8c61;stroke-width:4.34385967;stroke-opacity:1"
     id="path1909"
     inkscape:connector-curvature="0" />
  <path
     d="m 278.89023,146.72706 10.35625,6.7173 h 10.35625 l 10.35625,-13.43462 10.35623,3.35866 10.35626,13.43461 10.35625,10.07596 10.35676,-50.37981 10.35625,-6.71731 h 10.35623 l 10.35625,47.02116 10.35626,-6.71731 10.35625,-33.58654 10.35676,30.2279 h 10.35624 l 10.35624,-13.43462 10.35626,30.22789 10.35625,-50.37982 10.35624,16.79326 10.35677,-20.15192 10.35623,50.37981 10.35626,-3.35865 10.35625,-6.71731 10.35625,23.51058 10.35624,13.43462 10.35675,-26.86924 10.35625,-20.15192 10.35626,6.71732 10.35625,16.79327 10.35624,-23.51059 10.35626,16.79327 10.35674,-13.43461 10.35626,-16.79327 10.35625,-20.15193 10.35624,33.58654 h 10.35625 l 10.35626,26.86923 10.35674,-33.58653 10.35626,10.07596 10.35625,6.7173 10.35624,3.35866 10.35626,-23.51059 10.35624,16.79329 10.35676,26.86922 10.35625,-20.15192 10.35624,3.35865 10.35625,-50.37981 10.35626,47.02116 10.35624,-13.43462 10.35676,3.35866"
     style="fill:none;stroke:#fa8c61;stroke-width:3.25789475;stroke-opacity:1"
     id="path1921"
     inkscape:connector-curvature="0" />
  <path
     d="m 278.89023,133.29244 10.35625,16.79326 h 10.35625 l 10.35625,-6.7173 10.35623,6.7173 10.35626,10.07596 10.35625,3.35867 10.35676,-16.79327 10.35625,-23.51059 10.35623,-6.71731 10.35625,10.07597 10.35626,10.07596 10.35625,-20.15193 10.35676,23.51058 10.35624,16.79327 10.35624,-3.35865 10.35626,-3.35866 10.35625,-30.22788 10.35624,30.22788 10.35677,-40.30385 10.35623,47.02116 10.35626,-23.51057 10.35625,26.86922 10.35625,3.35867 10.35624,13.43461 10.35675,-40.30385 10.35625,10.07597 10.35626,-3.35866 10.35625,13.43461 10.35624,-16.79327 10.35626,3.35866 10.35674,13.43461 10.35626,-40.30385 10.35625,-3.35865 10.35624,33.58655 10.35625,10.07595 10.35626,13.43462 10.35674,-47.02116 10.35626,20.15193 10.35625,16.79326 10.35624,-3.35865 10.35626,-26.86924 10.35624,-3.35864 10.35676,43.6625 10.35625,-16.79327 10.35624,3.35865 10.35625,-36.94519 10.35626,23.51058 10.35624,-16.79327 10.35676,6.71731"
     style="fill:none;stroke:#fa8c61;stroke-width:2.17192984;stroke-opacity:1"
     id="path1933"
     inkscape:connector-curvature="0" />
  <path
     d="m 278.89023,113.14051 10.35625,20.15193 10.35625,-6.71731 h 10.35625 l 10.35623,-6.71731 10.35626,23.51058 10.35625,20.15193 10.35676,-26.86924 10.35625,-13.43462 10.35623,-16.79327 10.35625,3.35865 10.35626,13.43462 10.35625,-13.43462 10.35676,3.35866 10.35624,36.94519 10.35624,-6.7173 10.35626,-23.51058 10.35625,16.79327 10.35624,3.35865 10.35677,-50.379812 10.35623,67.173082 10.35626,-26.86924 10.35625,36.9452 10.35625,-20.15191 10.35624,30.22788 10.35675,-60.45578 10.35625,16.79328 10.35626,-6.71731 10.35625,16.79327 10.35624,-23.51058 10.35626,23.51058 10.35674,10.07596 10.35626,-36.9452 10.35625,-6.71731 10.35624,20.15192 10.35625,10.07597 10.35626,23.51059 10.35674,-47.02117 10.35626,23.51058 10.35625,10.07596 10.35624,-3.35864 10.35626,-26.86924 10.35624,-3.35866 10.35676,30.2279 10.35625,3.35864 10.35624,-3.35864 10.35625,-16.79329 10.35626,-13.43461 10.35624,6.71731 10.35676,26.86923"
     style="fill:none;stroke:#fa8c61;stroke-width:1.62894738;stroke-opacity:1"
     id="path1945"
     inkscape:connector-curvature="0" />
  <line
     x1="278.89023"
     x2="786.35046"
     y1="214.68382"
     y2="214.68382"
     id="line1959"
     style="stroke-width:1.08596492" />
  <line
     id="line1961"
     y2="209.254"
     y1="214.68382"
     x2="304.26321"
     x1="304.26321"
     style="stroke-width:1.08596492" />
  <line
     id="line1963"
     y2="209.254"
     y1="214.68382"
     x2="323.29297"
     x1="323.29297"
     style="stroke-width:1.08596492" />
  <line
     id="line1965"
     y2="209.254"
     y1="214.68382"
     x2="342.32275"
     x1="342.32275"
     style="stroke-width:1.08596492" />
  <line
     id="line1967"
     y2="209.254"
     y1="214.68382"
     x2="361.35254"
     x1="361.35254"
     style="stroke-width:1.08596492" />
  <line
     id="line1969"
     y2="209.254"
     y1="214.68382"
     x2="380.38226"
     x1="380.38226"
     style="stroke-width:1.08596492" />
  <line
     id="line1971"
     y2="209.254"
     y1="214.68382"
     x2="399.41205"
     x1="399.41205"
     style="stroke-width:1.08596492" />
  <line
     id="line1973"
     y2="209.254"
     y1="214.68382"
     x2="418.4418"
     x1="418.4418"
     style="stroke-width:1.08596492" />
  <line
     id="line1975"
     y2="209.254"
     y1="214.68382"
     x2="437.47153"
     x1="437.47153"
     style="stroke-width:1.08596492" />
  <line
     id="line1977"
     y2="209.254"
     y1="214.68382"
     x2="456.50131"
     x1="456.50131"
     style="stroke-width:1.08596492" />
  <line
     id="line1979"
     y2="209.254"
     y1="214.68382"
     x2="475.5311"
     x1="475.5311"
     style="stroke-width:1.08596492" />
  <line
     id="line1981"
     y2="209.254"
     y1="214.68382"
     x2="494.56082"
     x1="494.56082"
     style="stroke-width:1.08596492" />
  <line
     id="line1983"
     y2="209.254"
     y1="214.68382"
     x2="513.59058"
     x1="513.59058"
     style="stroke-width:1.08596492" />
  <line
     id="line1985"
     y2="209.254"
     y1="214.68382"
     x2="532.62036"
     x1="532.62036"
     style="stroke-width:1.08596492" />
  <line
     id="line1987"
     y2="209.254"
     y1="214.68382"
     x2="551.65009"
     x1="551.65009"
     style="stroke-width:1.08596492" />
  <line
     id="line1989"
     y2="209.254"
     y1="214.68382"
     x2="570.67987"
     x1="570.67987"
     style="stroke-width:1.08596492" />
  <line
     id="line1991"
     y2="209.254"
     y1="214.68382"
     x2="589.70959"
     x1="589.70959"
     style="stroke-width:1.08596492" />
  <line
     id="line1993"
     y2="209.254"
     y1="214.68382"
     x2="608.73938"
     x1="608.73938"
     style="stroke-width:1.08596492" />
  <line
     id="line1995"
     y2="209.254"
     y1="214.68382"
     x2="627.76917"
     x1="627.76917"
     style="stroke-width:1.08596492" />
  <line
     id="line1997"
     y2="209.254"
     y1="214.68382"
     x2="646.79889"
     x1="646.79889"
     style="stroke-width:1.08596492" />
  <line
     id="line1999"
     y2="209.254"
     y1="214.68382"
     x2="665.82867"
     x1="665.82867"
     style="stroke-width:1.08596492" />
  <line
     id="line2001"
     y2="209.254"
     y1="214.68382"
     x2="684.85846"
     x1="684.85846"
     style="stroke-width:1.08596492" />
  <line
     id="line2003"
     y2="209.254"
     y1="214.68382"
     x2="703.88806"
     x1="703.88806"
     style="stroke-width:1.08596492" />
  <line
     id="line2005"
     y2="209.254"
     y1="214.68382"
     x2="722.91785"
     x1="722.91785"
     style="stroke-width:1.08596492" />
  <line
     id="line2007"
     y2="209.254"
     y1="214.68382"
     x2="741.94763"
     x1="741.94763"
     style="stroke-width:1.08596492" />
  <line
     id="line2009"
     y2="209.254"
     y1="214.68382"
     x2="760.97742"
     x1="760.97742"
     style="stroke-width:1.08596492" />
  <text
     id="text2015"
     y="241.03586"
     x="482.31754"
     style="font-weight:bold;font-size:13.03157902px;font-family:helvetica;white-space:pre;fill:#282623;fill-opacity:1;stroke:none;stroke-width:1.08596492">chromosome position</text>
  <text
     id="text2021"
     y="209.98343"
     x="296.01056"
     style="font-weight:normal;font-size:10.30755424px;text-anchor:middle;visibility:hidden;fill:#6e7f8f;fill-opacity:1;stroke:none;stroke-width:1.0307554" />
  <line
     x1="268.03058"
     x2="268.03058"
     y1="187.03091"
     y2="49.326084"
     id="line2026"
     style="stroke-width:1.08596492" />
  <line
     id="line2028"
     y2="203.82417"
     y1="203.82417"
     x2="273.46039"
     x1="268.03058"
     style="stroke-width:1.08596492" />
  <line
     id="line2030"
     y2="171.24522"
     y1="171.24522"
     x2="273.46039"
     x1="268.03058"
     style="stroke-width:1.08596492" />
  <line
     id="line2032"
     y2="138.66628"
     y1="138.66628"
     x2="273.46039"
     x1="268.03058"
     style="stroke-width:1.08596492" />
  <line
     id="line2034"
     y2="106.08734"
     y1="106.08734"
     x2="273.46039"
     x1="268.03058"
     style="stroke-width:1.08596492" />
  <line
     id="line2036"
     y2="73.508385"
     y1="73.508385"
     x2="273.46039"
     x1="268.03058"
     style="stroke-width:1.08596492" />
  <line
     id="line2038"
     y2="40.92944"
     y1="40.92944"
     x2="273.46039"
     x1="268.03058"
     style="stroke-width:1.08596492" />
  <text
     transform="rotate(-90)"
     style="font-weight:normal;font-size:10.8596487px;font-family:helvetica;white-space:pre;fill:#282623;fill-opacity:1;stroke:none;stroke-width:1.08596492"
     x="-211.37163"
     y="261.51477"
     id="text2042">0.0</text>
  <text
     transform="rotate(-90)"
     style="font-weight:normal;font-size:10.8596487px;font-family:helvetica;white-space:pre;fill:#282623;fill-opacity:1;stroke:none;stroke-width:1.08596492"
     x="-178.79268"
     y="261.51477"
     id="text2046">0.1</text>
  <text
     transform="rotate(-90)"
     style="font-weight:normal;font-size:10.8596487px;font-family:helvetica;white-space:pre;fill:#282623;fill-opacity:1;stroke:none;stroke-width:1.08596492"
     x="-146.21373"
     y="261.51477"
     id="text2050">0.2</text>
  <text
     transform="rotate(-90)"
     style="font-weight:normal;font-size:10.8596487px;font-family:helvetica;white-space:pre;fill:#282623;fill-opacity:1;stroke:none;stroke-width:1.08596492"
     x="-113.63478"
     y="261.51477"
     id="text2054">0.3</text>
  <text
     transform="rotate(-90)"
     style="font-weight:normal;font-size:10.8596487px;font-family:helvetica;white-space:pre;fill:#282623;fill-opacity:1;stroke:none;stroke-width:1.08596492"
     x="-81.055832"
     y="261.51477"
     id="text2058">0.4</text>
  <text
     transform="rotate(-90)"
     style="font-weight:normal;font-size:10.8596487px;font-family:helvetica;white-space:pre;fill:#282623;fill-opacity:1;stroke:none;stroke-width:1.08596492"
     x="-48.476894"
     y="261.51477"
     id="text2062">0.5</text>
  <text
     transform="rotate(-90)"
     id="text2068"
     y="242.07785"
     x="-177.20737"
     style="font-weight:bold;font-size:13.03157902px;font-family:helvetica;white-space:pre;fill:#282623;fill-opacity:1;stroke:none;stroke-width:1.08596492">Scaled RF distance</text>
  <text
     id="text1674"
     y="37.129391"
     x="836.58258"
     style="font-style:normal;font-variant:normal;font-weight:normal;font-stretch:normal;font-size:11.90373993px;font-family:sans-serif;-inkscape-font-specification:sans-serif;white-space:pre;opacity:1;fill:#66c2a3;fill-opacity:1;stroke:none;stroke-width:1.11597574;stroke-opacity:1">
    <tspan
       id="tspan1676"
       style="font-style:normal;font-variant:normal;font-weight:bold;font-stretch:normal;font-family:sans-serif;-inkscape-font-specification:sans-serif;fill:#333333;stroke-width:1.11597574">window</tspan>
  </text>
  <text
     style="font-style:normal;font-variant:normal;font-weight:normal;font-stretch:normal;font-size:11.90373993px;font-family:sans-serif;-inkscape-font-specification:sans-serif;white-space:pre;opacity:1;fill:#66c2a3;fill-opacity:1;stroke:none;stroke-width:1.11597574;stroke-opacity:1"
     x="903.27429"
     y="37.129391"
     id="text3646">
    <tspan
       style="font-style:normal;font-variant:normal;font-weight:bold;font-stretch:normal;font-family:sans-serif;-inkscape-font-specification:sans-serif;fill:#333333;stroke-width:1.11597574"
       id="tspan3644">weight</tspan>
  </text>
  <text
     id="text3668"
     y="37.129391"
     x="962.46533"
     style="font-style:normal;font-variant:normal;font-weight:normal;font-stretch:normal;font-size:11.90373993px;font-family:sans-serif;-inkscape-font-specification:sans-serif;white-space:pre;opacity:1;fill:#66c2a3;fill-opacity:1;stroke:none;stroke-width:1.11597574;stroke-opacity:1">
    <tspan
       id="tspan3666"
       style="font-style:normal;font-variant:normal;font-weight:bold;font-stretch:normal;font-family:sans-serif;-inkscape-font-specification:sans-serif;fill:#333333;stroke-width:1.11597574">RF</tspan>
  </text>
  <text
     style="font-style:normal;font-variant:normal;font-weight:normal;font-stretch:normal;font-size:11.90373993px;font-family:sans-serif;-inkscape-font-specification:sans-serif;white-space:pre;opacity:1;fill:#287058;fill-opacity:1;stroke:none;stroke-width:5.57987833;stroke-miterlimit:4;stroke-dasharray:none;stroke-opacity:1"
     x="836.98102"
     y="55.574219"
     id="text2812">1000000</text>
  <text
     id="text3648"
     y="55.574219"
     x="903.86023"
     style="font-style:normal;font-variant:normal;font-weight:normal;font-stretch:normal;font-size:11.90373993px;font-family:sans-serif;-inkscape-font-specification:sans-serif;white-space:pre;opacity:1;fill:#287058;fill-opacity:1;stroke:none;stroke-width:5.57987833;stroke-miterlimit:4;stroke-dasharray:none;stroke-opacity:1">None</text>
  <text
     style="font-style:normal;font-variant:normal;font-weight:normal;font-stretch:normal;font-size:11.90373993px;font-family:sans-serif;-inkscape-font-specification:sans-serif;white-space:pre;opacity:1;fill:#287058;fill-opacity:1;stroke:none;stroke-width:5.57987833;stroke-miterlimit:4;stroke-dasharray:none;stroke-opacity:1"
     x="963.2467"
     y="55.574219"
     id="text3706">0.42</text>
  <text
     style="font-style:normal;font-variant:normal;font-weight:normal;font-stretch:normal;font-size:11.90373993px;font-family:sans-serif;-inkscape-font-specification:sans-serif;white-space:pre;opacity:1;fill:#287058;fill-opacity:1;stroke:none;stroke-width:5.57987833;stroke-miterlimit:4;stroke-dasharray:none;stroke-opacity:1"
     x="836.98102"
     y="70.024147"
     id="text2824">100000</text>
  <text
     id="text3650"
     y="70.024147"
     x="903.86023"
     style="font-style:normal;font-variant:normal;font-weight:normal;font-stretch:normal;font-size:11.90373993px;font-family:sans-serif;-inkscape-font-specification:sans-serif;white-space:pre;opacity:1;fill:#287058;fill-opacity:1;stroke:none;stroke-width:5.57987833;stroke-miterlimit:4;stroke-dasharray:none;stroke-opacity:1">None</text>
  <text
     style="font-style:normal;font-variant:normal;font-weight:normal;font-stretch:normal;font-size:11.90373993px;font-family:sans-serif;-inkscape-font-specification:sans-serif;white-space:pre;opacity:1;fill:#287058;fill-opacity:1;stroke:none;stroke-width:5.57987833;stroke-miterlimit:4;stroke-dasharray:none;stroke-opacity:1"
     x="963.2467"
     y="70.024147"
     id="text3708">0.41</text>
  <text
     style="font-style:normal;font-variant:normal;font-weight:normal;font-stretch:normal;font-size:11.90373993px;font-family:sans-serif;-inkscape-font-specification:sans-serif;white-space:pre;opacity:1;fill:#287058;fill-opacity:1;stroke:none;stroke-width:5.57987833;stroke-miterlimit:4;stroke-dasharray:none;stroke-opacity:1"
     x="836.98102"
     y="84.47403"
     id="text2836">25000</text>
  <text
     id="text3652"
     y="84.47403"
     x="903.86023"
     style="font-style:normal;font-variant:normal;font-weight:normal;font-stretch:normal;font-size:11.90373993px;font-family:sans-serif;-inkscape-font-specification:sans-serif;white-space:pre;opacity:1;fill:#287058;fill-opacity:1;stroke:none;stroke-width:5.57987833;stroke-miterlimit:4;stroke-dasharray:none;stroke-opacity:1">None</text>
  <text
     style="font-style:normal;font-variant:normal;font-weight:normal;font-stretch:normal;font-size:11.90373993px;font-family:sans-serif;-inkscape-font-specification:sans-serif;white-space:pre;opacity:1;fill:#287058;fill-opacity:1;stroke:none;stroke-width:5.57987833;stroke-miterlimit:4;stroke-dasharray:none;stroke-opacity:1"
     x="963.2467"
     y="84.47403"
     id="text3710">0.37</text>
  <text
     style="font-style:normal;font-variant:normal;font-weight:normal;font-stretch:normal;font-size:11.90373993px;font-family:sans-serif;-inkscape-font-specification:sans-serif;white-space:pre;opacity:1;fill:#287058;fill-opacity:1;stroke:none;stroke-width:5.57987833;stroke-miterlimit:4;stroke-dasharray:none;stroke-opacity:1"
     x="836.98102"
     y="98.923943"
     id="text2848">10000</text>
  <text
     id="text3654"
     y="98.923943"
     x="903.86023"
     style="font-style:normal;font-variant:normal;font-weight:normal;font-stretch:normal;font-size:11.90373993px;font-family:sans-serif;-inkscape-font-specification:sans-serif;white-space:pre;opacity:1;fill:#287058;fill-opacity:1;stroke:none;stroke-width:5.57987833;stroke-miterlimit:4;stroke-dasharray:none;stroke-opacity:1">None</text>
  <text
     style="font-style:normal;font-variant:normal;font-weight:normal;font-stretch:normal;font-size:11.90373993px;font-family:sans-serif;-inkscape-font-specification:sans-serif;white-space:pre;opacity:1;fill:#287058;fill-opacity:1;stroke:none;stroke-width:5.57987833;stroke-miterlimit:4;stroke-dasharray:none;stroke-opacity:1"
     x="963.2467"
     y="98.923943"
     id="text3712">0.31</text>
  <text
     style="font-style:normal;font-variant:normal;font-weight:normal;font-stretch:normal;font-size:11.90373993px;font-family:sans-serif;-inkscape-font-specification:sans-serif;white-space:pre;opacity:1;fill:#287058;fill-opacity:1;stroke:none;stroke-width:5.57987833;stroke-miterlimit:4;stroke-dasharray:none;stroke-opacity:1"
     x="836.98102"
     y="113.37386"
     id="text2860">2500</text>
  <text
     id="text3656"
     y="127.82374"
     x="903.86023"
     style="font-style:normal;font-variant:normal;font-weight:normal;font-stretch:normal;font-size:11.90373993px;font-family:sans-serif;-inkscape-font-specification:sans-serif;white-space:pre;opacity:1;fill:#287058;fill-opacity:1;stroke:none;stroke-width:5.57987833;stroke-miterlimit:4;stroke-dasharray:none;stroke-opacity:1">None</text>
  <text
     style="font-style:normal;font-variant:normal;font-weight:normal;font-stretch:normal;font-size:11.90373993px;font-family:sans-serif;-inkscape-font-specification:sans-serif;white-space:pre;opacity:1;fill:#287058;fill-opacity:1;stroke:none;stroke-width:5.57987833;stroke-miterlimit:4;stroke-dasharray:none;stroke-opacity:1"
     x="963.2467"
     y="113.37386"
     id="text3714">0.22</text>
  <text
     style="font-style:normal;font-variant:normal;font-weight:normal;font-stretch:normal;font-size:11.90373993px;font-family:sans-serif;-inkscape-font-specification:sans-serif;white-space:pre;opacity:1;fill:#287058;fill-opacity:1;stroke:none;stroke-width:5.57987833;stroke-miterlimit:4;stroke-dasharray:none;stroke-opacity:1"
     x="836.98102"
     y="127.82372"
     id="text2872">1000</text>
  <text
     id="text3658"
     y="113.37386"
     x="903.86023"
     style="font-style:normal;font-variant:normal;font-weight:normal;font-stretch:normal;font-size:11.90373993px;font-family:sans-serif;-inkscape-font-specification:sans-serif;white-space:pre;opacity:1;fill:#287058;fill-opacity:1;stroke:none;stroke-width:5.57987833;stroke-miterlimit:4;stroke-dasharray:none;stroke-opacity:1">None</text>
  <text
     style="font-style:normal;font-variant:normal;font-weight:normal;font-stretch:normal;font-size:11.90373993px;font-family:sans-serif;-inkscape-font-specification:sans-serif;white-space:pre;opacity:1;fill:#287058;fill-opacity:1;stroke:none;stroke-width:5.57987833;stroke-miterlimit:4;stroke-dasharray:none;stroke-opacity:1"
     x="963.2467"
     y="127.82372"
     id="text3716">0.26</text>
  <text
     style="font-style:normal;font-variant:normal;font-weight:normal;font-stretch:normal;font-size:11.90373993px;font-family:sans-serif;-inkscape-font-specification:sans-serif;white-space:pre;opacity:1;fill:#ac694f;fill-opacity:1;stroke:none;stroke-width:1.11597574;stroke-opacity:1"
     x="836.98102"
     y="156.72354"
     id="text2896">9773</text>
  <text
     id="text3662"
     y="156.9328"
     x="903.86023"
     style="font-style:normal;font-variant:normal;font-weight:normal;font-stretch:normal;font-size:11.90373993px;font-family:sans-serif;-inkscape-font-specification:sans-serif;white-space:pre;opacity:1;fill:#ac694f;fill-opacity:1;stroke:none;stroke-width:1.11597574;stroke-opacity:1">5位<tspan
   style="font-size:7.73743105px;baseline-shift:sub;stroke-width:1.11597574"
   id="tspan3851">p</tspan>
</text>
  <text
     style="font-style:normal;font-variant:normal;font-weight:normal;font-stretch:normal;font-size:11.90373993px;font-family:sans-serif;-inkscape-font-specification:sans-serif;white-space:pre;opacity:1;fill:#ac694f;fill-opacity:1;stroke:none;stroke-width:1.11597574;stroke-opacity:1"
     x="963.2467"
     y="156.72354"
     id="text3720">0.18</text>
  <text
     style="font-style:normal;font-variant:normal;font-weight:normal;font-stretch:normal;font-size:11.90373993px;font-family:sans-serif;-inkscape-font-specification:sans-serif;white-space:pre;opacity:1;fill:#ac694f;fill-opacity:1;stroke:none;stroke-width:1.11597574;stroke-opacity:1"
     x="836.98102"
     y="142.27365"
     id="text2884">4887</text>
  <text
     style="font-style:normal;font-variant:normal;font-weight:normal;font-stretch:normal;font-size:11.90373993px;font-family:sans-serif;-inkscape-font-specification:sans-serif;white-space:pre;opacity:1;fill:#ac694f;fill-opacity:1;stroke:none;stroke-width:1.11597574;stroke-opacity:1"
     x="963.2467"
     y="142.27365"
     id="text3718">0.21</text>
  <text
     id="text3664"
     y="142.48293"
     x="903.86023"
     style="font-style:normal;font-variant:normal;font-weight:normal;font-stretch:normal;font-size:11.90373993px;font-family:sans-serif;-inkscape-font-specification:sans-serif;white-space:pre;opacity:1;fill:#ac694f;fill-opacity:1;stroke:none;stroke-width:1.11597574;stroke-opacity:1">10位<tspan
   style="font-size:7.73743105px;baseline-shift:sub;stroke-width:1.11597574"
   id="tspan3853">p</tspan>
</text>
  <text
     id="text3660"
     y="186.58621"
     x="903.86023"
     style="font-style:normal;font-variant:normal;font-weight:normal;font-stretch:normal;font-size:11.90373993px;font-family:sans-serif;-inkscape-font-specification:sans-serif;white-space:pre;opacity:1;fill:#ac694f;fill-opacity:1;stroke:none;stroke-width:1.11597574;stroke-opacity:1">位<tspan
   style="font-size:7.73743105px;baseline-shift:sub;stroke-width:1.11597574"
   id="tspan3849">p</tspan>
</text>
  <text
     style="font-style:normal;font-variant:normal;font-weight:normal;font-stretch:normal;font-size:11.90373993px;font-family:sans-serif;-inkscape-font-specification:sans-serif;white-space:pre;opacity:1;fill:#ac694f;fill-opacity:1;stroke:none;stroke-width:1.11597574;stroke-opacity:1"
     x="836.98102"
     y="186.37697"
     id="text2908">48867</text>
  <text
     style="font-style:normal;font-variant:normal;font-weight:normal;font-stretch:normal;font-size:11.90373993px;font-family:sans-serif;-inkscape-font-specification:sans-serif;white-space:pre;opacity:1;fill:#ac694f;fill-opacity:1;stroke:none;stroke-width:1.11597574;stroke-opacity:1"
     x="963.2467"
     y="186.37697"
     id="text3722">0.22</text>
  <path
     sodipodi:nodetypes="cc"
     inkscape:connector-curvature="0"
     id="path3876"
     d="M 811.40092,182.14029 H 828.9081"
     style="font-size:12px;font-family:Helvetica;opacity:1;fill:#fa8c61;fill-opacity:1;stroke:#fa8c61;stroke-width:4.34385967;stroke-linecap:butt;stroke-linejoin:miter;stroke-miterlimit:4;stroke-dasharray:none;stroke-opacity:1" />
  <path
     sodipodi:nodetypes="cc"
     style="font-size:12px;font-family:Helvetica;opacity:1;fill:#fa8c61;fill-opacity:1;stroke:#fa8c61;stroke-width:2.71491218;stroke-linecap:butt;stroke-linejoin:miter;stroke-miterlimit:4;stroke-dasharray:none;stroke-opacity:1"
     d="M 811.40092,153.36222 H 828.9081"
     id="path3878"
     inkscape:connector-curvature="0" />
  <path
     sodipodi:nodetypes="cc"
     inkscape:connector-curvature="0"
     id="path3880"
     d="M 811.40092,138.7017 H 828.9081"
     style="font-size:12px;font-family:Helvetica;opacity:1;fill:#fa8c61;fill-opacity:1;stroke:#fa8c61;stroke-width:1.62894738;stroke-linecap:butt;stroke-linejoin:miter;stroke-miterlimit:4;stroke-dasharray:none;stroke-opacity:1" />
  <path
     sodipodi:nodetypes="cc"
     style="font-size:12px;font-family:Helvetica;opacity:1;fill:#66c2a3;fill-opacity:1;stroke:#66c2a3;stroke-width:2.17192984;stroke-linecap:butt;stroke-linejoin:miter;stroke-miterlimit:4;stroke-dasharray:4.34385962, 2.17192981;stroke-dashoffset:6;stroke-opacity:1"
     d="M 811.40092,109.72269 H 828.9081"
     id="path3882"
     inkscape:connector-curvature="0" />
  <path
     sodipodi:nodetypes="cc"
     inkscape:connector-curvature="0"
     id="path3884"
     d="M 811.40092,124.31266 H 828.9081"
     style="font-size:12px;font-family:Helvetica;opacity:1;fill:#66c2a3;fill-opacity:1;stroke:#66c2a3;stroke-width:1.62894738;stroke-linecap:butt;stroke-linejoin:miter;stroke-miterlimit:4;stroke-dasharray:3.25789472, 1.62894735;stroke-dashoffset:4.5;stroke-opacity:1" />
  <path
     style="font-size:12px;font-family:Helvetica;opacity:1;fill:#66c2a3;fill-opacity:1;stroke:#66c2a3;stroke-width:2.71491218;stroke-linecap:butt;stroke-linejoin:miter;stroke-miterlimit:4;stroke-dasharray:5.42982453, 2.71491226;stroke-dashoffset:7.5;stroke-opacity:1"
     d="M 811.40092,94.790673 H 828.9081"
     id="path3886"
     inkscape:connector-curvature="0"
     sodipodi:nodetypes="cc" />
  <path
     sodipodi:nodetypes="cc"
     inkscape:connector-curvature="0"
     id="path3888"
     d="M 811.40092,80.673129 H 828.9081"
     style="font-size:12px;font-family:Helvetica;opacity:1;fill:#66c2a3;fill-opacity:1;stroke:#66c2a3;stroke-width:3.25789475;stroke-linecap:butt;stroke-linejoin:miter;stroke-miterlimit:4;stroke-dasharray:6.51578943, 3.25789472;stroke-dashoffset:9;stroke-opacity:1" />
  <path
     style="font-size:12px;font-family:Helvetica;opacity:1;fill:#66c2a3;fill-opacity:1;stroke:#66c2a3;stroke-width:3.80087709;stroke-linecap:butt;stroke-linejoin:miter;stroke-miterlimit:4;stroke-dasharray:7.60175434, 3.80087718;stroke-dashoffset:10.5;stroke-opacity:1"
     d="M 811.40092,66.012603 H 828.9081"
     id="path3890"
     inkscape:connector-curvature="0"
     sodipodi:nodetypes="cc" />
  <path
     sodipodi:nodetypes="cc"
     inkscape:connector-curvature="0"
     id="path3892"
     d="M 811.40092,50.80909 H 828.9081"
     style="font-size:12px;font-family:Helvetica;opacity:1;fill:#66c2a3;fill-opacity:1;stroke:#66c2a3;stroke-width:4.452456;stroke-linecap:butt;stroke-linejoin:miter;stroke-miterlimit:4;stroke-dasharray:8.90491223, 4.45245611;stroke-dashoffset:12.30000019;stroke-opacity:1" />
  <text
     transform="rotate(-90)"
     id="text2074"
     y="291.88751"
     x="-205.86041"
     style="font-weight:normal;font-size:10.30755424px;text-anchor:middle;visibility:hidden;fill:#6e7f8f;fill-opacity:1;stroke:none;stroke-width:1.0307554" />
  <text
     style="font-style:normal;font-variant:normal;font-weight:normal;font-stretch:normal;font-size:11.90373993px;font-family:sans-serif;-inkscape-font-specification:sans-serif;white-space:pre;opacity:1;fill:#ac694f;fill-opacity:1;stroke:none;stroke-width:1.11597574;stroke-opacity:1"
     x="903.86023"
     y="171.38272"
     id="text3729">2位<tspan
   id="tspan3727"
   style="font-size:7.73743105px;baseline-shift:sub;stroke-width:1.11597574">p</tspan>
</text>
  <text
     id="text3731"
     y="171.17345"
     x="836.98102"
     style="font-style:normal;font-variant:normal;font-weight:normal;font-stretch:normal;font-size:11.90373993px;font-family:sans-serif;-inkscape-font-specification:sans-serif;white-space:pre;opacity:1;fill:#ac694f;fill-opacity:1;stroke:none;stroke-width:1.11597574;stroke-opacity:1">24433</text>
  <text
     id="text3733"
     y="171.17345"
     x="963.2467"
     style="font-style:normal;font-variant:normal;font-weight:normal;font-stretch:normal;font-size:11.90373993px;font-family:sans-serif;-inkscape-font-specification:sans-serif;white-space:pre;opacity:1;fill:#ac694f;fill-opacity:1;stroke:none;stroke-width:1.11597574;stroke-opacity:1">0.19</text>
  <path
     style="font-size:12px;font-family:Helvetica;opacity:1;fill:#fa8c61;fill-opacity:1;stroke:#fa8c61;stroke-width:3.58368421;stroke-linecap:butt;stroke-linejoin:miter;stroke-miterlimit:4;stroke-dasharray:none;stroke-opacity:1"
     d="M 811.40092,166.93678 H 828.9081"
     id="path3735"
     inkscape:connector-curvature="0"
     sodipodi:nodetypes="cc" />
  <line
     x1="73.405113"
     x2="73.405113"
     y1="215.61934"
     y2="210.18951"
     id="line3753"
     style="stroke-width:1.08596492" />
  <line
     x1="92.43486"
     x2="92.43486"
     y1="215.61934"
     y2="210.18951"
     id="line3755"
     style="stroke-width:1.08596492" />
  <line
     x1="111.46464"
     x2="111.46464"
     y1="215.61934"
     y2="210.18951"
     id="line3757"
     style="stroke-width:1.08596492" />
  <line
     x1="130.4944"
     x2="130.4944"
     y1="215.61934"
     y2="210.18951"
     id="line3759"
     style="stroke-width:1.08596492" />
  <line
     x1="149.52414"
     x2="149.52414"
     y1="215.61934"
     y2="210.18951"
     id="line3761"
     style="stroke-width:1.08596492" />
  <line
     x1="168.55389"
     x2="168.55389"
     y1="215.61934"
     y2="210.18951"
     id="line3763"
     style="stroke-width:1.08596492" />
  <path
     sodipodi:nodetypes="cc"
     inkscape:connector-curvature="0"
     id="path3765"
     d="M 55.687895,215.61935 H 186.55777"
     style="fill:none;stroke:#000000;stroke-width:1.08596492px;stroke-linecap:butt;stroke-linejoin:miter;stroke-opacity:1" />
  <text
     style="font-weight:normal;font-size:6.17483234px;font-family:Helvetica;text-anchor:middle;visibility:hidden;fill:#6e7f8f;fill-opacity:1;stroke:none;stroke-width:0.61748326;stroke-opacity:1"
     x="98.84581"
     y="194.05302"
     id="text3922" />
  <text
     transform="rotate(-90)"
     style="font-weight:normal;font-size:6.17483234px;font-family:Helvetica;text-anchor:middle;visibility:hidden;fill:#6e7f8f;fill-opacity:1;stroke:none;stroke-width:0.61748326;stroke-opacity:1"
     x="-191.5831"
     y="96.375877"
     id="text3945" />
  <line
     id="line4146"
     y2="49.326084"
     y1="187.03091"
     x2="39.564766"
     x1="39.564766"
     style="stroke-width:1.08596492" />
  <line
     x1="39.564766"
     x2="44.994591"
     y1="171.24522"
     y2="171.24522"
     id="line4150"
     style="stroke-width:1.08596492" />
  <line
     x1="39.564766"
     x2="44.994591"
     y1="138.66628"
     y2="138.66628"
     id="line4152"
     style="stroke-width:1.08596492" />
  <line
     x1="39.564766"
     x2="44.994591"
     y1="106.08734"
     y2="106.08734"
     id="line4154"
     style="stroke-width:1.08596492" />
  <line
     x1="39.564766"
     x2="44.994591"
     y1="73.508385"
     y2="73.508385"
     id="line4156"
     style="stroke-width:1.08596492" />
  <text
     style="font-weight:bold;font-size:13.03157902px;font-family:helvetica;white-space:pre;fill:#282623;fill-opacity:1;stroke:none;stroke-width:1.08596492"
     x="-161.68291"
     y="26.533178"
     id="text4172"
     transform="rotate(-90)">Site weights</text>
  <text
     style="font-weight:bold;font-size:13.03157902px;font-family:helvetica;white-space:pre;fill:#282623;fill-opacity:1;stroke:none;stroke-width:1.08596492"
     x="50.814495"
     y="241.03586"
     id="text4174">chromosome position</text>
  <text
     xml:space="preserve"
     style="font-style:normal;font-weight:normal;font-size:23.16725349px;line-height:1.25;font-family:sans-serif;letter-spacing:0px;word-spacing:0px;fill:#000000;fill-opacity:1;stroke:none;stroke-width:1.08596492"
     x="5.4088039"
     y="27.05279"
     id="text4178"><tspan
       sodipodi:role="line"
       id="tspan4176"
       x="5.4088039"
       y="27.05279"
       style="stroke-width:1.08596492">(a)</tspan></text>
  <text
     id="text4182"
     y="27.05279"
     x="220.30667"
     style="font-style:normal;font-weight:normal;font-size:23.16725349px;line-height:1.25;font-family:sans-serif;letter-spacing:0px;word-spacing:0px;fill:#000000;fill-opacity:1;stroke:none;stroke-width:1.08596492"
     xml:space="preserve"><tspan
       y="27.05279"
       x="220.30667"
       id="tspan4180"
       sodipodi:role="line"
       style="stroke-width:1.08596492">(b)</tspan></text>
  <text
     xml:space="preserve"
     style="font-style:normal;font-weight:normal;font-size:23.16725349px;line-height:1.25;font-family:sans-serif;letter-spacing:0px;word-spacing:0px;fill:#000000;fill-opacity:1;stroke:none;stroke-width:1.08596492"
     x="793.13647"
     y="27.05279"
     id="text4186"><tspan
       sodipodi:role="line"
       id="tspan4184"
       x="793.13647"
       y="27.05279"
       style="stroke-width:1.08596492">(c)</tspan></text>
  <text
     id="text4321"
     y="232.18214"
     x="276.42581"
     style="font-weight:normal;font-size:10.8596487px;font-family:helvetica;white-space:pre;fill:#282623;fill-opacity:1;stroke:none;stroke-width:1.08596492">0</text>
  <text
     style="font-weight:normal;font-size:10.8596487px;font-family:helvetica;white-space:pre;fill:#282623;fill-opacity:1;stroke:none;stroke-width:1.08596492"
     x="780.63336"
     y="232.18214"
     id="text4325">1e<tspan
   style="font-size:7.05877209px;baseline-shift:super;stroke-width:1.08596492"
   id="tspan4327">6</tspan>
</text>
  <text
     id="text2593"
     y="-44.131474"
     x="54.469517"
     style="font-weight:normal;font-size:6.75644207px;font-family:Helvetica;text-anchor:middle;visibility:hidden;fill:#6e7f8f;fill-opacity:1;stroke:none;stroke-width:0.67564422;stroke-opacity:1" />
  <text
     id="text2616"
     y="51.766937"
     x="46.834049"
     style="font-weight:normal;font-size:6.75644207px;font-family:Helvetica;text-anchor:middle;visibility:hidden;fill:#6e7f8f;fill-opacity:1;stroke:none;stroke-width:0.67564422;stroke-opacity:1"
     transform="rotate(-90)" />
  <g
     style="font-size:12px;font-family:Helvetica;fill:#282623;fill-opacity:1;stroke:#282623;stroke-width:1;stroke-opacity:1"
     id="g2991"
     clip-path="url(#t6f1234dc542b4896b2fb82b82681ae0d)"
     transform="matrix(0.61739014,0,0,0.61739014,28.452444,33.98517)">
    <g
       style="fill:none"
       id="te68ebc315350488e9e621c3e84bdc755"
       class="toyplot-mark-Plot">
      <g
         id="g2977"
         class="toyplot-Series">
        <path
           id="path2975"
           style="stroke:#fa8c61;stroke-width:5;stroke-opacity:1"
           d="m 50,249.98 h 0.4 0.4 0.4 0.4 0.4 0.4 0.4 0.4 0.4 0.4 0.4 0.4 0.4 0.4 0.4 0.4 0.4 0.4 l 0.4,-0.02 h 0.4 0.4 0.4 0.4 0.4 0.4 0.4 0.4 0.4 0.4 l 0.4,-0.02 h 0.4 0.4 0.4 0.4 0.4 0.4 l 0.4,-0.02 h 0.4 0.4 0.4 0.4 0.4 l 0.4,-0.02 h 0.4 0.4 0.4 0.4 l 0.4,-0.02 h 0.4 0.4 0.4 l 0.4,-0.02 h 0.4 0.4 0.4 l 0.4,-0.02 h 0.4 0.4 l 0.4,-0.02 h 0.4 0.4 l 0.4,-0.02 h 0.4 l 0.4,-0.02 H 76 l 0.4,-0.02 h 0.4 0.4 l 0.4,-0.02 H 78 l 0.4,-0.02 0.4,-0.02 h 0.4 l 0.4,-0.02 H 80 l 0.4,-0.02 0.4,-0.02 h 0.4 l 0.4,-0.02 0.4,-0.02 0.4,-0.02 0.4,-0.02 h 0.4 l 0.4,-0.02 0.4,-0.02 0.4,-0.02 0.4,-0.02 0.4,-0.02 0.4,-0.02 0.4,-0.02 0.4,-0.02 0.4,-0.04 0.4,-0.02 0.4,-0.02 0.4,-0.02 0.4,-0.04 0.4,-0.02 0.4,-0.04 0.4,-0.02 0.4,-0.04 0.4,-0.04 0.4,-0.02 0.4,-0.04 0.4,-0.04 0.4,-0.04 0.4,-0.04 0.4,-0.04 0.4,-0.04 0.4,-0.04 0.4,-0.06 0.4,-0.04 0.4,-0.06 0.4,-0.04 0.4,-0.06 0.4,-0.06 0.4,-0.06 0.4,-0.06 0.4,-0.06 0.4,-0.06 0.4,-0.08 0.4,-0.06 0.4,-0.08 0.4,-0.08 0.4,-0.08 0.4,-0.08 0.4,-0.08 0.4,-0.08 0.4,-0.1 0.4,-0.1 0.4,-0.1 0.4,-0.1 0.4,-0.1 0.4,-0.12 0.4,-0.12 0.4,-0.12 0.4,-0.12 0.4,-0.12 0.4,-0.14 0.4,-0.14 0.4,-0.14 0.4,-0.16 0.4,-0.16 0.4,-0.16 0.4,-0.16 0.4,-0.18 0.4,-0.18 0.4,-0.2 0.4,-0.18 0.4,-0.2 0.4,-0.22 0.4,-0.22 0.4,-0.22 0.4,-0.24 0.4,-0.26 0.4,-0.24 0.4,-0.28 0.4,-0.26 0.4,-0.3 0.4,-0.28 0.4,-0.32 0.4,-0.32 0.4,-0.32 0.4,-0.36 0.4,-0.36 0.4,-0.36 0.4,-0.38 0.4,-0.4 0.4,-0.42 0.4,-0.44 0.4,-0.44 0.4,-0.48 0.4,-0.48 0.4,-0.5 0.4,-0.52 0.4,-0.54 0.4,-0.56 0.4,-0.6 0.4,-0.6 0.4,-0.62 0.4,-0.66 0.4,-0.68 0.4,-0.7 0.4,-0.74 0.4,-0.76 0.4,-0.8 0.4,-0.82 0.4,-0.84 0.4,-0.9 0.4,-0.92 0.4,-0.94 0.4,-1 0.4,-1.02 0.4,-1.08 0.4,-1.1 0.4,-1.16 0.4,-1.2 0.4,-1.24 0.4,-1.28 0.4,-1.34 0.4,-1.4 0.4,-1.44 0.4,-1.5 0.4,-1.56 0.4,-1.62 0.4,-1.68 0.4,-1.74 0.4,-1.82 0.4,-1.88 0.4,-1.94 0.4,-2.04 0.4,-2.1 0.4,-2.18 0.4,-2.28 0.4,-2.36 0.4,-2.44 0.4,-2.54 0.4,-2.64 0.4,-2.76 0.4,-2.84 0.4,-2.96 0.4,-3.06 0.4,-3.2 0.4,-3.3 0.4,-3.44 0.4,-3.58 0.4,-3.7 0.4,-3.84 0.4,-4 0.4,-4.16 0.4,-4.3 0.4,-4.48 0.4,-4.66 0.4,-4.82 0.4,-5 0.4,-5.22 0.4,-5.4 0.4,-5.62 0.4,-5.82 0.4,-6.06 0.4,-6.28 0.4,-6.52 0.4,-6.78 0.4,-7.04 0.4,-7.3 0.4,2.44 0.4,7.22 0.4,6.94 0.4,6.7 0.4,6.44 0.4,6.22 0.4,5.96 0.4,5.76 0.4,5.54 0.4,5.34 0.4,5.14 0.4,4.96 0.4,4.76 0.4,4.6 0.4,4.42 0.4,4.26 0.4,4.08 0.4,3.96 0.4,3.8 0.4,3.66 0.4,3.52 0.4,3.4 0.4,3.28 0.4,3.14 0.4,3.04 0.4,2.92 0.4,2.8 0.4,2.72 0.4,2.6 0.4,2.52 0.4,2.42 0.4,2.32 0.4,2.24 0.4,2.16 0.4,2.08 0.4,2 0.4,1.94 0.4,1.86 0.4,1.78 0.4,1.72 0.4,1.66 0.4,1.6 0.4,1.54 0.4,1.48 0.4,1.42 0.4,1.38 0.4,1.32 0.4,1.28 0.4,1.22 0.4,1.18 0.4,1.14 0.4,1.1 0.4,1.06 0.4,1.02 0.4,0.98 0.4,0.94 0.4,0.9 0.4,0.88 0.4,0.84 0.4,0.8 0.4,0.8 0.4,0.74 0.4,0.72 0.4,0.7 0.4,0.68 0.4,0.64 0.4,0.62 0.4,0.6 0.4,0.58 0.4,0.56 0.4,0.54 0.4,0.5 0.4,0.5 0.4,0.48 0.4,0.46 0.4,0.44 0.4,0.44 0.4,0.4 0.4,0.4 0.4,0.38 0.4,0.36 0.4,0.36 0.4,0.34 0.4,0.34 0.4,0.3 0.4,0.32 0.4,0.28 0.4,0.28 0.4,0.28 0.4,0.26 0.4,0.26 0.4,0.24 0.4,0.22 0.4,0.24 0.4,0.2 0.4,0.22 0.4,0.2 0.4,0.2 0.4,0.18 0.4,0.18 0.4,0.18 0.4,0.16 0.4,0.16 0.4,0.16 0.4,0.14 0.4,0.14 0.4,0.14 0.4,0.14 0.4,0.12 0.4,0.12 0.4,0.12 0.4,0.12 0.4,0.1 0.4,0.12 0.4,0.1 0.4,0.1 0.4,0.08 0.4,0.1 0.4,0.08 0.4,0.1 0.4,0.08 0.4,0.08 0.4,0.06 0.4,0.08 0.4,0.06 0.4,0.08 0.4,0.06 0.4,0.06 0.4,0.06 0.4,0.06 0.4,0.06 0.4,0.06 0.4,0.04 0.4,0.06 0.4,0.04 0.4,0.04 0.4,0.06 0.4,0.04 0.4,0.04 0.4,0.04 0.4,0.04 0.4,0.04 0.4,0.02 0.4,0.04 0.4,0.04 0.4,0.02 0.4,0.04 0.4,0.02 0.4,0.04 0.4,0.02 0.4,0.02 0.4,0.04 0.4,0.02 0.4,0.02 0.4,0.02 0.4,0.02 0.4,0.02 0.4,0.02 0.4,0.02 0.4,0.02 0.4,0.02 0.4,0.02 0.4,0.02 0.4,0.02 h 0.4 l 0.4,0.02 0.4,0.02 0.4,0.02 h 0.4 l 0.4,0.02 h 0.4 l 0.4,0.02 0.4,0.02 h 0.4 l 0.4,0.02 h 0.4 l 0.4,0.02 h 0.4 l 0.4,0.02 h 0.4 0.4 l 0.4,0.02 h 0.4 l 0.4,0.02 h 0.4 0.4 l 0.4,0.02 h 0.4 0.4 l 0.4,0.02 h 0.4 0.4 0.4 l 0.4,0.02 h 0.4 0.4 0.4 l 0.4,0.02 h 0.4 0.4 0.4 l 0.4,0.02 h 0.4 0.4 0.4 0.4 0.4 l 0.4,0.02 h 0.4 0.4 0.4 0.4 0.4 0.4 0.4 l 0.4,0.02 h 0.4 0.4 0.4 0.4 0.4 0.4 0.4 0.4 0.4 0.4 l 0.4,0.02 h 0.4 0.4 0.4 0.4 0.4 0.4 0.4 0.4 0.4 0.4 0.4 0.4 0.4 0.4 0.4 0.4 0.4"
           inkscape:connector-curvature="0" />
      </g>
    </g>
    <g
       style="stroke:none"
       id="t2b063f6edfd047cfaa46707673df9cef"
       class="toyplot-mark-FillBoundaries">
      <polygon
         id="polygon2980"
         style="opacity:0.25;fill:#fa8c61;fill-opacity:1;stroke:none"
         points="54,250 54.4,250 54.8,250 55.2,250 55.6,250 56,250 56.4,250 56.8,250 57.2,250 57.6,250 58,250 58.4,250 58.8,250 59.2,250 59.6,250 60,250 60.4,250 60.8,250 61.2,250 61.6,250 62,250 62.4,250 62.8,250 63.2,250 63.6,250 64,250 64.4,250 64.8,250 65.2,250 65.6,250 66,250 66.4,250 66.8,250 67.2,250 67.6,250 68,250 68.4,250 68.8,250 69.2,250 69.6,250 70,250 70.4,250 70.8,250 71.2,250 71.6,250 72,250 72.4,250 72.8,250 73.2,250 73.6,250 74,250 74.4,250 74.8,250 75.2,250 75.6,250 76,250 76.4,250 76.8,250 77.2,250 77.6,250 78,250 78.4,250 78.8,250 79.2,250 79.6,250 80,250 80.4,250 80.8,250 81.2,250 81.6,250 82,250 82.4,250 82.8,250 83.2,250 83.6,250 84,250 84.4,250 84.8,250 85.2,250 85.6,250 86,250 86.4,250 86.8,250 87.2,250 87.6,250 88,250 88.4,250 88.8,250 89.2,250 89.6,250 90,250 90.4,250 90.8,250 91.2,250 91.6,250 92,250 92.4,250 92.8,250 93.2,250 93.6,250 94,250 94.4,250 94.8,250 95.2,250 95.6,250 96,250 96.4,250 96.8,250 97.2,250 97.6,250 98,250 98.4,250 98.8,250 99.2,250 99.6,250 100,250 100.4,250 100.8,250 101.2,250 101.6,250 102,250 102.4,250 102.8,250 103.2,250 103.6,250 104,250 104.4,250 104.8,250 105.2,250 105.6,250 106,250 106.4,250 106.8,250 107.2,250 107.6,250 108,250 108.4,250 108.8,250 109.2,250 109.6,250 110,250 110.4,250 110.8,250 111.2,250 111.6,250 112,250 112.4,250 112.8,250 113.2,250 113.6,250 114,250 114.4,250 114.8,250 115.2,250 115.6,250 116,250 116.4,250 116.8,250 117.2,250 117.6,250 118,250 118.4,250 118.8,250 119.2,250 119.6,250 120,250 120.4,250 120.8,250 121.2,250 121.6,250 122,250 122.4,250 122.8,250 123.2,250 123.6,250 124,250 124.4,250 124.8,250 125.2,250 125.6,250 126,250 126.4,250 126.8,250 127.2,250 127.6,250 128,250 128.4,250 128.8,250 129.2,250 129.6,250 130,250 130.4,250 130.8,250 131.2,250 131.6,250 132,250 132.4,250 132.8,250 133.2,250 133.6,250 134,250 134.4,250 134.8,250 135.2,250 135.6,250 136,250 136.4,250 136.8,250 137.2,250 137.6,250 138,250 138.4,250 138.8,250 139.2,250 139.6,250 140,250 140.4,250 140.8,250 141.2,250 141.6,250 142,250 142.4,250 142.8,250 143.2,250 143.6,250 144,250 144.4,250 144.8,250 145.2,250 145.6,250 146,250 146.4,250 146.8,250 147.2,250 147.6,250 148,250 148.4,250 148.8,250 149.2,250 149.6,250 150,250 150.4,250 150.8,250 151.2,250 151.6,250 152,250 152.4,250 152.8,250 153.2,250 153.6,250 154,250 154.4,250 154.8,250 155.2,250 155.6,250 156,250 156.4,250 156.8,250 157.2,250 157.6,250 158,250 158.4,250 158.8,250 159.2,250 159.6,250 160,250 160.4,250 160.8,250 161.2,250 161.6,250 162,250 162.4,250 162.8,250 163.2,250 163.6,250 164,250 164.4,250 164.8,250 165.2,250 165.6,250 166,250 166.4,250 166.8,250 167.2,250 167.6,250 168,250 168.4,250 168.8,250 169.2,250 169.6,250 170,250 170.4,250 170.8,250 171.2,250 171.6,250 172,250 172.4,250 172.8,250 173.2,250 173.6,250 174,250 174.4,250 174.8,250 175.2,250 175.6,250 176,250 176.4,250 176.8,250 177.2,250 177.6,250 178,250 178.4,250 178.8,250 179.2,250 179.6,250 180,250 180.4,250 180.8,250 181.2,250 181.6,250 182,250 182.4,250 182.8,250 183.2,250 183.6,250 184,250 184.4,250 184.8,250 185.2,250 185.6,250 186,250 186.4,250 186.8,250 187.2,250 187.6,250 188,250 188.4,250 188.8,250 189.2,250 189.6,250 190,250 190.4,250 190.8,250 191.2,250 191.6,250 192,250 192.4,250 192.8,250 193.2,250 193.6,250 194,250 194.4,250 194.8,250 195.2,250 195.6,250 196,250 196.4,250 196.8,250 197.2,250 197.6,250 198,250 198.4,250 198.8,250 199.2,250 199.6,250 200,250 200.4,250 200.8,250 201.2,250 201.6,250 202,250 202.4,250 202.8,250 203.2,250 203.6,250 204,250 204.4,250 204.8,250 205.2,250 205.6,250 206,250 206.4,250 206.8,250 207.2,250 207.6,250 208,250 208.4,250 208.8,250 209.2,250 209.6,250 210,250 210.4,250 210.8,250 211.2,250 211.6,250 212,250 212.4,250 212.8,250 213.2,250 213.6,250 214,250 214.4,250 214.8,250 215.2,250 215.6,250 216,250 216.4,250 216.8,250 217.2,250 217.6,250 218,250 218.4,250 218.8,250 219.2,250 219.6,250 220,250 220.4,250 220.8,250 221.2,250 221.6,250 222,250 222.4,250 222.8,250 223.2,250 223.6,250 224,250 224.4,250 224.8,250 225.2,250 225.6,250 226,250 226.4,250 226.8,250 227.2,250 227.6,250 228,250 228.4,250 228.8,250 229.2,250 229.6,250 230,250 230.4,250 230.8,250 231.2,250 231.6,250 232,250 232.4,250 232.8,250 233.2,250 233.6,250 234,250 234.4,250 234.8,250 235.2,250 235.6,250 236,250 236.4,250 236.8,250 237.2,250 237.6,250 238,250 238.4,250 238.8,250 239.2,250 239.6,250 240,250 240.4,250 240.8,250 241.2,250 241.6,250 242,250 242.4,250 242.8,250 243.2,250 243.6,250 244,250 244.4,250 244.8,250 245.2,250 245.2,249.98 244.8,249.98 244.4,249.98 244,249.98 243.6,249.98 243.2,249.98 242.8,249.98 242.4,249.98 242,249.98 241.6,249.98 241.2,249.98 240.8,249.98 240.4,249.98 240,249.98 239.6,249.98 239.2,249.98 238.8,249.98 238.4,249.98 238,249.96 237.6,249.96 237.2,249.96 236.8,249.96 236.4,249.96 236,249.96 235.6,249.96 235.2,249.96 234.8,249.96 234.4,249.96 234,249.96 233.6,249.94 233.2,249.94 232.8,249.94 232.4,249.94 232,249.94 231.6,249.94 231.2,249.94 230.8,249.94 230.4,249.92 230,249.92 229.6,249.92 229.2,249.92 228.8,249.92 228.4,249.92 228,249.9 227.6,249.9 227.2,249.9 226.8,249.9 226.4,249.88 226,249.88 225.6,249.88 225.2,249.88 224.8,249.86 224.4,249.86 224,249.86 223.6,249.86 223.2,249.84 222.8,249.84 222.4,249.84 222,249.82 221.6,249.82 221.2,249.82 220.8,249.8 220.4,249.8 220,249.78 219.6,249.78 219.2,249.78 218.8,249.76 218.4,249.76 218,249.74 217.6,249.74 217.2,249.72 216.8,249.72 216.4,249.7 216,249.68 215.6,249.68 215.2,249.66 214.8,249.66 214.4,249.64 214,249.62 213.6,249.6 213.2,249.6 212.8,249.58 212.4,249.56 212,249.54 211.6,249.52 211.2,249.5 210.8,249.48 210.4,249.46 210,249.44 209.6,249.42 209.2,249.4 208.8,249.38 208.4,249.36 208,249.32 207.6,249.3 207.2,249.28 206.8,249.24 206.4,249.22 206,249.18 205.6,249.16 205.2,249.12 204.8,249.08 204.4,249.06 204,249.02 203.6,248.98 203.2,248.94 202.8,248.9 202.4,248.86 202,248.8 201.6,248.76 201.2,248.72 200.8,248.66 200.4,248.62 200,248.56 199.6,248.5 199.2,248.44 198.8,248.38 198.4,248.32 198,248.26 197.6,248.18 197.2,248.12 196.8,248.04 196.4,247.98 196,247.9 195.6,247.82 195.2,247.72 194.8,247.64 194.4,247.54 194,247.46 193.6,247.36 193.2,247.26 192.8,247.14 192.4,247.04 192,246.92 191.6,246.8 191.2,246.68 190.8,246.56 190.4,246.42 190,246.28 189.6,246.14 189.2,246 188.8,245.84 188.4,245.68 188,245.52 187.6,245.34 187.2,245.16 186.8,244.98 186.4,244.78 186,244.58 185.6,244.36 185.2,244.16 184.8,243.92 184.4,243.7 184,243.46 183.6,243.2 183.2,242.94 182.8,242.66 182.4,242.38 182,242.1 181.6,241.78 181.2,241.48 180.8,241.14 180.4,240.8 180,240.44 179.6,240.08 179.2,239.7 178.8,239.3 178.4,238.9 178,238.46 177.6,238.02 177.2,237.56 176.8,237.08 176.4,236.58 176,236.08 175.6,235.54 175.2,234.98 174.8,234.4 174.4,233.8 174,233.18 173.6,232.54 173.2,231.86 172.8,231.16 172.4,230.44 172,229.7 171.6,228.9 171.2,228.1 170.8,227.26 170.4,226.38 170,225.48 169.6,224.54 169.2,223.56 168.8,222.54 168.4,221.48 168,220.38 167.6,219.24 167.2,218.06 166.8,216.84 166.4,215.56 166,214.24 165.6,212.86 165.2,211.44 164.8,209.96 164.4,208.42 164,206.82 163.6,205.16 163.2,203.44 162.8,201.66 162.4,199.8 162,197.86 161.6,195.86 161.2,193.78 160.8,191.62 160.4,189.38 160,187.06 159.6,184.64 159.2,182.12 158.8,179.52 158.4,176.8 158,174 157.6,171.08 157.2,168.04 156.8,164.9 156.4,161.62 156,158.22 155.6,154.7 155.2,151.04 154.8,147.24 154.4,143.28 154,139.2 153.6,134.94 153.2,130.52 152.8,125.92 152.4,121.16 152,116.2 151.6,111.06 151.2,105.72 150.8,100.18 150.4,94.42 150,88.46 149.6,82.24 149.2,75.8 148.8,69.1 148.4,62.16 148,54.94 147.6,52.5 147.2,59.8 146.8,66.84 146.4,73.62 146,80.14 145.6,86.42 145.2,92.48 144.8,98.3 144.4,103.92 144,109.32 143.6,114.54 143.2,119.54 142.8,124.36 142.4,129.02 142,133.5 141.6,137.8 141.2,141.96 140.8,145.96 140.4,149.8 140,153.5 139.6,157.08 139.2,160.52 138.8,163.82 138.4,167.02 138,170.08 137.6,173.04 137.2,175.88 136.8,178.64 136.4,181.28 136,183.82 135.6,186.26 135.2,188.62 134.8,190.9 134.4,193.08 134,195.18 133.6,197.22 133.2,199.16 132.8,201.04 132.4,202.86 132,204.6 131.6,206.28 131.2,207.9 130.8,209.46 130.4,210.96 130,212.4 129.6,213.8 129.2,215.14 128.8,216.42 128.4,217.66 128,218.86 127.6,220.02 127.2,221.12 126.8,222.2 126.4,223.22 126,224.22 125.6,225.16 125.2,226.08 124.8,226.98 124.4,227.82 124,228.64 123.6,229.44 123.2,230.2 122.8,230.94 122.4,231.64 122,232.32 121.6,232.98 121.2,233.6 120.8,234.2 120.4,234.8 120,235.36 119.6,235.9 119.2,236.42 118.8,236.92 118.4,237.4 118,237.88 117.6,238.32 117.2,238.76 116.8,239.18 116.4,239.58 116,239.96 115.6,240.32 115.2,240.68 114.8,241.04 114.4,241.36 114,241.68 113.6,242 113.2,242.28 112.8,242.58 112.4,242.84 112,243.12 111.6,243.36 111.2,243.62 110.8,243.86 110.4,244.08 110,244.3 109.6,244.52 109.2,244.72 108.8,244.9 108.4,245.1 108,245.28 107.6,245.46 107.2,245.62 106.8,245.78 106.4,245.94 106,246.1 105.6,246.24 105.2,246.38 104.8,246.52 104.4,246.64 104,246.76 103.6,246.88 103.2,247 102.8,247.12 102.4,247.22 102,247.32 101.6,247.42 101.2,247.52 100.8,247.62 100.4,247.7 100,247.78 99.6,247.86 99.2,247.94 98.8,248.02 98.4,248.1 98,248.16 97.6,248.24 97.2,248.3 96.8,248.36 96.4,248.42 96,248.48 95.6,248.54 95.2,248.6 94.8,248.64 94.4,248.7 94,248.74 93.6,248.8 93.2,248.84 92.8,248.88 92.4,248.92 92,248.96 91.6,249 91.2,249.04 90.8,249.08 90.4,249.1 90,249.14 89.6,249.18 89.2,249.2 88.8,249.24 88.4,249.26 88,249.3 87.6,249.32 87.2,249.34 86.8,249.36 86.4,249.4 86,249.42 85.6,249.44 85.2,249.46 84.8,249.48 84.4,249.5 84,249.52 83.6,249.54 83.2,249.56 82.8,249.56 82.4,249.58 82,249.6 81.6,249.62 81.2,249.64 80.8,249.64 80.4,249.66 80,249.68 79.6,249.68 79.2,249.7 78.8,249.7 78.4,249.72 78,249.74 77.6,249.74 77.2,249.76 76.8,249.76 76.4,249.76 76,249.78 75.6,249.78 75.2,249.8 74.8,249.8 74.4,249.82 74,249.82 73.6,249.82 73.2,249.84 72.8,249.84 72.4,249.84 72,249.86 71.6,249.86 71.2,249.86 70.8,249.86 70.4,249.88 70,249.88 69.6,249.88 69.2,249.88 68.8,249.9 68.4,249.9 68,249.9 67.6,249.9 67.2,249.9 66.8,249.92 66.4,249.92 66,249.92 65.6,249.92 65.2,249.92 64.8,249.92 64.4,249.94 64,249.94 63.6,249.94 63.2,249.94 62.8,249.94 62.4,249.94 62,249.94 61.6,249.96 61.2,249.96 60.8,249.96 60.4,249.96 60,249.96 59.6,249.96 59.2,249.96 58.8,249.96 58.4,249.96 58,249.96 57.6,249.96 57.2,249.98 56.8,249.98 56.4,249.98 56,249.98 55.6,249.98 55.2,249.98 54.8,249.98 54.4,249.98 54,249.98 53.6,249.98 53.2,249.98 52.8,249.98 52.4,249.98 52,249.98 51.6,249.98 51.2,249.98 50.8,249.98 50.4,249.98 50,249.98 50,250 50.4,250 50.8,250 51.2,250 51.6,250 52,250 52.4,250 52.8,250 53.2,250 53.6,250 " />
    </g>
    <g
       style="fill:none;stroke-dasharray:6, 3"
       id="t795fadc54b2c4450ada8d25a2d70fe71"
       class="toyplot-mark-Plot">
      <g
         id="g2985"
         class="toyplot-Series">
        <path
           id="path2983"
           style="stroke:#66c2a3;stroke-width:5;stroke-dasharray:6, 3;stroke-opacity:1"
           d="m 50,210 h 0.4 0.4 0.4 0.4 0.4 0.4 0.4 0.4 0.4 0.4 0.4 0.4 0.4 0.4 0.4 0.4 0.4 0.4 0.4 0.4 0.4 0.4 0.4 0.4 0.4 0.4 0.4 0.4 0.4 0.4 0.4 0.4 0.4 0.4 0.4 0.4 0.4 0.4 0.4 0.4 0.4 0.4 0.4 0.4 0.4 0.4 0.4 0.4 0.4 0.4 0.4 0.4 0.4 0.4 0.4 0.4 0.4 0.4 0.4 0.4 0.4 0.4 0.4 0.4 0.4 0.4 0.4 0.4 0.4 0.4 0.4 0.4 0.4 0.4 0.4 0.4 0.4 0.4 0.4 0.4 0.4 0.4 0.4 0.4 0.4 0.4 0.4 0.4 0.4 0.4 0.4 0.4 0.4 0.4 0.4 0.4 0.4 0.4 0.4 0.4 0.4 0.4 0.4 0.4 0.4 0.4 0.4 0.4 0.4 0.4 0.4 0.4 0.4 0.4 0.4 0.4 0.4 0.4 0.4 0.4 0.4 0.4 0.4 0.4 0.4 0.4 0.4 0.4 0.4 0.4 0.4 0.4 0.4 0.4 0.4 0.4 0.4 0.4 0.4 0.4 0.4 0.4 0.4 0.4 0.4 0.4 0.4 0.4 0.4 0.4 0.4 0.4 0.4 0.4 0.4 0.4 0.4 0.4 0.4 0.4 0.4 0.4 0.4 0.4 0.4 0.4 0.4 0.4 0.4 0.4 0.4 0.4 0.4 0.4 0.4 0.4 0.4 0.4 0.4 0.4 0.4 0.4 0.4 0.4 0.4 0.4 0.4 0.4 0.4 0.4 0.4 0.4 0.4 0.4 0.4 0.4 0.4 0.4 0.4 0.4 0.4 0.4 0.4 0.4 0.4 0.4 0.4 0.4 0.4 0.4 0.4 0.4 0.4 0.4 0.4 0.4 0.4 0.4 0.4 0.4 0.4 0.4 0.4 0.4 0.4 0.4 0.4 0.4 0.4 0.4 0.4 0.4 0.4 0.4 0.4 0.4 0.4 0.4 0.4 0.4 0.4 0.4 0.4 0.4 0.4 0.4 0.4 0.4 0.4 0.4 0.4 0.4 0.4 0.4 0.4 0.4 0.4 0.4 0.4 0.4 0.4 0.4 0.4 0.4 0.4 0.4 0.4 0.4 0.4 0.4 0.4 0.4 0.4 0.4 0.4 0.4 0.4 0.4 0.4 0.4 0.4 0.4 0.4 0.4 0.4 0.4 0.4 0.4 0.4 0.4 0.4 0.4 0.4 0.4 0.4 0.4 0.4 0.4 0.4 0.4 0.4 0.4 0.4 0.4 0.4 0.4 0.4 0.4 0.4 0.4 0.4 0.4 0.4 0.4 0.4 0.4 0.4 0.4 0.4 0.4 0.4 0.4 0.4 0.4 0.4 0.4 0.4 0.4 0.4 0.4 0.4 0.4 0.4 0.4 0.4 0.4 0.4 0.4 0.4 0.4 0.4 0.4 0.4 0.4 0.4 0.4 0.4 0.4 0.4 0.4 0.4 0.4 0.4 0.4 0.4 0.4 0.4 0.4 0.4 0.4 0.4 0.4 0.4 0.4 0.4 0.4 0.4 0.4 0.4 0.4 0.4 0.4 0.4 0.4 0.4 0.4 0.4 0.4 0.4 0.4 0.4 0.4 0.4 0.4 0.4 0.4 0.4 0.4 0.4 0.4 0.4 0.4 0.4 0.4 0.4 0.4 0.4 0.4 0.4 0.4 0.4 0.4 0.4 0.4 0.4 0.4 0.4 0.4 0.4 0.4 0.4 0.4 0.4 0.4 0.4 0.4 0.4 0.4 0.4 0.4 0.4 0.4 0.4 0.4 0.4 0.4 0.4 0.4 0.4 0.4 0.4 0.4 0.4 0.4 0.4 0.4 0.4 0.4 0.4 0.4 0.4 0.4 0.4 0.4 0.4 0.4 0.4 0.4 0.4 0.4 0.4 0.4 0.4 0.4 0.4 0.4 0.4 0.4 0.4 0.4 0.4 0.4 0.4 0.4 0.4 0.4 0.4 0.4 0.4 0.4 0.4 0.4 0.4 0.4 0.4 0.4 0.4 0.4 0.4 0.4 0.4 0.4 0.4 0.4 0.4 0.4 0.4 0.4"
           inkscape:connector-curvature="0" />
      </g>
    </g>
    <g
       style="stroke:none"
       id="taeb2c2d9b15241008fe95994ea7b5218"
       class="toyplot-mark-FillBoundaries">
      <polygon
         id="polygon2988"
         style="opacity:0.25;fill:#66c2a3;fill-opacity:1;stroke:none"
         points="54,250 54.4,250 54.8,250 55.2,250 55.6,250 56,250 56.4,250 56.8,250 57.2,250 57.6,250 58,250 58.4,250 58.8,250 59.2,250 59.6,250 60,250 60.4,250 60.8,250 61.2,250 61.6,250 62,250 62.4,250 62.8,250 63.2,250 63.6,250 64,250 64.4,250 64.8,250 65.2,250 65.6,250 66,250 66.4,250 66.8,250 67.2,250 67.6,250 68,250 68.4,250 68.8,250 69.2,250 69.6,250 70,250 70.4,250 70.8,250 71.2,250 71.6,250 72,250 72.4,250 72.8,250 73.2,250 73.6,250 74,250 74.4,250 74.8,250 75.2,250 75.6,250 76,250 76.4,250 76.8,250 77.2,250 77.6,250 78,250 78.4,250 78.8,250 79.2,250 79.6,250 80,250 80.4,250 80.8,250 81.2,250 81.6,250 82,250 82.4,250 82.8,250 83.2,250 83.6,250 84,250 84.4,250 84.8,250 85.2,250 85.6,250 86,250 86.4,250 86.8,250 87.2,250 87.6,250 88,250 88.4,250 88.8,250 89.2,250 89.6,250 90,250 90.4,250 90.8,250 91.2,250 91.6,250 92,250 92.4,250 92.8,250 93.2,250 93.6,250 94,250 94.4,250 94.8,250 95.2,250 95.6,250 96,250 96.4,250 96.8,250 97.2,250 97.6,250 98,250 98.4,250 98.8,250 99.2,250 99.6,250 100,250 100.4,250 100.8,250 101.2,250 101.6,250 102,250 102.4,250 102.8,250 103.2,250 103.6,250 104,250 104.4,250 104.8,250 105.2,250 105.6,250 106,250 106.4,250 106.8,250 107.2,250 107.6,250 108,250 108.4,250 108.8,250 109.2,250 109.6,250 110,250 110.4,250 110.8,250 111.2,250 111.6,250 112,250 112.4,250 112.8,250 113.2,250 113.6,250 114,250 114.4,250 114.8,250 115.2,250 115.6,250 116,250 116.4,250 116.8,250 117.2,250 117.6,250 118,250 118.4,250 118.8,250 119.2,250 119.6,250 120,250 120.4,250 120.8,250 121.2,250 121.6,250 122,250 122.4,250 122.8,250 123.2,250 123.6,250 124,250 124.4,250 124.8,250 125.2,250 125.6,250 126,250 126.4,250 126.8,250 127.2,250 127.6,250 128,250 128.4,250 128.8,250 129.2,250 129.6,250 130,250 130.4,250 130.8,250 131.2,250 131.6,250 132,250 132.4,250 132.8,250 133.2,250 133.6,250 134,250 134.4,250 134.8,250 135.2,250 135.6,250 136,250 136.4,250 136.8,250 137.2,250 137.6,250 138,250 138.4,250 138.8,250 139.2,250 139.6,250 140,250 140.4,250 140.8,250 141.2,250 141.6,250 142,250 142.4,250 142.8,250 143.2,250 143.6,250 144,250 144.4,250 144.8,250 145.2,250 145.6,250 146,250 146.4,250 146.8,250 147.2,250 147.6,250 148,250 148.4,250 148.8,250 149.2,250 149.6,250 150,250 150.4,250 150.8,250 151.2,250 151.6,250 152,250 152.4,250 152.8,250 153.2,250 153.6,250 154,250 154.4,250 154.8,250 155.2,250 155.6,250 156,250 156.4,250 156.8,250 157.2,250 157.6,250 158,250 158.4,250 158.8,250 159.2,250 159.6,250 160,250 160.4,250 160.8,250 161.2,250 161.6,250 162,250 162.4,250 162.8,250 163.2,250 163.6,250 164,250 164.4,250 164.8,250 165.2,250 165.6,250 166,250 166.4,250 166.8,250 167.2,250 167.6,250 168,250 168.4,250 168.8,250 169.2,250 169.6,250 170,250 170.4,250 170.8,250 171.2,250 171.6,250 172,250 172.4,250 172.8,250 173.2,250 173.6,250 174,250 174.4,250 174.8,250 175.2,250 175.6,250 176,250 176.4,250 176.8,250 177.2,250 177.6,250 178,250 178.4,250 178.8,250 179.2,250 179.6,250 180,250 180.4,250 180.8,250 181.2,250 181.6,250 182,250 182.4,250 182.8,250 183.2,250 183.6,250 184,250 184.4,250 184.8,250 185.2,250 185.6,250 186,250 186.4,250 186.8,250 187.2,250 187.6,250 188,250 188.4,250 188.8,250 189.2,250 189.6,250 190,250 190.4,250 190.8,250 191.2,250 191.6,250 192,250 192.4,250 192.8,250 193.2,250 193.6,250 194,250 194.4,250 194.8,250 195.2,250 195.6,250 196,250 196.4,250 196.8,250 197.2,250 197.6,250 198,250 198.4,250 198.8,250 199.2,250 199.6,250 200,250 200.4,250 200.8,250 201.2,250 201.6,250 202,250 202.4,250 202.8,250 203.2,250 203.6,250 204,250 204.4,250 204.8,250 205.2,250 205.6,250 206,250 206.4,250 206.8,250 207.2,250 207.6,250 208,250 208.4,250 208.8,250 209.2,250 209.6,250 210,250 210.4,250 210.8,250 211.2,250 211.6,250 212,250 212.4,250 212.8,250 213.2,250 213.6,250 214,250 214.4,250 214.8,250 215.2,250 215.6,250 216,250 216.4,250 216.8,250 217.2,250 217.6,250 218,250 218.4,250 218.8,250 219.2,250 219.6,250 220,250 220.4,250 220.8,250 221.2,250 221.6,250 222,250 222.4,250 222.8,250 223.2,250 223.6,250 224,250 224.4,250 224.8,250 225.2,250 225.6,250 226,250 226.4,250 226.8,250 227.2,250 227.6,250 228,250 228.4,250 228.8,250 229.2,250 229.6,250 230,250 230.4,250 230.8,250 231.2,250 231.6,250 232,250 232.4,250 232.8,250 233.2,250 233.6,250 234,250 234.4,250 234.8,250 235.2,250 235.6,250 236,250 236.4,250 236.8,250 237.2,250 237.6,250 238,250 238.4,250 238.8,250 239.2,250 239.6,250 240,250 240.4,250 240.8,250 241.2,250 241.6,250 242,250 242.4,250 242.8,250 243.2,250 243.6,250 244,250 244.4,250 244.8,250 245.2,250 245.2,210 244.8,210 244.4,210 244,210 243.6,210 243.2,210 242.8,210 242.4,210 242,210 241.6,210 241.2,210 240.8,210 240.4,210 240,210 239.6,210 239.2,210 238.8,210 238.4,210 238,210 237.6,210 237.2,210 236.8,210 236.4,210 236,210 235.6,210 235.2,210 234.8,210 234.4,210 234,210 233.6,210 233.2,210 232.8,210 232.4,210 232,210 231.6,210 231.2,210 230.8,210 230.4,210 230,210 229.6,210 229.2,210 228.8,210 228.4,210 228,210 227.6,210 227.2,210 226.8,210 226.4,210 226,210 225.6,210 225.2,210 224.8,210 224.4,210 224,210 223.6,210 223.2,210 222.8,210 222.4,210 222,210 221.6,210 221.2,210 220.8,210 220.4,210 220,210 219.6,210 219.2,210 218.8,210 218.4,210 218,210 217.6,210 217.2,210 216.8,210 216.4,210 216,210 215.6,210 215.2,210 214.8,210 214.4,210 214,210 213.6,210 213.2,210 212.8,210 212.4,210 212,210 211.6,210 211.2,210 210.8,210 210.4,210 210,210 209.6,210 209.2,210 208.8,210 208.4,210 208,210 207.6,210 207.2,210 206.8,210 206.4,210 206,210 205.6,210 205.2,210 204.8,210 204.4,210 204,210 203.6,210 203.2,210 202.8,210 202.4,210 202,210 201.6,210 201.2,210 200.8,210 200.4,210 200,210 199.6,210 199.2,210 198.8,210 198.4,210 198,210 197.6,210 197.2,210 196.8,210 196.4,210 196,210 195.6,210 195.2,210 194.8,210 194.4,210 194,210 193.6,210 193.2,210 192.8,210 192.4,210 192,210 191.6,210 191.2,210 190.8,210 190.4,210 190,210 189.6,210 189.2,210 188.8,210 188.4,210 188,210 187.6,210 187.2,210 186.8,210 186.4,210 186,210 185.6,210 185.2,210 184.8,210 184.4,210 184,210 183.6,210 183.2,210 182.8,210 182.4,210 182,210 181.6,210 181.2,210 180.8,210 180.4,210 180,210 179.6,210 179.2,210 178.8,210 178.4,210 178,210 177.6,210 177.2,210 176.8,210 176.4,210 176,210 175.6,210 175.2,210 174.8,210 174.4,210 174,210 173.6,210 173.2,210 172.8,210 172.4,210 172,210 171.6,210 171.2,210 170.8,210 170.4,210 170,210 169.6,210 169.2,210 168.8,210 168.4,210 168,210 167.6,210 167.2,210 166.8,210 166.4,210 166,210 165.6,210 165.2,210 164.8,210 164.4,210 164,210 163.6,210 163.2,210 162.8,210 162.4,210 162,210 161.6,210 161.2,210 160.8,210 160.4,210 160,210 159.6,210 159.2,210 158.8,210 158.4,210 158,210 157.6,210 157.2,210 156.8,210 156.4,210 156,210 155.6,210 155.2,210 154.8,210 154.4,210 154,210 153.6,210 153.2,210 152.8,210 152.4,210 152,210 151.6,210 151.2,210 150.8,210 150.4,210 150,210 149.6,210 149.2,210 148.8,210 148.4,210 148,210 147.6,210 147.2,210 146.8,210 146.4,210 146,210 145.6,210 145.2,210 144.8,210 144.4,210 144,210 143.6,210 143.2,210 142.8,210 142.4,210 142,210 141.6,210 141.2,210 140.8,210 140.4,210 140,210 139.6,210 139.2,210 138.8,210 138.4,210 138,210 137.6,210 137.2,210 136.8,210 136.4,210 136,210 135.6,210 135.2,210 134.8,210 134.4,210 134,210 133.6,210 133.2,210 132.8,210 132.4,210 132,210 131.6,210 131.2,210 130.8,210 130.4,210 130,210 129.6,210 129.2,210 128.8,210 128.4,210 128,210 127.6,210 127.2,210 126.8,210 126.4,210 126,210 125.6,210 125.2,210 124.8,210 124.4,210 124,210 123.6,210 123.2,210 122.8,210 122.4,210 122,210 121.6,210 121.2,210 120.8,210 120.4,210 120,210 119.6,210 119.2,210 118.8,210 118.4,210 118,210 117.6,210 117.2,210 116.8,210 116.4,210 116,210 115.6,210 115.2,210 114.8,210 114.4,210 114,210 113.6,210 113.2,210 112.8,210 112.4,210 112,210 111.6,210 111.2,210 110.8,210 110.4,210 110,210 109.6,210 109.2,210 108.8,210 108.4,210 108,210 107.6,210 107.2,210 106.8,210 106.4,210 106,210 105.6,210 105.2,210 104.8,210 104.4,210 104,210 103.6,210 103.2,210 102.8,210 102.4,210 102,210 101.6,210 101.2,210 100.8,210 100.4,210 100,210 99.6,210 99.2,210 98.8,210 98.4,210 98,210 97.6,210 97.2,210 96.8,210 96.4,210 96,210 95.6,210 95.2,210 94.8,210 94.4,210 94,210 93.6,210 93.2,210 92.8,210 92.4,210 92,210 91.6,210 91.2,210 90.8,210 90.4,210 90,210 89.6,210 89.2,210 88.8,210 88.4,210 88,210 87.6,210 87.2,210 86.8,210 86.4,210 86,210 85.6,210 85.2,210 84.8,210 84.4,210 84,210 83.6,210 83.2,210 82.8,210 82.4,210 82,210 81.6,210 81.2,210 80.8,210 80.4,210 80,210 79.6,210 79.2,210 78.8,210 78.4,210 78,210 77.6,210 77.2,210 76.8,210 76.4,210 76,210 75.6,210 75.2,210 74.8,210 74.4,210 74,210 73.6,210 73.2,210 72.8,210 72.4,210 72,210 71.6,210 71.2,210 70.8,210 70.4,210 70,210 69.6,210 69.2,210 68.8,210 68.4,210 68,210 67.6,210 67.2,210 66.8,210 66.4,210 66,210 65.6,210 65.2,210 64.8,210 64.4,210 64,210 63.6,210 63.2,210 62.8,210 62.4,210 62,210 61.6,210 61.2,210 60.8,210 60.4,210 60,210 59.6,210 59.2,210 58.8,210 58.4,210 58,210 57.6,210 57.2,210 56.8,210 56.4,210 56,210 55.6,210 55.2,210 54.8,210 54.4,210 54,210 53.6,210 53.2,210 52.8,210 52.4,210 52,210 51.6,210 51.2,210 50.8,210 50.4,210 50,210 50,250 50.4,250 50.8,250 51.2,250 51.6,250 52,250 52.4,250 52.8,250 53.2,250 53.6,250 " />
    </g>
  </g>
</svg>
